#N canvas 145 192 1062 586 10;
#X obj 101 134 moses;
#X obj 128 65 r init;
#X obj 221 134 moses;
#X obj 248 45 r init;
#X obj 341 134 moses;
#X obj 368 45 r init;
#X obj 461 134 moses;
#X obj 488 45 r init;
#X obj 581 134 moses;
#X obj 608 45 r init;
#X obj 701 134 moses;
#X obj 728 45 r init;
#X floatatom 248 114 5 0 0 0 - - -;
#X floatatom 368 114 5 0 0 0 - - -;
#X floatatom 488 114 5 0 0 0 - - -;
#X floatatom 608 114 5 0 0 0 - - -;
#X floatatom 728 114 5 0 0 0 - - -;
#X floatatom 128 111 5 0 0 0 - - -;
#X obj 221 209 t b;
#X text 226 188 Fa;
#X obj 341 209 t b;
#X text 346 188 stop Fa;
#X obj 461 209 t b;
#X text 466 188 Sol;
#X obj 581 209 t b;
#X text 586 188 stop Sol;
#X obj 701 209 t b;
#X text 706 188 Fa2;
#X text 106 46 0'00" <-> 1'30";
#X text 216 24 1'00" <-> 2'30";
#X text 335 24 2'25" <-> 2'40";
#X text 457 23 2'35" <-> 2'50";
#X text 576 24 4'30" <-> 5'00;
#X text 697 25 4'50" <-> 5'20";
#X obj 811 134 moses;
#X obj 838 45 r init;
#X obj 838 91 + 295;
#X obj 931 134 moses;
#X obj 958 45 r init;
#X floatatom 838 114 5 0 0 0 - - -;
#X floatatom 958 114 5 0 0 0 - - -;
#X obj 811 209 t b;
#X text 816 188 stop Sol;
#X obj 931 209 t b;
#X text 936 188 Fa2;
#X obj 981 209 t b;
#X text 986 188 stop Fa2;
#X text 806 24 4'55" <-> 6'10;
#X text 927 25 5'50" <-> 7'00";
#X obj 128 88 randomf 90;
#X obj 248 68 randomf 90;
#X obj 248 91 + 60;
#X obj 368 91 + 145;
#X obj 488 91 + 155;
#X obj 608 91 + 270;
#X obj 728 91 + 290;
#X obj 958 91 + 350;
#X obj 368 68 randomf 15;
#X obj 488 68 randomf 15;
#X obj 608 68 randomf 30;
#X obj 728 68 randomf 30;
#X obj 838 68 randomf 75;
#X obj 958 68 randomf 70;
#X obj 101 209 t b;
#X msg 101 232 0;
#X msg 221 232 1;
#X msg 341 232 2;
#X msg 461 232 3;
#X msg 581 232 4;
#X msg 701 232 5;
#X obj 101 11 r clock;
#X obj 461 302 t f f;
#X obj 696 488 outlet;
#X obj 86 394 == 1;
#X obj 86 419 player alto/D4-N;
#X obj 206 394 == 3;
#X obj 326 394 == 5;
#X msg 811 232 6;
#X msg 931 232 7;
#X msg 980 232 8;
#X obj 446 394 == 7;
#X obj 206 419 player alto/E4;
#X obj 326 419 player alto/Db4O;
#X obj 446 419 player alto/Db4G;
#X obj 331 498 outlet~;
#X floatatom 485 348 5 0 0 0 - - -;
#X floatatom 34 45 5 0 0 0 - - -;
#X connect 0 0 63 0;
#X connect 0 1 2 0;
#X connect 1 0 49 0;
#X connect 2 0 18 0;
#X connect 2 1 4 0;
#X connect 3 0 50 0;
#X connect 4 0 20 0;
#X connect 4 1 6 0;
#X connect 5 0 57 0;
#X connect 6 0 22 0;
#X connect 6 1 8 0;
#X connect 7 0 58 0;
#X connect 8 0 24 0;
#X connect 8 1 10 0;
#X connect 9 0 59 0;
#X connect 10 0 26 0;
#X connect 10 1 34 0;
#X connect 11 0 60 0;
#X connect 18 0 65 0;
#X connect 20 0 66 0;
#X connect 22 0 67 0;
#X connect 24 0 68 0;
#X connect 26 0 69 0;
#X connect 34 0 41 0;
#X connect 34 1 37 0;
#X connect 35 0 61 0;
#X connect 36 0 34 1;
#X connect 36 0 39 0;
#X connect 37 0 43 0;
#X connect 37 1 45 0;
#X connect 38 0 62 0;
#X connect 41 0 77 0;
#X connect 43 0 78 0;
#X connect 45 0 79 0;
#X connect 49 0 0 1;
#X connect 49 0 17 0;
#X connect 50 0 51 0;
#X connect 51 0 2 1;
#X connect 51 0 12 0;
#X connect 52 0 4 1;
#X connect 52 0 13 0;
#X connect 53 0 6 1;
#X connect 53 0 14 0;
#X connect 54 0 8 1;
#X connect 54 0 15 0;
#X connect 55 0 10 1;
#X connect 55 0 16 0;
#X connect 56 0 37 1;
#X connect 56 0 40 0;
#X connect 57 0 52 0;
#X connect 58 0 53 0;
#X connect 59 0 54 0;
#X connect 60 0 55 0;
#X connect 61 0 36 0;
#X connect 62 0 56 0;
#X connect 63 0 64 0;
#X connect 64 0 71 0;
#X connect 65 0 71 0;
#X connect 66 0 71 0;
#X connect 67 0 71 0;
#X connect 68 0 71 0;
#X connect 69 0 71 0;
#X connect 70 0 0 0;
#X connect 70 0 86 0;
#X connect 71 0 73 0;
#X connect 71 0 75 0;
#X connect 71 0 76 0;
#X connect 71 0 80 0;
#X connect 71 1 72 0;
#X connect 71 1 85 0;
#X connect 73 0 74 0;
#X connect 74 0 84 0;
#X connect 75 0 81 0;
#X connect 76 0 82 0;
#X connect 77 0 71 0;
#X connect 78 0 71 0;
#X connect 79 0 71 0;
#X connect 80 0 83 0;
#X connect 81 0 84 0;
#X connect 82 0 84 0;
#X connect 83 0 84 0;
