#N canvas 126 638 1062 386 10;
#X obj 101 11 inlet;
#X obj 101 134 moses;
#X obj 128 65 r init;
#X obj 221 134 moses;
#X obj 248 45 r init;
#X obj 341 134 moses;
#X obj 368 45 r init;
#X obj 461 134 moses;
#X obj 488 45 r init;
#X obj 581 134 moses;
#X obj 608 45 r init;
#X obj 701 134 moses;
#X obj 728 45 r init;
#X floatatom 248 114 5 0 0 0 - - -;
#X floatatom 368 114 5 0 0 0 - - -;
#X floatatom 488 114 5 0 0 0 - - -;
#X floatatom 608 114 5 0 0 0 - - -;
#X floatatom 728 114 5 0 0 0 - - -;
#X floatatom 128 111 5 0 0 0 - - -;
#X obj 221 209 t b;
#X text 226 188 Fa;
#X obj 341 209 t b;
#X text 346 188 stop Fa;
#X obj 461 209 t b;
#X text 466 188 Sol;
#X obj 581 209 t b;
#X text 586 188 stop Sol;
#X obj 701 209 t b;
#X text 706 188 Fa2;
#X obj 751 209 t b;
#X text 756 188 stop Fa2;
#X text 106 46 0'00" <-> 1'30";
#X text 216 24 1'00" <-> 2'30";
#X text 335 24 2'25" <-> 2'40";
#X text 457 23 2'35" <-> 2'50";
#X text 576 24 4'30" <-> 5'00;
#X text 697 25 4'50" <-> 5'20";
#X obj 811 134 moses;
#X obj 838 45 r init;
#X obj 838 91 + 295;
#X obj 931 134 moses;
#X obj 958 45 r init;
#X floatatom 838 114 5 0 0 0 - - -;
#X floatatom 958 114 5 0 0 0 - - -;
#X obj 811 209 t b;
#X text 816 188 stop Sol;
#X obj 931 209 t b;
#X text 936 188 Fa2;
#X obj 981 209 t b;
#X text 986 188 stop Fa2;
#X text 806 24 4'55" <-> 6'10;
#X text 927 25 5'50" <-> 7'00";
#X obj 128 88 randomf 90;
#X obj 248 68 randomf 90;
#X obj 248 91 + 60;
#X obj 368 91 + 145;
#X obj 488 91 + 155;
#X obj 608 91 + 270;
#X obj 728 91 + 290;
#X obj 958 91 + 350;
#X obj 368 68 randomf 15;
#X obj 488 68 randomf 15;
#X obj 608 68 randomf 30;
#X obj 728 68 randomf 30;
#X obj 838 68 randomf 75;
#X obj 958 68 randomf 70;
#X obj 101 209 t b;
#X msg 101 232 0;
#X msg 221 232 1;
#X msg 341 232 2;
#X msg 461 232 3;
#X msg 581 232 4;
#X msg 701 232 5;
#X msg 751 232 6;
#X msg 811 232 7;
#X msg 931 232 8;
#X msg 981 232 9;
#X obj 461 302 outlet;
#X connect 0 0 1 0;
#X connect 1 0 66 0;
#X connect 1 1 3 0;
#X connect 2 0 52 0;
#X connect 3 0 19 0;
#X connect 3 1 5 0;
#X connect 4 0 53 0;
#X connect 5 0 21 0;
#X connect 5 1 7 0;
#X connect 6 0 60 0;
#X connect 7 0 23 0;
#X connect 7 1 9 0;
#X connect 8 0 61 0;
#X connect 9 0 25 0;
#X connect 9 1 11 0;
#X connect 10 0 62 0;
#X connect 11 0 27 0;
#X connect 11 1 29 0;
#X connect 12 0 63 0;
#X connect 19 0 68 0;
#X connect 21 0 69 0;
#X connect 23 0 70 0;
#X connect 25 0 71 0;
#X connect 27 0 72 0;
#X connect 29 0 73 0;
#X connect 37 0 44 0;
#X connect 37 1 40 0;
#X connect 38 0 64 0;
#X connect 39 0 37 1;
#X connect 39 0 42 0;
#X connect 40 0 46 0;
#X connect 40 1 48 0;
#X connect 41 0 65 0;
#X connect 44 0 74 0;
#X connect 46 0 75 0;
#X connect 48 0 76 0;
#X connect 52 0 1 1;
#X connect 52 0 18 0;
#X connect 53 0 54 0;
#X connect 54 0 3 1;
#X connect 54 0 13 0;
#X connect 55 0 5 1;
#X connect 55 0 14 0;
#X connect 56 0 7 1;
#X connect 56 0 15 0;
#X connect 57 0 9 1;
#X connect 57 0 16 0;
#X connect 58 0 11 1;
#X connect 58 0 17 0;
#X connect 59 0 40 1;
#X connect 59 0 43 0;
#X connect 60 0 55 0;
#X connect 61 0 56 0;
#X connect 62 0 57 0;
#X connect 63 0 58 0;
#X connect 64 0 39 0;
#X connect 65 0 59 0;
#X connect 66 0 67 0;
#X connect 67 0 77 0;
#X connect 68 0 77 0;
#X connect 69 0 77 0;
#X connect 70 0 77 0;
#X connect 71 0 77 0;
#X connect 72 0 77 0;
#X connect 73 0 77 0;
#X connect 74 0 77 0;
#X connect 75 0 77 0;
#X connect 76 0 77 0;
