#N canvas 0 91 1280 687 10;
#X obj 21 134 moses;
#X obj 48 65 r init;
#X obj 141 134 moses;
#X obj 168 45 r init;
#X obj 261 134 moses;
#X obj 288 45 r init;
#X obj 381 134 moses;
#X obj 408 45 r init;
#X obj 501 134 moses;
#X obj 528 45 r init;
#X obj 621 134 moses;
#X obj 648 45 r init;
#X floatatom 168 114 5 0 0 0 - - -;
#X floatatom 288 114 5 0 0 0 - - -;
#X floatatom 408 114 5 0 0 0 - - -;
#X floatatom 528 114 5 0 0 0 - - -;
#X floatatom 648 114 5 0 0 0 - - -;
#X floatatom 48 111 5 0 0 0 - - -;
#X obj 141 209 t b;
#X text 146 188 Fa;
#X obj 261 209 t b;
#X text 266 188 stop Fa;
#X obj 381 209 t b;
#X text 386 188 Sol;
#X obj 501 209 t b;
#X text 506 188 stop Sol;
#X obj 621 209 t b;
#X text 626 188 Fa2;
#X obj 48 88 randomf 90;
#X text 26 46 0'00" <-> 1'30";
#X text 136 23 1'00" <-> 2'30";
#X obj 168 91 + 60;
#X obj 168 68 randomf 90;
#X text 257 23 2'25" <-> 2'40";
#X obj 288 68 randomf 15;
#X obj 289 90 + 145;
#X text 376 24 2'35" <-> 2'50";
#X obj 408 91 + 155;
#X text 496 24 2'35 <-> 3'20";
#X obj 528 91 + 155;
#X obj 528 68 randomf 45;
#X text 616 24 3'05" <-> 3'50";
#X obj 648 91 + 185;
#X obj 648 68 randomf 45;
#X obj 741 134 moses;
#X obj 768 45 r init;
#X obj 861 134 moses;
#X obj 888 45 r init;
#X obj 981 134 moses;
#X obj 1008 45 r init;
#X obj 1101 134 moses;
#X obj 1128 45 r init;
#X obj 1221 134 moses;
#X obj 1248 45 r init;
#X floatatom 768 114 5 0 0 0 - - -;
#X floatatom 888 114 5 0 0 0 - - -;
#X floatatom 1008 114 5 0 0 0 - - -;
#X floatatom 1128 114 5 0 0 0 - - -;
#X floatatom 1248 114 5 0 0 0 - - -;
#X obj 741 209 t b;
#X text 746 188 Fa;
#X obj 861 209 t b;
#X text 866 188 stop Fa;
#X obj 981 209 t b;
#X text 986 188 Sol;
#X obj 1101 209 t b;
#X text 1106 188 stop Sol;
#X obj 1221 209 t b;
#X text 1226 188 Fa2;
#X obj 1128 68 randomf 45;
#X obj 1248 68 randomf 45;
#X text 736 23 3'40" <-> 4'10";
#X text 857 23 4'00" <-> 4'30";
#X text 976 24 4'15" <-> 5'00";
#X text 1096 24 4'45 <-> 5'30";
#X text 1216 24 5'45" <-> 6'30";
#X obj 1341 134 moses;
#X obj 1368 45 r init;
#X floatatom 1368 114 5 0 0 0 - - -;
#X obj 1341 209 t b;
#X text 1346 188 Fa2;
#X obj 1368 68 randomf 45;
#X text 1336 24 6'15" <-> 7'00";
#X obj 768 91 + 220;
#X obj 889 90 + 240;
#X obj 1008 91 + 255;
#X obj 1128 91 + 285;
#X obj 1248 91 + 345;
#X obj 1368 91 + 375;
#X obj 408 68 randomf 15;
#X obj 768 68 randomf 30;
#X obj 888 68 randomf 30;
#X obj 1008 68 randomf 45;
#X obj 21 209 t b;
#X msg 21 232 0;
#X msg 141 232 1;
#X msg 261 232 2;
#X msg 381 232 3;
#X msg 501 232 4;
#X msg 621 232 5;
#X msg 741 232 6;
#X msg 861 232 7;
#X msg 981 232 8;
#X msg 1101 232 9;
#X msg 1221 232 10;
#X msg 1341 232 11;
#X obj 21 11 r clock;
#X obj 741 310 t f f;
#X obj 1186 557 outlet;
#X obj 355 434 == 1;
#X obj 355 457 player basse/F2-gueu;
#X obj 495 434 == 3;
#X obj 635 434 == 5;
#X obj 775 434 == 7;
#X obj 915 434 == 9;
#X obj 1056 434 == 11;
#X obj 495 457 player basse/G2-heu;
#X obj 635 457 player basse/A3;
#X obj 775 457 player basse/F2-heu;
#X obj 915 457 player basse/E3-G;
#X obj 1055 457 player basse/C4;
#X obj 554 549 outlet~;
#X obj 1381 209 t b;
#X msg 1381 232 12;
#X text 1386 188 Fin;
#X floatatom 893 332 5 0 0 0 - - -;
#X floatatom 31 31 5 0 0 0 - - -;
#X connect 0 0 93 0;
#X connect 0 1 2 0;
#X connect 1 0 28 0;
#X connect 2 0 18 0;
#X connect 2 1 4 0;
#X connect 3 0 32 0;
#X connect 4 0 20 0;
#X connect 4 1 6 0;
#X connect 5 0 34 0;
#X connect 6 0 22 0;
#X connect 6 1 8 0;
#X connect 7 0 89 0;
#X connect 8 0 24 0;
#X connect 8 1 10 0;
#X connect 9 0 40 0;
#X connect 10 0 26 0;
#X connect 10 1 44 0;
#X connect 11 0 43 0;
#X connect 18 0 95 0;
#X connect 20 0 96 0;
#X connect 22 0 97 0;
#X connect 24 0 98 0;
#X connect 26 0 99 0;
#X connect 28 0 0 1;
#X connect 28 0 17 0;
#X connect 31 0 2 1;
#X connect 31 0 12 0;
#X connect 32 0 31 0;
#X connect 34 0 35 0;
#X connect 35 0 4 1;
#X connect 35 0 13 0;
#X connect 37 0 6 1;
#X connect 37 0 14 0;
#X connect 39 0 8 1;
#X connect 39 0 15 0;
#X connect 40 0 39 0;
#X connect 42 0 10 1;
#X connect 42 0 16 0;
#X connect 43 0 42 0;
#X connect 44 0 59 0;
#X connect 44 1 46 0;
#X connect 45 0 90 0;
#X connect 46 0 61 0;
#X connect 46 1 48 0;
#X connect 47 0 91 0;
#X connect 48 0 63 0;
#X connect 48 1 50 0;
#X connect 49 0 92 0;
#X connect 50 0 65 0;
#X connect 50 1 52 0;
#X connect 51 0 69 0;
#X connect 52 0 67 0;
#X connect 52 1 76 0;
#X connect 53 0 70 0;
#X connect 59 0 100 0;
#X connect 61 0 101 0;
#X connect 63 0 102 0;
#X connect 65 0 103 0;
#X connect 67 0 104 0;
#X connect 69 0 86 0;
#X connect 70 0 87 0;
#X connect 76 0 79 0;
#X connect 76 1 122 0;
#X connect 77 0 81 0;
#X connect 79 0 105 0;
#X connect 81 0 88 0;
#X connect 83 0 44 1;
#X connect 83 0 54 0;
#X connect 84 0 46 1;
#X connect 84 0 55 0;
#X connect 85 0 48 1;
#X connect 85 0 56 0;
#X connect 86 0 50 1;
#X connect 86 0 57 0;
#X connect 87 0 52 1;
#X connect 87 0 58 0;
#X connect 88 0 76 1;
#X connect 88 0 78 0;
#X connect 89 0 37 0;
#X connect 90 0 83 0;
#X connect 91 0 84 0;
#X connect 92 0 85 0;
#X connect 93 0 94 0;
#X connect 94 0 107 0;
#X connect 95 0 107 0;
#X connect 96 0 107 0;
#X connect 97 0 107 0;
#X connect 98 0 107 0;
#X connect 99 0 107 0;
#X connect 100 0 107 0;
#X connect 101 0 107 0;
#X connect 102 0 107 0;
#X connect 103 0 107 0;
#X connect 104 0 107 0;
#X connect 105 0 107 0;
#X connect 106 0 0 0;
#X connect 106 0 126 0;
#X connect 107 0 109 0;
#X connect 107 0 111 0;
#X connect 107 0 112 0;
#X connect 107 0 113 0;
#X connect 107 0 114 0;
#X connect 107 0 115 0;
#X connect 107 1 108 0;
#X connect 107 1 125 0;
#X connect 109 0 110 0;
#X connect 110 0 121 0;
#X connect 111 0 116 0;
#X connect 112 0 117 0;
#X connect 113 0 118 0;
#X connect 114 0 119 0;
#X connect 115 0 120 0;
#X connect 116 0 121 0;
#X connect 117 0 121 0;
#X connect 118 0 121 0;
#X connect 119 0 121 0;
#X connect 120 0 121 0;
#X connect 122 0 123 0;
#X connect 123 0 107 0;
