#N canvas 382 184 830 515 10;
#X obj 218 170 soprano;
#X obj 620 170 basse;
#X obj 366 170 alto;
#X obj 490 170 tenor;
#X obj 257 212 img sop;
#X obj 347 360 clone soprano 16;
#X obj 397 380 clone alto 16;
#X obj 507 418 clone basse 16;
#X obj 457 399 clone tenor 16;
#N canvas 0 50 830 270 make_sample_list 0;
#X obj 52 54 fill_sample_list soprano/F4;
#X obj 52 78 fill_sample_list soprano/G4;
#X obj 52 102 fill_sample_list soprano/F5;
#X obj 236 54 fill_sample_list alto/D4-N;
#X obj 411 54 fill_sample_list tenor/C4;
#X obj 411 78 fill_sample_list tenor/A3-heu;
#X obj 411 102 fill_sample_list tenor/D4;
#X obj 411 126 fill_sample_list tenor/A3-O;
#X obj 411 150 fill_sample_list tenor/D4-O;
#X obj 411 174 fill_sample_list tenor/C#3;
#X obj 611 54 fill_sample_list basse/F2-gueu;
#X obj 611 76 fill_sample_list basse/G2-heu;
#X obj 611 98 fill_sample_list basse/A3;
#X obj 611 120 fill_sample_list basse/E3-G;
#X obj 611 142 fill_sample_list basse/F2-heu;
#X obj 611 164 fill_sample_list basse/C4;
#X obj 236 78 fill_sample_list alto/E4;
#X obj 236 102 fill_sample_list alto/Db4O;
#X obj 236 126 fill_sample_list alto/Db4G;
#X restore 583 39 pd make_sample_list;
#N canvas 57 596 450 300 control 0;
#X obj 114 84 image_view image.1;
#X obj 114 64 image_view image.0;
#X obj 114 104 image_view image.2;
#X obj 114 124 image_view image.3;
#N canvas 1173 142 450 300 clock_view 0;
#X symbolatom 91 61 10 0 0 0 - - -;
#X obj 115 196 pack 0 0;
#X floatatom 115 139 5 0 0 0 - - -;
#X floatatom 165 139 5 0 0 0 - - -;
#X obj 165 161 t b f;
#X obj 115 219 ø.remote position;
#X obj 164 248 unpack;
#X msg 115 111 set \$1;
#X msg 165 111 set \$1;
#X obj 310 142 ø.view clock;
#X obj 91 36 ø.remote text;
#X obj 309 211 ø.remote scale;
#X floatatom 269 211 5 0 0 0 - - -;
#X connect 1 0 5 0;
#X connect 2 0 1 0;
#X connect 3 0 4 0;
#X connect 4 0 1 0;
#X connect 4 1 1 1;
#X connect 5 1 6 0;
#X connect 6 0 7 0;
#X connect 6 1 8 0;
#X connect 7 0 2 0;
#X connect 8 0 3 0;
#X connect 10 0 0 0;
#X connect 11 0 12 0;
#X connect 12 0 11 0;
#X restore 123 195 pd clock_view;
#X restore 537 130 pd control;
#X obj 387 212 img alto;
#X obj 647 212 img basse;
#X obj 517 212 img tenor;
#N canvas 459 450 348 167 device 0;
#X obj 160 47 loadbang;
#X msg 78 53 namespace;
#X msg 59 78 address;
#X obj 160 108 ø.device Four2;
#X msg 160 70 expose oscquery 1236 5680;
#X connect 0 0 4 0;
#X connect 1 0 3 0;
#X connect 2 0 3 0;
#X connect 4 0 3 0;
#X restore 401 109 pd device;
#X obj 484 64 ossia;
#X obj 484 87 print default device;
#X msg 484 41 namespace;
#X symbolatom 75 281 10 0 0 0 - - -;
#N canvas 735 288 450 490 make_symbol 0;
#X obj 164 67 t f f, f 11;
#X obj 164 115 int;
#X obj 227 91 / 60;
#X obj 227 115 int;
#X obj 164 92 % 60;
#X obj 164 223 change;
#X obj 166 316 symbol;
#X obj 166 339 outlet;
#X obj 163 39 inlet;
#X obj 164 261 pack f f f, f 11;
#X obj 164 138 t f f;
#X obj 164 161 % 10;
#X obj 194 161 / 10;
#X obj 194 184 int;
#X msg 164 289 \$3'\$2\$1";
#X connect 0 0 4 0;
#X connect 0 1 2 0;
#X connect 1 0 10 0;
#X connect 2 0 3 0;
#X connect 3 0 9 2;
#X connect 4 0 1 0;
#X connect 5 0 9 0;
#X connect 6 0 7 0;
#X connect 8 0 0 0;
#X connect 9 0 14 0;
#X connect 10 0 11 0;
#X connect 10 1 12 0;
#X connect 11 0 5 0;
#X connect 12 0 13 0;
#X connect 13 0 9 1;
#X connect 14 0 6 0;
#X restore 61 254 pd make_symbol;
#N canvas 691 238 470 540 clock 0;
#X obj 119 305 timer;
#X obj 100 204 bng 15 250 50 0 empty empty empty 17 7 0 10 -262144
-1 -1;
#X obj 119 372 / 1000;
#X floatatom 119 395 5 0 0 0 - - -;
#X obj 100 249 metro 100;
#X obj 349 287 s init;
#X obj 100 224 t f b b;
#X obj 119 418 s clock;
#X obj 181 356 < 420;
#X obj 119 328 +;
#X obj 119 350 f;
#X obj 100 272 t b b;
#X msg 182 287 0;
#X msg 234 200 reset;
#X msg 239 411 get global_address;
#X obj 100 28 inlet;
#X obj 40 476 outlet;
#X floatatom 223 333 10 0 0 0 - - -;
#X obj 100 62 t f f;
#X msg 210 124 get global_address;
#X obj 210 145 ø.parameter Four2:/reset @type impulse;
#X obj 126 85 ø.parameter Four2:/play @type bool;
#X obj 151 458 ø.parameter Four2:/clock @unit s;
#X obj 234 179 loadbang;
#X obj 181 419 sel 0;
#X obj 181 377 change 1;
#X msg 150 43 1;
#X obj 210 223 t b b b;
#X obj 260 30 inlet;
#X obj 303 245 t b b b;
#X obj 393 287 s pre-init;
#X obj 273 287 s post-init;
#X obj 285 268 del 100;
#X msg 230 286 -1000;
#X obj 40 453 -;
#X msg 40 431 420 \$1;
#X connect 0 0 9 0;
#X connect 1 0 6 0;
#X connect 2 0 3 0;
#X connect 2 0 8 0;
#X connect 3 0 7 0;
#X connect 3 0 22 0;
#X connect 3 0 35 0;
#X connect 4 0 11 0;
#X connect 6 0 4 0;
#X connect 6 1 0 0;
#X connect 8 0 25 0;
#X connect 9 0 10 0;
#X connect 10 0 9 1;
#X connect 10 0 2 0;
#X connect 11 0 0 0;
#X connect 11 1 0 1;
#X connect 12 0 10 0;
#X connect 13 0 27 0;
#X connect 14 0 22 0;
#X connect 15 0 18 0;
#X connect 17 0 9 1;
#X connect 18 0 6 0;
#X connect 18 1 21 0;
#X connect 19 0 20 0;
#X connect 20 0 27 0;
#X connect 21 0 6 0;
#X connect 23 0 13 0;
#X connect 25 0 24 0;
#X connect 26 0 18 0;
#X connect 27 0 29 0;
#X connect 27 1 12 0;
#X connect 27 2 33 0;
#X connect 28 0 13 0;
#X connect 29 0 32 0;
#X connect 29 1 5 0;
#X connect 29 2 30 0;
#X connect 32 0 31 0;
#X connect 33 0 10 0;
#X connect 34 0 16 0;
#X connect 35 0 34 0;
#X restore 61 229 pd clock;
#X obj 61 197 tgl 15 0 empty empty empty 17 7 0 10 -262144 -1 -1 0
1;
#X obj 58 53 cnv 15 130 60 empty clock_label 7'00" 5 30 0 42 -233017
-66577 0;
#X msg 72 305 \; clock_label label \$1;
#X obj 507 438 *~ 0.1;
#X obj 347 438 *~ 0.1;
#N canvas 735 298 450 490 make_another_symbol 0;
#X obj 227 155 int;
#X obj 164 223 change;
#X obj 164 316 symbol;
#X obj 164 339 outlet;
#X obj 163 39 inlet;
#X obj 164 261 pack f f f, f 11;
#X obj 164 161 % 10;
#X obj 195 121 / 10;
#X obj 195 184 int;
#X obj 164 67 t f f f, f 11;
#X obj 227 104 / 100;
#X obj 227 127 % 10;
#X obj 195 144 % 10;
#X msg 164 289 chrono/\$3\$2\$1.jpg;
#X connect 0 0 5 2;
#X connect 1 0 5 0;
#X connect 2 0 3 0;
#X connect 4 0 9 0;
#X connect 5 0 13 0;
#X connect 6 0 1 0;
#X connect 7 0 12 0;
#X connect 8 0 5 1;
#X connect 9 0 6 0;
#X connect 9 1 7 0;
#X connect 9 2 10 0;
#X connect 10 0 11 0;
#X connect 11 0 0 0;
#X connect 12 0 8 0;
#X connect 13 0 2 0;
#X restore 25 367 pd make_another_symbol;
#X symbolatom 25 398 15 0 0 0 - - -;
#X obj 106 198 bng 15 250 50 0 empty empty empty 17 7 0 10 -262144
-1 -1;
#X symbolatom 652 390 20 0 0 0 - - -;
#X msg 652 345 TV-pubs.mp4;
#X obj 652 368 symbol;
#X msg 645 314 IRM-full.mp4;
#X obj 652 410 ø.remote video/load;
#N canvas 0 50 450 300 cartel-client 0;
#X obj 115 61 loadbang;
#N canvas 584 142 590 383 init 0;
#X obj 29 4 inlet;
#X obj 29 29 route connect;
#X msg 29 52 \$1;
#X obj 29 162 t b;
#X obj 29 77 sel 1 0;
#X obj 150 137 del 5000;
#X obj 150 160 outlet;
#X msg 150 102 stop;
#X obj 90 70 tgl 15 0 empty empty empty 17 7 0 10 -262144 -1 -1 1 1
;
#X obj 29 100 del 100;
#X obj 29 233 ø.remote image.1/scale;
#X floatatom 29 211 5 0 0 0 - - -;
#X msg 29 185 0.66;
#X obj 47 130 r init;
#X obj 76 189 outlet;
#X obj 187 241 print, f 6;
#X msg 187 221 connected to cartel;
#X obj 39 293 ø.remote image.2/scale;
#X floatatom 39 272 5 0 0 0 - - -;
#X obj 81 338 ø.remote image.2/position;
#X msg 81 317 450 570;
#X msg 39 252 0.3;
#X connect 0 0 1 0;
#X connect 1 0 2 0;
#X connect 2 0 4 0;
#X connect 2 0 8 0;
#X connect 3 0 12 0;
#X connect 3 0 14 0;
#X connect 3 0 21 0;
#X connect 3 0 20 0;
#X connect 4 0 9 0;
#X connect 4 0 16 0;
#X connect 4 1 5 0;
#X connect 5 0 6 0;
#X connect 7 0 5 0;
#X connect 9 0 3 0;
#X connect 11 0 10 0;
#X connect 12 0 11 0;
#X connect 13 0 3 0;
#X connect 16 0 15 0;
#X connect 18 0 17 0;
#X connect 20 0 19 0;
#X connect 21 0 18 0;
#X restore 98 183 pd init;
#X msg 134 108 namespace;
#X obj 115 138 ossia.client cartel 0;
#X msg 185 54 connect oscquery ws://cartel.local:5680;
#X msg 115 84 connect oscquery ws://192.168.32.9:5680;
#X obj 97 40 r reconnect;
#X obj 98 204 outlet;
#X connect 0 0 5 0;
#X connect 1 0 7 0;
#X connect 2 0 3 0;
#X connect 3 0 1 0;
#X connect 5 0 3 0;
#X connect 6 0 5 0;
#X restore 243 8 pd cartel-client;
#N canvas 359 284 450 300 ecg-client 0;
#X obj 115 61 loadbang;
#N canvas 51 101 590 536 init 0;
#X obj 39 14 inlet;
#X obj 39 39 route connect;
#X msg 39 62 \$1;
#X obj 39 192 t b;
#X obj 39 87 sel 1 0;
#X obj 160 147 del 5000;
#X obj 160 170 outlet;
#X msg 160 112 stop;
#X obj 100 80 tgl 15 0 empty empty empty 17 7 0 10 -262144 -1 -1 1
1;
#X obj 39 110 del 100;
#X obj 39 360 ø.remote image.1/scale;
#X floatatom 39 258 5 0 0 0 - - -;
#X msg 39 232 0.53;
#X obj 79 226 outlet;
#X obj 262 224 print, f 6;
#X msg 262 204 connected to ecg;
#X obj 58 157 r init;
#X obj 77 325 ø.remote image.2/scale;
#X floatatom 77 304 5 0 0 0 - - -;
#X obj 119 304 ø.remote image.2/position;
#X msg 119 283 450 570;
#X msg 77 284 0.3;
#X obj 71 424 ø.remote image.2/scale;
#X floatatom 71 403 5 0 0 0 - - -;
#X obj 106 403 ø.remote image.2/position;
#X obj 196 383 ø.remote image.2/enable;
#X msg 196 362 1;
#X msg 106 382 380 400;
#X msg 71 383 0.14;
#X connect 0 0 1 0;
#X connect 1 0 2 0;
#X connect 2 0 4 0;
#X connect 2 0 8 0;
#X connect 3 0 12 0;
#X connect 3 0 13 0;
#X connect 3 0 21 0;
#X connect 3 0 20 0;
#X connect 3 0 28 0;
#X connect 3 0 27 0;
#X connect 4 0 9 0;
#X connect 4 0 15 0;
#X connect 4 1 5 0;
#X connect 5 0 6 0;
#X connect 7 0 5 0;
#X connect 9 0 3 0;
#X connect 11 0 10 0;
#X connect 12 0 11 0;
#X connect 15 0 14 0;
#X connect 16 0 3 0;
#X connect 18 0 17 0;
#X connect 20 0 19 0;
#X connect 21 0 18 0;
#X connect 23 0 22 0;
#X connect 26 0 25 0;
#X connect 27 0 24 0;
#X connect 28 0 23 0;
#X restore 98 183 pd init;
#X msg 124 108 namespace;
#X obj 115 138 ossia.client ecg 0;
#X msg 175 64 connect oscquery ws://ecg.local:5678;
#X msg 115 84 connect oscquery ws://192.168.32.10:5678;
#X obj 97 40 r reconnect;
#X obj 98 204 outlet;
#X obj 189 189 print;
#X connect 0 0 5 0;
#X connect 1 0 7 0;
#X connect 2 0 3 0;
#X connect 3 0 1 0;
#X connect 3 0 8 0;
#X connect 5 0 3 0;
#X connect 6 0 5 0;
#X restore 243 28 pd ecg-client;
#N canvas 359 284 450 300 irm-client 0;
#X obj 115 61 loadbang;
#N canvas 584 142 590 350 init 0;
#X obj 29 4 inlet;
#X obj 29 29 route connect;
#X msg 29 52 \$1;
#X obj 29 162 t b;
#X obj 29 77 sel 1 0;
#X obj 150 137 del 5000;
#X obj 150 160 outlet;
#X msg 150 102 stop;
#X obj 90 70 tgl 15 0 empty empty empty 17 7 0 10 -262144 -1 -1 1 1
;
#X obj 29 100 del 100;
#X obj 29 233 ø.remote image.1/scale;
#X floatatom 29 211 5 0 0 0 - - -;
#X msg 29 185 0.66;
#X obj 42 128 r init;
#X obj 71 189 outlet;
#X obj 192 231 print, f 6;
#X msg 192 211 connected to irm;
#X obj 48 311 ø.remote image.2/scale;
#X floatatom 48 290 5 0 0 0 - - -;
#X obj 88 289 ø.remote image.2/position;
#X msg 88 268 450 570;
#X msg 48 270 0.3;
#X connect 0 0 1 0;
#X connect 1 0 2 0;
#X connect 2 0 4 0;
#X connect 2 0 8 0;
#X connect 3 0 12 0;
#X connect 3 0 14 0;
#X connect 3 0 21 0;
#X connect 3 0 20 0;
#X connect 4 0 9 0;
#X connect 4 0 16 0;
#X connect 4 1 5 0;
#X connect 5 0 6 0;
#X connect 7 0 5 0;
#X connect 9 0 3 0;
#X connect 11 0 10 0;
#X connect 12 0 11 0;
#X connect 13 0 3 0;
#X connect 16 0 15 0;
#X connect 18 0 17 0;
#X connect 20 0 19 0;
#X connect 21 0 18 0;
#X restore 115 163 pd init;
#X msg 134 108 namespace;
#X obj 115 138 ossia.client irm 0;
#X msg 115 84 connect oscquery ws://192.168.32.8:5680;
#X msg 175 64 connect oscquery ws://irm.local:5680;
#X obj 97 40 r reconnect;
#X obj 115 184 outlet;
#X connect 0 0 4 0;
#X connect 1 0 7 0;
#X connect 2 0 3 0;
#X connect 3 0 1 0;
#X connect 4 0 3 0;
#X connect 6 0 4 0;
#X restore 243 48 pd irm-client;
#N canvas 492 362 376 255 tv-client 0;
#X obj 55 56 loadbang;
#N canvas 584 187 393 481 init 0;
#X obj 29 4 inlet;
#X obj 29 29 route connect;
#X msg 29 52 \$1;
#X obj 29 172 t b;
#X obj 29 77 sel 1 0;
#X obj 150 137 del 5000;
#X obj 150 160 outlet;
#X msg 150 102 stop;
#X obj 90 70 tgl 15 0 empty empty empty 17 7 0 10 -262144 -1 -1 1 1
;
#X obj 29 100 del 100;
#X obj 53 136 r init;
#X obj 29 253 ø.remote image.1/scale;
#X floatatom 29 231 5 0 0 0 - - -;
#X msg 29 205 1;
#X obj 74 183 outlet;
#X obj 135 228 print, f 6;
#X msg 135 208 connected to tv;
#X obj 70 351 ø.remote image.2/scale;
#X floatatom 70 330 5 0 0 0 - - -;
#X obj 106 330 ø.remote image.2/position;
#X msg 70 310 0.3;
#X msg 106 309 250 300;
#X obj 10 145 bng 15 250 50 0 empty empty empty 17 7 0 10 -262144 -1
-1;
#X connect 0 0 1 0;
#X connect 1 0 2 0;
#X connect 2 0 4 0;
#X connect 2 0 8 0;
#X connect 3 0 13 0;
#X connect 3 0 20 0;
#X connect 3 0 21 0;
#X connect 4 0 9 0;
#X connect 4 0 16 0;
#X connect 4 1 5 0;
#X connect 5 0 6 0;
#X connect 7 0 5 0;
#X connect 9 0 3 0;
#X connect 9 0 14 0;
#X connect 10 0 3 0;
#X connect 12 0 11 0;
#X connect 13 0 12 0;
#X connect 16 0 15 0;
#X connect 18 0 17 0;
#X connect 20 0 18 0;
#X connect 21 0 19 0;
#X connect 22 0 3 0;
#X restore 55 148 pd init;
#X msg 73 101 namespace;
#X msg 112 56 connect oscquery ws://tv.local:5680;
#X obj 37 25 r reconnect;
#X obj 55 169 outlet;
#X obj 55 123 ossia.client tv 0;
#X msg 55 79 connect oscquery ws://192.168.32.7:5680;
#X connect 0 0 7 0;
#X connect 1 0 5 0;
#X connect 2 0 6 0;
#X connect 4 0 7 0;
#X connect 6 0 1 0;
#X connect 7 0 6 0;
#X restore 243 68 pd tv-client;
#N canvas 359 284 450 300 midi-client 0;
#X obj 115 71 loadbang;
#N canvas 584 142 590 350 init 0;
#X obj 29 4 inlet;
#X obj 29 29 route connect;
#X msg 29 52 \$1;
#X obj 29 172 t b;
#X obj 29 77 sel 1 0;
#X obj 150 137 del 5000;
#X obj 150 160 outlet;
#X msg 150 102 stop;
#X obj 90 70 tgl 15 0 empty empty empty 17 7 0 10 -262144 -1 -1 1 1
;
#X obj 29 100 del 100;
#X floatatom 106 253 5 0 0 0 - - -;
#X obj 144 254 ø.remote image.*/scale;
#X obj 198 215 ø.remote image.1/enable;
#X obj 198 195 tgl 15 0 empty empty empty 17 7 0 10 -262144 -1 -1 0
1;
#X msg 144 228 0.67;
#X obj 29 296 ø.remote image.1/position;
#X msg 29 276 250 200;
#X obj 39 205 outlet;
#X obj 53 143 r init;
#X obj 208 302 print, f 6;
#X msg 208 282 connected to midi;
#X connect 0 0 1 0;
#X connect 1 0 2 0;
#X connect 2 0 4 0;
#X connect 2 0 8 0;
#X connect 3 0 16 0;
#X connect 3 0 17 0;
#X connect 3 0 14 0;
#X connect 4 0 9 0;
#X connect 4 0 20 0;
#X connect 4 1 5 0;
#X connect 5 0 6 0;
#X connect 7 0 5 0;
#X connect 9 0 3 0;
#X connect 10 0 11 0;
#X connect 11 0 10 0;
#X connect 13 0 12 0;
#X connect 14 0 11 0;
#X connect 16 0 15 0;
#X connect 18 0 3 0;
#X connect 20 0 19 0;
#X restore 115 159 pd init;
#X msg 254 114 namespace;
#X obj 115 194 outlet;
#X msg 167 53 connect oscquery ws://192.168.0.40:5680;
#X obj 115 138 ossia.client midi 0;
#X msg 115 94 connect oscquery ws://192.168.32.11:5680;
#X msg 185 71 connect oscquery ws://midi.local:5680;
#X obj 97 40 r reconnect;
#X connect 0 0 6 0;
#X connect 1 0 3 0;
#X connect 2 0 5 0;
#X connect 5 0 1 0;
#X connect 6 0 5 0;
#X connect 8 0 6 0;
#X restore 243 88 pd midi-client;
#X symbolatom 647 235 20 0 0 0 - - -;
#X symbolatom 517 235 20 0 0 0 - - -;
#X symbolatom 387 235 20 0 0 0 - - -;
#X symbolatom 257 234 20 0 0 0 - - -;
#X floatatom 257 192 5 0 0 0 - - -;
#X floatatom 387 192 5 0 0 0 - - -;
#X floatatom 517 192 5 0 0 0 - - -;
#X floatatom 647 192 5 0 0 0 - - -;
#X obj 61 165 ø.remote Four2:/play;
#N canvas 359 284 450 300 raspberrypi-client 0;
#X obj 115 71 loadbang;
#N canvas 584 142 590 350 init 0;
#X obj 29 4 inlet;
#X obj 29 29 route connect;
#X msg 29 52 \$1;
#X obj 29 172 t b;
#X obj 29 77 sel 1 0;
#X obj 150 137 del 5000;
#X obj 150 160 outlet;
#X msg 150 102 stop;
#X obj 90 70 tgl 15 0 empty empty empty 17 7 0 10 -262144 -1 -1 1 1
;
#X obj 29 100 del 100;
#X floatatom 106 253 5 0 0 0 - - -;
#X obj 144 254 ø.remote image.*/scale;
#X obj 198 215 ø.remote image.1/enable;
#X obj 198 195 tgl 15 0 empty empty empty 17 7 0 10 -262144 -1 -1 0
1;
#X msg 144 228 0.67;
#X obj 29 296 ø.remote image.1/position;
#X msg 29 276 250 200;
#X obj 39 205 outlet;
#X obj 53 143 r init;
#X obj 274 308 print, f 6;
#X msg 274 288 connected to rpi;
#X connect 0 0 1 0;
#X connect 1 0 2 0;
#X connect 2 0 4 0;
#X connect 2 0 8 0;
#X connect 3 0 16 0;
#X connect 3 0 17 0;
#X connect 3 0 14 0;
#X connect 4 0 9 0;
#X connect 4 0 20 0;
#X connect 4 1 5 0;
#X connect 5 0 6 0;
#X connect 7 0 5 0;
#X connect 9 0 3 0;
#X connect 10 0 11 0;
#X connect 11 0 10 0;
#X connect 13 0 12 0;
#X connect 14 0 11 0;
#X connect 16 0 15 0;
#X connect 18 0 3 0;
#X connect 20 0 19 0;
#X restore 98 183 pd init;
#X msg 254 114 namespace;
#X obj 75 240 outlet;
#X obj 97 40 r reconnect;
#X msg 115 94 connect oscquery ws://192.168.32.12:5680;
#X msg 185 71 connect oscquery ws://raspberrypi.local:5680;
#X obj 115 138 ossia.client raspberrypi 0;
#X connect 0 0 5 0;
#X connect 1 0 3 0;
#X connect 2 0 7 0;
#X connect 4 0 5 0;
#X connect 5 0 7 0;
#X connect 7 0 1 0;
#X restore 253 108 pd raspberrypi-client;
#X obj 363 23 bng 40 250 50 0 reconnect empty reconnect 0 -8 0 10 -262144
-1 -1;
#X obj 261 423 loadbang;
#X obj 261 444 del 1000;
#X msg 261 465 \; pd dsp 1;
#X obj 457 438 *~ 0.1;
#X obj 397 438 *~ 0.1;
#X msg 267 288 global_address;
#X obj 432 473 dac~ 9 10 11 12;
#N canvas 0 23 353 288 chrono2 0;
#X obj 115 46 inlet;
#N canvas 735 288 450 490 make_another_symbol 0;
#X obj 227 155 int;
#X obj 164 223 change;
#X obj 164 316 symbol;
#X obj 164 339 outlet;
#X obj 163 39 inlet;
#X obj 164 261 pack f f f, f 11;
#X obj 164 161 % 10;
#X obj 195 121 / 10;
#X obj 195 184 int;
#X obj 227 104 / 100;
#X obj 227 127 % 10;
#X obj 195 144 % 10;
#X msg 164 289 chrono2/00\$3\$2\$1.png;
#X obj 164 67 t a a a, f 11;
#X connect 0 0 5 2;
#X connect 1 0 5 0;
#X connect 2 0 3 0;
#X connect 4 0 13 0;
#X connect 5 0 12 0;
#X connect 6 0 1 0;
#X connect 7 0 11 0;
#X connect 8 0 5 1;
#X connect 9 0 10 0;
#X connect 10 0 0 0;
#X connect 11 0 8 0;
#X connect 12 0 2 0;
#X connect 13 0 6 0;
#X connect 13 1 7 0;
#X connect 13 2 9 0;
#X restore 115 65 pd make_another_symbol;
#X symbolatom 115 86 20 0 0 0 - - -;
#X obj 145 149 ø.remote ecg:/image.2/load;
#X obj 135 169 ø.remote irm:/image.2/load;
#X obj 125 189 ø.remote cartel:/image.2/load;
#X obj 115 209 ø.remote tv:/image.2/load;
#X connect 0 0 1 0;
#X connect 1 0 2 0;
#X connect 2 0 3 0;
#X connect 2 0 4 0;
#X connect 2 0 5 0;
#X connect 2 0 6 0;
#X restore 41 484 pd chrono2;
#X obj 257 322 ø.remote tv:/image.1/load;
#X obj 387 302 ø.remote cartel:/image.1/load;
#X obj 25 424 ø.remote midi:/image.1/load;
#X obj 35 444 ø.remote raspberrypi:/image.1/load;
#X obj 517 282 ø.remote irm:/image.1/load;
#X obj 647 258 ø.remote ecg:/image.1/load;
#X msg 693 162 global_address;
#X text 637 86 fq 48000 \, del 50ms \, buf 512;
#N canvas 0 23 450 300 audio-config 0;
#X obj 165 126 mediasettings/audiosettings;
#X msg 165 100 params @samplerate 48000 @advance 50;
#X obj 165 44 loadbang;
#X obj 165 65 del 1000;
#X connect 1 0 0 0;
#X connect 2 0 3 0;
#X connect 3 0 1 0;
#X restore 549 12 pd audio-config;
#X connect 0 1 43 0;
#X connect 1 1 46 0;
#X connect 2 1 44 0;
#X connect 3 1 45 0;
#X connect 4 0 42 0;
#X connect 5 0 25 0;
#X connect 6 0 54 0;
#X connect 7 0 24 0;
#X connect 8 0 53 0;
#X connect 11 0 41 0;
#X connect 12 0 39 0;
#X connect 13 0 40 0;
#X connect 15 0 16 0;
#X connect 17 0 15 0;
#X connect 19 0 18 0;
#X connect 19 0 23 0;
#X connect 20 0 19 0;
#X connect 20 0 26 0;
#X connect 20 0 57 0;
#X connect 21 0 20 0;
#X connect 24 0 56 3;
#X connect 25 0 56 0;
#X connect 26 0 27 0;
#X connect 27 0 60 0;
#X connect 27 0 61 0;
#X connect 28 0 20 1;
#X connect 29 0 33 0;
#X connect 30 0 31 0;
#X connect 31 0 29 0;
#X connect 32 0 31 0;
#X connect 33 0 29 0;
#X connect 34 0 44 0;
#X connect 35 0 46 0;
#X connect 36 0 45 0;
#X connect 37 0 43 0;
#X connect 38 0 27 0;
#X connect 39 0 63 0;
#X connect 40 0 62 0;
#X connect 41 0 59 0;
#X connect 42 0 58 0;
#X connect 43 0 4 0;
#X connect 44 0 11 0;
#X connect 45 0 13 0;
#X connect 46 0 12 0;
#X connect 47 0 21 0;
#X connect 48 0 27 0;
#X connect 50 0 51 0;
#X connect 51 0 52 0;
#X connect 53 0 56 2;
#X connect 54 0 56 1;
#X connect 55 0 58 0;
#X connect 64 0 63 0;
