#N canvas 905 577 450 370 10;
#X floatatom 50 57 5 0 0 0 - - -;
#X obj 69 109 tgl 15 0 empty empty empty 17 7 0 10 -262144 -1 -1 0
1;
#X obj 88 107 ø.remote enable;
#X obj 298 60 ø.remote load;
#X msg 298 85 sop4.png;
#X msg 298 24 basse1.png;
#X obj 87 234 pack 0 0;
#X floatatom 87 177 5 0 0 0 - - -;
#X floatatom 137 177 5 0 0 0 - - -;
#X obj 137 199 t b f;
#X obj 87 257 ø.remote position;
#X obj 136 286 unpack;
#X msg 87 149 set \$1;
#X msg 137 149 set \$1;
#X msg 308 146 namespace;
#X obj 308 196 print;
#X obj 88 57 ø.remote scale;
#X obj 307 173 ø.view \$1;
#X obj 110 15 cnv 15 100 26 empty empty \$1 20 12 0 14 -233017 -66577
0;
#X msg 296 124 get address;
#X connect 0 0 16 0;
#X connect 1 0 2 0;
#X connect 2 0 1 0;
#X connect 3 0 4 0;
#X connect 5 0 3 0;
#X connect 6 0 10 0;
#X connect 7 0 6 0;
#X connect 8 0 9 0;
#X connect 9 0 6 0;
#X connect 9 1 6 1;
#X connect 10 1 11 0;
#X connect 11 0 12 0;
#X connect 11 1 13 0;
#X connect 12 0 7 0;
#X connect 13 0 8 0;
#X connect 14 0 17 0;
#X connect 16 0 0 0;
#X connect 17 0 15 0;
#X connect 19 0 17 0;
