#N canvas 902 615 450 300 10;
#X obj 111 48 inlet;
#X obj 172 48 loadbang;
#X obj 172 71 symbol \$1;
#X obj 172 94 makefilename %s%%d.png;
#X msg 172 117 set \$1;
#X obj 111 172 makefilename %s%%d.png;
#X obj 111 215 outlet;
#X floatatom 123 110 5 0 0 0 - - -;
#X obj 111 194 list trim;
#X obj 111 71 change;
#X msg 172 140 sop%d.png;
#X obj 32 72 r init;
#X msg 32 95 0;
#X connect 0 0 9 0;
#X connect 1 0 2 0;
#X connect 2 0 3 0;
#X connect 3 0 4 0;
#X connect 4 0 5 0;
#X connect 4 0 10 0;
#X connect 5 0 8 0;
#X connect 7 0 5 0;
#X connect 8 0 6 0;
#X connect 9 0 5 0;
#X connect 11 0 12 0;
#X connect 12 0 5 0;
