#N canvas 902 615 450 300 10;
#X obj 111 48 inlet;
#X obj 172 48 loadbang;
#X obj 172 71 symbol \$1;
#X msg 172 117 set \$1;
#X obj 111 215 outlet;
#X floatatom 123 110 5 0 0 0 - - -;
#X obj 111 71 change;
#X msg 172 140 four2/sop%d.png;
#X obj 32 72 r init;
#X msg 32 95 0;
#X obj 172 94 makefilename four2/%s%%d.jpg;
#X obj 111 172 makefilename %s%%d.jpg;
#X connect 0 0 6 0;
#X connect 1 0 2 0;
#X connect 2 0 10 0;
#X connect 3 0 7 0;
#X connect 3 0 11 0;
#X connect 5 0 11 0;
#X connect 6 0 11 0;
#X connect 8 0 9 0;
#X connect 9 0 11 0;
#X connect 10 0 3 0;
#X connect 11 0 4 0;
