#N canvas 868 342 810 485 10;
#X obj 327 220 soprano;
#X obj 507 220 basse;
#X obj 387 220 alto;
#X obj 447 220 tenor;
#X obj 327 242 img sop;
#X obj 411 360 clone soprano 16;
#X obj 513 360 clone alto 16;
#X obj 513 379 clone basse 16;
#X obj 411 380 clone tenor 16;
#N canvas 0 50 830 270 make_sample_list 0;
#X obj 52 54 fill_sample_list soprano/F4;
#X obj 52 78 fill_sample_list soprano/G4;
#X obj 52 102 fill_sample_list soprano/F5;
#X obj 236 54 fill_sample_list alto/D4-N;
#X obj 411 54 fill_sample_list tenor/C4;
#X obj 411 78 fill_sample_list tenor/A3-heu;
#X obj 411 102 fill_sample_list tenor/D4;
#X obj 411 126 fill_sample_list tenor/A3-O;
#X obj 411 150 fill_sample_list tenor/D4-O;
#X obj 411 174 fill_sample_list tenor/C#3;
#X obj 611 54 fill_sample_list basse/F2-gueu;
#X obj 611 76 fill_sample_list basse/G2-heu;
#X obj 611 98 fill_sample_list basse/A3;
#X obj 611 120 fill_sample_list basse/E3-G;
#X obj 611 142 fill_sample_list basse/F2-heu;
#X obj 611 164 fill_sample_list basse/C4;
#X obj 236 78 fill_sample_list alto/E4;
#X obj 236 102 fill_sample_list alto/Db4O;
#X obj 236 126 fill_sample_list alto/Db4G;
#X restore 246 413 pd make_sample_list;
#N canvas 57 596 450 300 control 0;
#X obj 114 84 image_view image.1;
#X obj 114 64 image_view image.0;
#X obj 114 104 image_view image.2;
#X obj 114 124 image_view image.3;
#N canvas 1173 142 450 300 clock_view 0;
#X symbolatom 91 61 10 0 0 0 - - -;
#X obj 115 196 pack 0 0;
#X floatatom 115 139 5 0 0 0 - - -;
#X floatatom 165 139 5 0 0 0 - - -;
#X obj 165 161 t b f;
#X obj 115 219 ø.remote position;
#X obj 164 248 unpack;
#X msg 115 111 set \$1;
#X msg 165 111 set \$1;
#X obj 310 142 ø.view clock;
#X obj 91 36 ø.remote text;
#X obj 309 211 ø.remote scale;
#X floatatom 269 211 5 0 0 0 - - -;
#X connect 1 0 5 0;
#X connect 2 0 1 0;
#X connect 3 0 4 0;
#X connect 4 0 1 0;
#X connect 4 1 1 1;
#X connect 5 1 6 0;
#X connect 6 0 7 0;
#X connect 6 1 8 0;
#X connect 7 0 2 0;
#X connect 8 0 3 0;
#X connect 10 0 0 0;
#X connect 11 0 12 0;
#X connect 12 0 11 0;
#X restore 123 195 pd clock_view;
#X restore 537 130 pd control;
#X obj 387 242 img alto;
#X obj 507 242 img basse;
#X obj 447 242 img tenor;
#N canvas 830 478 450 300 device 0;
#X obj 160 47 loadbang;
#X obj 160 138 print;
#X msg 78 53 namespace;
#X msg 59 78 address;
#X obj 160 108 ø.device Four2;
#X msg 160 70 expose oscquery 1236 5680;
#X connect 0 0 5 0;
#X connect 2 0 4 0;
#X connect 3 0 4 0;
#X connect 4 0 1 0;
#X connect 5 0 4 0;
#X restore 411 179 pd device;
#X obj 484 64 ossia;
#X obj 484 87 print default device;
#X msg 484 41 namespace;
#X symbolatom 75 281 10 0 0 0 - - -;
#N canvas 735 298 450 490 make_symbol 0;
#X obj 164 67 t f f, f 11;
#X obj 164 115 int;
#X obj 227 91 / 60;
#X obj 227 115 int;
#X obj 164 92 % 60;
#X obj 164 223 change;
#X obj 166 316 symbol;
#X obj 166 339 outlet;
#X obj 163 39 inlet;
#X obj 164 261 pack f f f, f 11;
#X obj 164 138 t f f;
#X obj 164 161 % 10;
#X obj 194 161 / 10;
#X obj 194 184 int;
#X msg 164 289 \$3'\$2\$1";
#X connect 0 0 4 0;
#X connect 0 1 2 0;
#X connect 1 0 10 0;
#X connect 2 0 3 0;
#X connect 3 0 9 2;
#X connect 4 0 1 0;
#X connect 5 0 9 0;
#X connect 6 0 7 0;
#X connect 8 0 0 0;
#X connect 9 0 14 0;
#X connect 10 0 11 0;
#X connect 10 1 12 0;
#X connect 11 0 5 0;
#X connect 12 0 13 0;
#X connect 13 0 9 1;
#X connect 14 0 6 0;
#X restore 61 254 pd make_symbol;
#N canvas 691 422 470 540 clock 0;
#X obj 119 305 timer;
#X obj 100 204 bng 15 250 50 0 empty empty empty 17 7 0 10 -262144
-1 -1;
#X obj 119 372 / 1000;
#X floatatom 119 395 5 0 0 0 - - -;
#X obj 100 249 metro 100;
#X obj 210 247 s init;
#X obj 100 224 t f b b;
#X obj 119 418 s clock;
#X obj 181 356 < 420;
#X obj 119 328 +;
#X obj 119 350 f;
#X obj 100 272 t b b;
#X msg 182 287 0;
#X msg 234 200 reset;
#X msg 239 411 get global_address;
#X obj 100 28 inlet;
#X obj 40 456 outlet;
#X floatatom 223 333 10 0 0 0 - - -;
#X obj 100 62 t f f;
#X obj 366 197 print;
#X msg 210 124 get global_address;
#X obj 210 145 ø.parameter Four2:/reset @type impulse;
#X obj 126 85 ø.parameter Four2:/play @type bool;
#X obj 151 458 ø.parameter Four2:/clock @unit s;
#X obj 234 179 loadbang;
#X obj 181 419 sel 0;
#X obj 181 377 change 1;
#X msg 150 43 1;
#X obj 210 223 t b b b;
#X msg 230 286 1000;
#X obj 260 30 inlet;
#X connect 0 0 9 0;
#X connect 1 0 6 0;
#X connect 2 0 3 0;
#X connect 2 0 8 0;
#X connect 3 0 7 0;
#X connect 3 0 16 0;
#X connect 3 0 23 0;
#X connect 4 0 11 0;
#X connect 6 0 4 0;
#X connect 6 1 0 0;
#X connect 8 0 26 0;
#X connect 9 0 10 0;
#X connect 10 0 9 1;
#X connect 10 0 2 0;
#X connect 11 0 0 0;
#X connect 11 1 0 1;
#X connect 12 0 10 0;
#X connect 13 0 28 0;
#X connect 14 0 23 0;
#X connect 15 0 18 0;
#X connect 17 0 9 1;
#X connect 18 0 6 0;
#X connect 18 1 22 0;
#X connect 20 0 21 0;
#X connect 21 0 28 0;
#X connect 21 1 19 0;
#X connect 22 0 6 0;
#X connect 24 0 13 0;
#X connect 26 0 25 0;
#X connect 27 0 18 0;
#X connect 28 0 5 0;
#X connect 28 1 12 0;
#X connect 28 2 29 0;
#X connect 29 0 10 0;
#X connect 30 0 13 0;
#X restore 61 229 pd clock;
#X obj 61 197 tgl 15 0 empty empty empty 17 7 0 10 -262144 -1 -1 0
1;
#X obj 58 53 cnv 15 130 60 empty clock_label 0'16" 5 30 0 42 -233017
-66577 0;
#X msg 72 305 \; clock_label label \$1;
#X obj 432 455 dac~ 3 4;
#X obj 507 420 *~ 0.1;
#X obj 377 420 *~ 0.1;
#N canvas 735 298 450 490 make_another_symbol 0;
#X obj 227 155 int;
#X obj 164 223 change;
#X obj 164 316 symbol;
#X obj 164 339 outlet;
#X obj 163 39 inlet;
#X obj 164 261 pack f f f, f 11;
#X obj 164 161 % 10;
#X obj 195 121 / 10;
#X obj 195 184 int;
#X obj 164 67 t f f f, f 11;
#X obj 227 104 / 100;
#X obj 227 127 % 10;
#X obj 195 144 % 10;
#X msg 164 289 chrono/\$3\$2\$1.jpg;
#X connect 0 0 5 2;
#X connect 1 0 5 0;
#X connect 2 0 3 0;
#X connect 4 0 9 0;
#X connect 5 0 13 0;
#X connect 6 0 1 0;
#X connect 7 0 12 0;
#X connect 8 0 5 1;
#X connect 9 0 6 0;
#X connect 9 1 7 0;
#X connect 9 2 10 0;
#X connect 10 0 11 0;
#X connect 11 0 0 0;
#X connect 12 0 8 0;
#X connect 13 0 2 0;
#X restore 25 367 pd make_another_symbol;
#X symbolatom 25 398 15 0 0 0 - - -;
#X obj 106 198 bng 15 250 50 0 empty empty empty 17 7 0 10 -262144
-1 -1;
#X symbolatom 652 390 20 0 0 0 - - -;
#X msg 652 345 TV-pubs.mp4;
#X obj 652 368 symbol;
#X msg 645 314 IRM-full.mp4;
#X obj 652 410 ø.remote video/load;
#N canvas 0 50 450 300 cartel-client 0;
#X obj 115 91 loadbang;
#X obj 115 161 print;
#N canvas 584 142 590 350 init 0;
#X obj 29 4 inlet;
#X obj 29 29 route connect;
#X msg 29 52 \$1;
#X obj 29 122 t b;
#X obj 29 77 sel 1 0;
#X obj 150 137 del 5000;
#X obj 150 160 outlet;
#X msg 150 102 stop;
#X obj 90 70 tgl 15 0 empty empty empty 17 7 0 10 -262144 -1 -1 0 1
;
#X obj 29 100 del 100;
#X connect 0 0 1 0;
#X connect 1 0 2 0;
#X connect 2 0 4 0;
#X connect 2 0 8 0;
#X connect 4 0 9 0;
#X connect 4 1 5 0;
#X connect 5 0 6 0;
#X connect 7 0 5 0;
#X connect 9 0 3 0;
#X restore 98 183 pd init;
#X obj 115 138 ossia.client;
#X msg 194 138 namespace;
#X msg 115 114 connect cartel;
#X connect 0 0 5 0;
#X connect 2 0 5 0;
#X connect 3 0 1 0;
#X connect 3 0 2 0;
#X connect 4 0 3 0;
#X connect 5 0 3 0;
#X restore 243 8 pd cartel-client;
#N canvas 359 284 450 300 ecg-client 0;
#X obj 115 91 loadbang;
#X obj 115 161 print;
#N canvas 584 142 590 350 init 0;
#X obj 29 4 inlet;
#X obj 29 29 route connect;
#X msg 29 52 \$1;
#X obj 29 122 t b;
#X obj 29 77 sel 1 0;
#X obj 150 137 del 5000;
#X obj 150 160 outlet;
#X msg 150 102 stop;
#X obj 90 70 tgl 15 0 empty empty empty 17 7 0 10 -262144 -1 -1 0 1
;
#X obj 29 100 del 100;
#X connect 0 0 1 0;
#X connect 1 0 2 0;
#X connect 2 0 4 0;
#X connect 2 0 8 0;
#X connect 4 0 9 0;
#X connect 4 1 5 0;
#X connect 5 0 6 0;
#X connect 7 0 5 0;
#X connect 9 0 3 0;
#X restore 98 183 pd init;
#X obj 115 138 ossia.client;
#X msg 194 138 namespace;
#X msg 115 114 connect ecg;
#X connect 0 0 5 0;
#X connect 2 0 5 0;
#X connect 3 0 1 0;
#X connect 3 0 2 0;
#X connect 4 0 3 0;
#X connect 5 0 3 0;
#X restore 243 28 pd ecg-client;
#N canvas 359 284 450 300 irm-client 0;
#X obj 115 91 loadbang;
#X obj 115 161 print;
#N canvas 584 142 590 350 init 0;
#X obj 29 4 inlet;
#X obj 29 29 route connect;
#X msg 29 52 \$1;
#X obj 29 122 t b;
#X obj 29 77 sel 1 0;
#X obj 150 137 del 5000;
#X obj 150 160 outlet;
#X msg 150 102 stop;
#X obj 90 70 tgl 15 0 empty empty empty 17 7 0 10 -262144 -1 -1 0 1
;
#X obj 29 100 del 100;
#X connect 0 0 1 0;
#X connect 1 0 2 0;
#X connect 2 0 4 0;
#X connect 2 0 8 0;
#X connect 4 0 9 0;
#X connect 4 1 5 0;
#X connect 5 0 6 0;
#X connect 7 0 5 0;
#X connect 9 0 3 0;
#X restore 98 183 pd init;
#X obj 115 138 ossia.client;
#X msg 194 138 namespace;
#X msg 115 114 connect irm;
#X connect 0 0 5 0;
#X connect 2 0 5 0;
#X connect 3 0 1 0;
#X connect 3 0 2 0;
#X connect 4 0 3 0;
#X connect 5 0 3 0;
#X restore 243 48 pd irm-client;
#N canvas 359 284 450 300 tv-client 0;
#X obj 115 91 loadbang;
#X obj 115 161 print;
#N canvas 584 142 590 350 init 0;
#X obj 29 4 inlet;
#X obj 29 29 route connect;
#X msg 29 52 \$1;
#X obj 29 122 t b;
#X obj 29 77 sel 1 0;
#X obj 150 137 del 5000;
#X obj 150 160 outlet;
#X msg 150 102 stop;
#X obj 90 70 tgl 15 0 empty empty empty 17 7 0 10 -262144 -1 -1 0 1
;
#X obj 29 100 del 100;
#X connect 0 0 1 0;
#X connect 1 0 2 0;
#X connect 2 0 4 0;
#X connect 2 0 8 0;
#X connect 4 0 9 0;
#X connect 4 1 5 0;
#X connect 5 0 6 0;
#X connect 7 0 5 0;
#X connect 9 0 3 0;
#X restore 98 183 pd init;
#X obj 115 138 ossia.client;
#X msg 194 138 namespace;
#X msg 115 114 connect tv;
#X connect 0 0 5 0;
#X connect 2 0 5 0;
#X connect 3 0 1 0;
#X connect 3 0 2 0;
#X connect 4 0 3 0;
#X connect 5 0 3 0;
#X restore 243 68 pd tv-client;
#N canvas 359 284 450 300 midi-client 0;
#X obj 115 91 loadbang;
#X obj 115 161 print;
#N canvas 584 142 590 350 init 0;
#X obj 29 4 inlet;
#X obj 29 29 route connect;
#X msg 29 52 \$1;
#X obj 29 122 t b;
#X obj 29 77 sel 1 0;
#X obj 150 137 del 5000;
#X obj 150 160 outlet;
#X msg 150 102 stop;
#X obj 90 70 tgl 15 0 empty empty empty 17 7 0 10 -262144 -1 -1 1 1
;
#X obj 29 100 del 100;
#X floatatom 106 253 5 0 0 0 - - -;
#X obj 144 254 ø.remote image.*/scale;
#X obj 198 215 ø.remote image.1/enable;
#X obj 198 195 tgl 15 0 empty empty empty 17 7 0 10 -262144 -1 -1 0
1;
#X msg 144 228 0.67;
#X obj 29 296 ø.remote image.1/position;
#X msg 29 276 250 200;
#X obj 58 182 outlet;
#X connect 0 0 1 0;
#X connect 1 0 2 0;
#X connect 2 0 4 0;
#X connect 2 0 8 0;
#X connect 3 0 16 0;
#X connect 3 0 17 0;
#X connect 4 0 9 0;
#X connect 4 1 5 0;
#X connect 5 0 6 0;
#X connect 7 0 5 0;
#X connect 9 0 3 0;
#X connect 10 0 11 0;
#X connect 11 0 10 0;
#X connect 13 0 12 0;
#X connect 14 0 11 0;
#X connect 16 0 15 0;
#X restore 98 183 pd init;
#X msg 254 114 namespace;
#X obj 115 138 ossia.client midi;
#X msg 115 114 connect raspberrypi;
#X obj 75 240 outlet;
#X connect 0 0 5 0;
#X connect 2 0 6 0;
#X connect 2 1 5 0;
#X connect 3 0 4 0;
#X connect 4 0 1 0;
#X connect 4 0 2 0;
#X connect 5 0 4 0;
#X restore 243 88 pd midi-client;
#X obj 25 424 ø.remote raspberrypi:/image.1/load;
#X obj 387 302 ø.remote cartel:/image.1/load;
#X obj 507 262 ø.remote ecg:/image.1/load;
#X obj 447 282 ø.remote irm:/image.1/load;
#X obj 327 322 ø.remote tv:/image.1/load;
#X connect 0 1 4 0;
#X connect 1 1 12 0;
#X connect 2 1 11 0;
#X connect 3 1 13 0;
#X connect 4 0 44 0;
#X connect 5 0 26 0;
#X connect 6 0 26 0;
#X connect 7 0 25 0;
#X connect 8 0 25 0;
#X connect 11 0 41 0;
#X connect 12 0 42 0;
#X connect 13 0 43 0;
#X connect 15 0 16 0;
#X connect 17 0 15 0;
#X connect 19 0 18 0;
#X connect 19 0 23 0;
#X connect 20 0 19 0;
#X connect 20 0 27 0;
#X connect 21 0 20 0;
#X connect 25 0 24 1;
#X connect 26 0 24 0;
#X connect 27 0 28 0;
#X connect 28 0 40 0;
#X connect 29 0 20 1;
#X connect 30 0 34 0;
#X connect 31 0 32 0;
#X connect 32 0 30 0;
#X connect 33 0 32 0;
#X connect 34 0 30 0;
#X connect 39 0 28 0;
