#N canvas 400 211 700 475 10;
#X obj 327 220 soprano;
#X obj 507 220 basse;
#X obj 387 220 alto;
#X obj 447 220 tenor;
#X obj 327 242 img sop;
#X obj 245 107 loadbang;
#X obj 245 177 print;
#X msg 245 130 connect oscquery ws://raspberrypi.local:5680;
#X obj 327 322 ø.remote image.0/load;
#N canvas 584 142 590 350 init 0;
#X obj 29 4 inlet;
#X obj 29 29 route connect;
#X msg 29 52 \$1;
#X obj 106 221 ø.remote image.1/position;
#X obj 156 201 ø.remote image.2/position;
#X obj 206 181 ø.remote image.3/position;
#X msg 56 220 0 0;
#X obj 29 122 t b;
#X obj 152 110 bng 15 250 50 0 empty empty empty 17 7 0 10 -262144
-1 -1;
#X obj 29 77 sel 1 0;
#X obj 282 71 del 5000;
#X obj 282 94 outlet;
#X msg 282 36 stop;
#X floatatom 387 259 5 0 0 0 - - -;
#X obj 425 260 ø.remote image.*/scale;
#X msg 116 170 960 0;
#X msg 166 150 0 540;
#X msg 217 127 960 540;
#X msg 206 160 640 360;
#X msg 156 180 0 360;
#X msg 106 200 640 0;
#X msg 14 191 \$1 0;
#X floatatom 13 167 5 0 0 0 - - -;
#X obj 414 109 ø.remote image.1/enable;
#X obj 414 89 tgl 15 0 empty empty empty 17 7 0 10 -262144 -1 -1 0
1;
#X obj 56 241 ø.remote image.0/position;
#X obj 90 70 tgl 15 0 empty empty empty 17 7 0 10 -262144 -1 -1 0 1
;
#X obj 29 100 del 100;
#X obj 29 296 ø.remote clock/position;
#X msg 29 276 480 400;
#X msg 425 234 0.67;
#X connect 0 0 1 0;
#X connect 1 0 2 0;
#X connect 2 0 9 0;
#X connect 2 0 26 0;
#X connect 6 0 25 0;
#X connect 7 0 6 0;
#X connect 7 0 20 0;
#X connect 7 0 19 0;
#X connect 7 0 18 0;
#X connect 7 0 29 0;
#X connect 7 0 30 0;
#X connect 8 0 7 0;
#X connect 9 0 27 0;
#X connect 10 0 11 0;
#X connect 12 0 10 0;
#X connect 13 0 14 0;
#X connect 14 0 13 0;
#X connect 18 0 5 0;
#X connect 19 0 4 0;
#X connect 20 0 3 0;
#X connect 21 0 6 0;
#X connect 22 0 21 0;
#X connect 24 0 23 0;
#X connect 27 0 7 0;
#X connect 29 0 28 0;
#X connect 30 0 14 0;
#X restore 228 199 pd init;
#X obj 387 302 ø.remote image.1/load;
#X obj 447 282 ø.remote image.2/load;
#X obj 507 262 ø.remote image.3/load;
#X obj 411 360 clone soprano 16;
#X obj 513 360 clone alto 16;
#X obj 513 380 clone basse 16;
#X obj 411 380 clone tenor 16;
#X obj 245 154 ossia.client;
#N canvas 0 50 830 270 make_sample_list 0;
#X obj 52 54 fill_sample_list soprano/F4;
#X obj 52 78 fill_sample_list soprano/G4;
#X obj 52 102 fill_sample_list soprano/F5;
#X obj 236 54 fill_sample_list alto/D4-N;
#X obj 411 54 fill_sample_list tenor/C4;
#X obj 411 78 fill_sample_list tenor/A3-heu;
#X obj 411 102 fill_sample_list tenor/D4;
#X obj 411 126 fill_sample_list tenor/A3-O;
#X obj 411 150 fill_sample_list tenor/D4-O;
#X obj 411 174 fill_sample_list tenor/C#3;
#X obj 611 54 fill_sample_list basse/F2-gueu;
#X obj 611 76 fill_sample_list basse/G2-heu;
#X obj 611 98 fill_sample_list basse/A3;
#X obj 611 120 fill_sample_list basse/E3-G;
#X obj 611 142 fill_sample_list basse/F2-heu;
#X obj 611 164 fill_sample_list basse/C4;
#X obj 236 78 fill_sample_list alto/E4;
#X obj 236 102 fill_sample_list alto/Db4O;
#X obj 236 126 fill_sample_list alto/Db4G;
#X restore 246 413 pd make_sample_list;
#N canvas 57 596 450 300 control 0;
#X obj 114 84 image_view image.1;
#X obj 114 64 image_view image.0;
#X obj 114 104 image_view image.2;
#X obj 114 124 image_view image.3;
#N canvas 1173 142 450 300 clock_view 0;
#X symbolatom 91 61 10 0 0 0 - - -;
#X obj 115 196 pack 0 0;
#X floatatom 115 139 5 0 0 0 - - -;
#X floatatom 165 139 5 0 0 0 - - -;
#X obj 165 161 t b f;
#X obj 115 219 ø.remote position;
#X obj 164 248 unpack;
#X msg 115 111 set \$1;
#X msg 165 111 set \$1;
#X obj 310 142 ø.view clock;
#X obj 91 36 ø.remote text;
#X obj 309 211 ø.remote scale;
#X floatatom 269 211 5 0 0 0 - - -;
#X connect 1 0 5 0;
#X connect 2 0 1 0;
#X connect 3 0 4 0;
#X connect 4 0 1 0;
#X connect 4 1 1 1;
#X connect 5 1 6 0;
#X connect 6 0 7 0;
#X connect 6 1 8 0;
#X connect 7 0 2 0;
#X connect 8 0 3 0;
#X connect 10 0 0 0;
#X connect 11 0 12 0;
#X connect 12 0 11 0;
#X restore 123 195 pd clock_view;
#X restore 537 130 pd control;
#X obj 387 242 img alto;
#X obj 507 242 img basse;
#X obj 447 242 img tenor;
#N canvas 830 478 450 300 device 0;
#X obj 160 47 loadbang;
#X obj 160 138 print;
#X msg 78 53 namespace;
#X msg 59 78 address;
#X obj 160 108 ø.device Four2;
#X msg 160 70 expose oscquery 1236 5680;
#X connect 0 0 5 0;
#X connect 2 0 4 0;
#X connect 3 0 4 0;
#X connect 4 0 1 0;
#X connect 5 0 4 0;
#X restore 411 179 pd device;
#X msg 324 154 namespace;
#X obj 484 64 ossia;
#X obj 484 87 print default device;
#X msg 484 41 namespace;
#X obj 61 394 ø.remote clock/text;
#X symbolatom 75 341 10 0 0 0 - - -;
#N canvas 3615 838 450 490 make_symbol 0;
#X obj 164 67 t f f, f 11;
#X obj 164 115 int;
#X obj 227 91 / 60;
#X obj 227 115 int;
#X obj 164 92 % 60;
#X obj 164 223 change;
#X obj 166 316 symbol;
#X obj 166 339 outlet;
#X obj 163 39 inlet;
#X obj 164 261 pack f f f, f 11;
#X obj 164 138 t f f;
#X obj 164 161 % 10;
#X obj 194 161 / 10;
#X obj 194 184 int;
#X msg 164 289 \$3'\$2\$1";
#X connect 0 0 4 0;
#X connect 0 1 2 0;
#X connect 1 0 10 0;
#X connect 2 0 3 0;
#X connect 3 0 9 2;
#X connect 4 0 1 0;
#X connect 5 0 9 0;
#X connect 6 0 7 0;
#X connect 8 0 0 0;
#X connect 9 0 14 0;
#X connect 10 0 11 0;
#X connect 10 1 12 0;
#X connect 11 0 5 0;
#X connect 12 0 13 0;
#X connect 13 0 9 1;
#X connect 14 0 6 0;
#X restore 61 314 pd make_symbol;
#N canvas 810 238 470 540 clock 1;
#X obj 119 305 timer;
#X obj 100 204 bng 15 250 50 0 empty empty empty 17 7 0 10 -262144
-1 -1;
#X obj 119 372 / 1000;
#X floatatom 119 395 5 0 0 0 - - -;
#X obj 100 249 metro 100;
#X obj 210 247 s init;
#X obj 100 224 t f b b;
#X obj 119 418 s clock;
#X obj 181 396 < 420;
#X obj 181 419 change;
#X obj 119 328 +;
#X obj 119 350 f;
#X obj 100 272 t b b;
#X msg 182 287 0;
#X msg 234 200 reset;
#X obj 210 223 t b b;
#X msg 239 411 get global_address;
#X obj 100 28 inlet;
#X obj 40 456 outlet;
#X floatatom 211 298 10 0 0 0 - - -;
#X obj 100 62 t f f;
#X obj 366 197 print;
#X msg 210 124 get global_address;
#X obj 210 145 ø.parameter Four2:/reset @type impulse;
#X obj 126 85 ø.parameter Four2:/play @type bool;
#X obj 151 458 ø.parameter Four2:/clock @unit s;
#X obj 234 179 loadbang;
#X connect 0 0 10 0;
#X connect 1 0 6 0;
#X connect 2 0 3 0;
#X connect 2 0 8 0;
#X connect 3 0 7 0;
#X connect 3 0 18 0;
#X connect 3 0 25 0;
#X connect 4 0 12 0;
#X connect 6 0 4 0;
#X connect 6 1 0 0;
#X connect 8 0 9 0;
#X connect 9 0 20 0;
#X connect 10 0 11 0;
#X connect 11 0 10 1;
#X connect 11 0 2 0;
#X connect 12 0 0 0;
#X connect 12 1 0 1;
#X connect 13 0 11 0;
#X connect 14 0 15 0;
#X connect 15 0 5 0;
#X connect 15 1 13 0;
#X connect 16 0 25 0;
#X connect 17 0 20 0;
#X connect 19 0 10 1;
#X connect 20 0 6 0;
#X connect 20 1 24 0;
#X connect 22 0 23 0;
#X connect 23 0 15 0;
#X connect 23 1 21 0;
#X connect 24 0 6 0;
#X connect 26 0 14 0;
#X restore 61 289 pd clock;
#X obj 61 257 tgl 15 0 empty empty empty 17 7 0 10 -262144 -1 -1 0
1;
#X obj 58 53 cnv 15 130 60 empty clock_label 0'00" 5 30 0 42 -233017
-66577 0;
#X msg 72 365 \; clock_label label \$1;
#X obj 431 442 dac~ 1 2 3 4;
#X connect 0 1 4 0;
#X connect 1 1 21 0;
#X connect 2 1 20 0;
#X connect 3 1 22 0;
#X connect 4 0 8 0;
#X connect 5 0 7 0;
#X connect 7 0 17 0;
#X connect 9 0 7 0;
#X connect 13 0 35 0;
#X connect 14 0 35 1;
#X connect 15 0 35 3;
#X connect 16 0 35 2;
#X connect 17 0 6 0;
#X connect 17 0 9 0;
#X connect 20 0 10 0;
#X connect 21 0 12 0;
#X connect 22 0 11 0;
#X connect 24 0 17 0;
#X connect 25 0 26 0;
#X connect 27 0 25 0;
#X connect 30 0 29 0;
#X connect 30 0 28 0;
#X connect 30 0 34 0;
#X connect 31 0 30 0;
#X connect 32 0 31 0;
