#N canvas 392 460 700 495 10;
#X obj 128 269 timer;
#X obj 109 168 bng 15 250 50 0 empty empty empty 17 7 0 10 -262144
-1 -1;
#X obj 128 336 / 1000;
#X floatatom 128 359 5 0 0 0 - - -;
#X obj 109 213 metro 100;
#X obj 159 125 s init;
#X obj 327 220 soprano;
#X obj 507 220 basse;
#X obj 387 220 alto;
#X obj 447 220 tenor;
#X obj 129 168 tgl 15 0 empty empty empty 17 7 0 10 -262144 -1 -1 0
1;
#X obj 109 188 t f b b;
#X obj 128 382 s clock;
#X obj 327 242 img sop;
#X obj 245 107 loadbang;
#X obj 245 177 print;
#X msg 245 130 connect oscquery ws://raspberrypi.local:5680;
#X obj 327 322 ø.remote image.0/load;
#N canvas 310 152 590 290 init 1;
#X obj 29 4 inlet;
#X obj 29 29 route connect;
#X msg 29 52 \$1;
#X obj 106 221 ø.remote image.1/position;
#X obj 156 201 ø.remote image.2/position;
#X obj 206 181 ø.remote image.3/position;
#X msg 56 220 0 0;
#X obj 29 122 t b;
#X obj 152 110 bng 15 250 50 0 empty empty empty 17 7 0 10 -262144
-1 -1;
#X obj 29 77 sel 1 0;
#X obj 282 71 del 5000;
#X obj 282 94 outlet;
#X msg 282 36 stop;
#X floatatom 423 236 5 0 0 0 - - -;
#X obj 425 260 ø.remote image.*/scale;
#X msg 116 170 960 0;
#X msg 166 150 0 540;
#X msg 217 127 960 540;
#X msg 206 160 640 360;
#X msg 156 180 0 360;
#X msg 106 200 640 0;
#X msg 14 191 \$1 0;
#X floatatom 13 167 5 0 0 0 - - -;
#X obj 414 109 ø.remote image.1/enable;
#X obj 414 89 tgl 15 0 empty empty empty 17 7 0 10 -262144 -1 -1 0
1;
#X obj 56 241 ø.remote image.0/position;
#X obj 90 70 tgl 15 0 empty empty empty 17 7 0 10 -262144 -1 -1 1 1
;
#X obj 29 100 del 100;
#X connect 0 0 1 0;
#X connect 1 0 2 0;
#X connect 2 0 9 0;
#X connect 2 0 26 0;
#X connect 6 0 25 0;
#X connect 7 0 6 0;
#X connect 7 0 20 0;
#X connect 7 0 19 0;
#X connect 7 0 18 0;
#X connect 8 0 7 0;
#X connect 9 0 27 0;
#X connect 10 0 11 0;
#X connect 12 0 10 0;
#X connect 13 0 14 0;
#X connect 18 0 5 0;
#X connect 19 0 4 0;
#X connect 20 0 3 0;
#X connect 21 0 6 0;
#X connect 22 0 21 0;
#X connect 24 0 23 0;
#X connect 27 0 7 0;
#X restore 228 199 pd init;
#X obj 387 302 ø.remote image.1/load;
#X obj 447 282 ø.remote image.2/load;
#X obj 507 262 ø.remote image.3/load;
#X obj 411 360 clone soprano 16;
#X obj 513 360 clone alto 16;
#X obj 513 380 clone basse 16;
#X obj 411 380 clone tenor 16;
#X obj 245 154 ossia.client;
#N canvas 0 50 830 270 make_sample_list 0;
#X obj 52 54 fill_sample_list soprano/F4;
#X obj 52 78 fill_sample_list soprano/G4;
#X obj 52 102 fill_sample_list soprano/F5;
#X obj 236 54 fill_sample_list alto/D4-N;
#X obj 411 54 fill_sample_list tenor/C4;
#X obj 411 78 fill_sample_list tenor/A3-heu;
#X obj 411 102 fill_sample_list tenor/D4;
#X obj 411 126 fill_sample_list tenor/A3-O;
#X obj 411 150 fill_sample_list tenor/D4-O;
#X obj 411 174 fill_sample_list tenor/C#3;
#X obj 611 54 fill_sample_list basse/F2-gueu;
#X obj 611 76 fill_sample_list basse/G2-heu;
#X obj 611 98 fill_sample_list basse/A3;
#X obj 611 120 fill_sample_list basse/E3-G;
#X obj 611 142 fill_sample_list basse/F2-heu;
#X obj 611 164 fill_sample_list basse/C4;
#X obj 236 78 fill_sample_list alto/E4;
#X obj 236 102 fill_sample_list alto/Db4O;
#X obj 236 126 fill_sample_list alto/Db4G;
#X restore 448 410 pd make_sample_list;
#N canvas 0 50 450 300 control 1;
#X obj 114 84 image_view image.1;
#X obj 114 64 image_view image.0;
#X obj 114 104 image_view image.2;
#X obj 114 124 image_view image.3;
#X restore 537 130 pd control;
#X obj 387 242 img alto;
#X obj 507 242 img basse;
#X obj 447 242 img tenor;
#X obj 190 360 < 420;
#X obj 190 383 change;
#X obj 128 292 +;
#X obj 128 314 f;
#X obj 109 236 t b b;
#X msg 171 271 0;
#X msg 183 78 reset;
#X obj 159 101 t b b;
#N canvas 0 50 450 300 device 1;
#X obj 160 108 ø.device Four2;
#X obj 160 47 loadbang;
#X msg 160 70 expose oscquery 1236 5681;
#X obj 171 148 print;
#X msg 78 53 namespace;
#X obj 245 243 ø.parameter fii;
#X connect 0 0 3 0;
#X connect 1 0 2 0;
#X connect 2 0 0 0;
#X connect 4 0 0 0;
#X restore 411 179 pd device;
#X obj 129 30 ø.parameter Four2:/play @type bool;
#X obj 159 56 ø.parameter Four2:/reset @type impulse;
#X obj 66 442 ø.remote clock;
#X obj 96 421 ø.parameter Four2:/clock @unit s;
#X msg 324 154 namespace;
#X connect 0 0 34 0;
#X connect 1 0 11 0;
#X connect 2 0 3 0;
#X connect 2 0 32 0;
#X connect 3 0 12 0;
#X connect 3 0 43 0;
#X connect 3 0 44 0;
#X connect 4 0 36 0;
#X connect 6 0 13 0;
#X connect 7 0 30 0;
#X connect 8 0 29 0;
#X connect 9 0 31 0;
#X connect 10 0 11 0;
#X connect 11 0 4 0;
#X connect 11 1 0 0;
#X connect 13 0 17 0;
#X connect 14 0 16 0;
#X connect 16 0 26 0;
#X connect 18 0 16 0;
#X connect 26 0 15 0;
#X connect 26 0 18 0;
#X connect 29 0 19 0;
#X connect 30 0 21 0;
#X connect 31 0 20 0;
#X connect 32 0 33 0;
#X connect 33 0 41 0;
#X connect 34 0 35 0;
#X connect 35 0 34 1;
#X connect 35 0 2 0;
#X connect 36 0 0 0;
#X connect 36 1 0 1;
#X connect 37 0 34 1;
#X connect 38 0 39 0;
#X connect 39 0 5 0;
#X connect 39 1 37 0;
#X connect 41 0 10 0;
#X connect 42 0 39 0;
#X connect 45 0 26 0;
