#N canvas 820 594 330 380 10;
#X obj 114 320 readsf~;
#X obj 114 11 inlet;
#X obj 114 251 random;
#X obj 80 167 bng 15 250 50 0 empty empty empty 17 7 0 10 -262144 -1
-1;
#X obj 114 228 t b f;
#X msg 114 297 open \$1 \, 1;
#X obj 49 319 print;
#X obj 114 167 spigot, f 9;
#X obj 114 45 t a a, f 9;
#X obj 114 76 sel 1;
#X obj 23 26 tgl 15 0 empty empty empty 17 7 0 10 -262144 -1 -1 0 1
;
#N canvas 325 453 450 300 once 0;
#X obj 106 28 inlet;
#X obj 186 28 inlet;
#X obj 106 220 outlet;
#X obj 106 120 spigot 1;
#X obj 106 143 t b b;
#X obj 138 171 0;
#X obj 186 84 1;
#X obj 186 51 t b b;
#X connect 0 0 3 0;
#X connect 1 0 7 0;
#X connect 3 0 4 0;
#X connect 4 0 2 0;
#X connect 4 1 5 0;
#X connect 5 0 3 1;
#X connect 6 0 3 1;
#X connect 7 0 3 0;
#X connect 7 1 6 0;
#X restore 114 121 pd once;
#X obj 114 352 outlet~;
#X obj 114 205 text size \$1-sample_list;
#X obj 114 274 text get \$1-sample_list;
#X connect 0 0 12 0;
#X connect 0 1 11 1;
#X connect 1 0 8 0;
#X connect 2 0 14 0;
#X connect 3 0 13 0;
#X connect 4 0 2 0;
#X connect 4 1 2 1;
#X connect 5 0 0 0;
#X connect 7 0 13 0;
#X connect 8 0 9 0;
#X connect 8 1 7 1;
#X connect 9 0 11 0;
#X connect 10 0 8 0;
#X connect 11 0 7 0;
#X connect 13 0 4 0;
#X connect 14 0 5 0;
#X connect 14 0 6 0;
