#N canvas 62 157 330 525 10;
#X obj 114 450 readsf~;
#X obj 114 11 inlet;
#X obj 114 381 random;
#X obj 59 298 bng 15 250 50 0 empty empty empty 17 7 0 10 -262144 -1
-1;
#X obj 114 358 t b f;
#X msg 114 427 open \$1 \, 1;
#X obj 49 449 print;
#X obj 114 207 spigot, f 9;
#X obj 114 85 t a a, f 9;
#X obj 114 116 sel 1;
#X obj 23 26 tgl 15 0 empty empty empty 17 7 0 10 -262144 -1 -1 0 1
;
#N canvas 325 453 450 300 once 0;
#X obj 106 28 inlet;
#X obj 186 28 inlet;
#X obj 106 220 outlet;
#X obj 106 120 spigot 1;
#X obj 106 143 t b b;
#X obj 138 171 0;
#X msg 186 49 1;
#X connect 0 0 3 0;
#X connect 1 0 6 0;
#X connect 3 0 4 0;
#X connect 4 0 2 0;
#X connect 4 1 5 0;
#X connect 5 0 3 1;
#X connect 6 0 3 1;
#X restore 114 161 pd once;
#X obj 114 482 outlet~;
#X obj 114 335 text size \$1-sample_list;
#X obj 114 404 text get \$1-sample_list;
#X obj 114 62 spigot;
#X obj 168 14 r pre-init;
#X obj 248 14 r post-init;
#X msg 248 35 1;
#X msg 168 35 0;
#X floatatom 56 153 5 0 0 0 - - -;
#X obj 92 188 bng 15 250 50 0 empty empty empty 17 7 0 10 -262144 -1
-1;
#X obj 92 188 bng 15 250 50 0 empty empty empty 17 7 0 10 -262144 -1
-1;
#X obj 202 121 r init;
#X obj 114 290 delay;
#X obj 114 230 random 2000;
#X obj 114 250 + 250;
#X floatatom 130 271 5 0 0 0 - - -;
#X obj 114 311 bng 15 250 50 0 empty empty empty 17 7 0 10 -262144
-1 -1;
#X connect 0 0 12 0;
#X connect 0 1 11 1;
#X connect 1 0 15 0;
#X connect 2 0 14 0;
#X connect 3 0 13 0;
#X connect 4 0 2 0;
#X connect 4 1 2 1;
#X connect 5 0 0 0;
#X connect 7 0 25 0;
#X connect 8 0 9 0;
#X connect 8 0 20 0;
#X connect 8 1 7 1;
#X connect 9 0 11 0;
#X connect 10 0 8 0;
#X connect 11 0 7 0;
#X connect 11 0 21 0;
#X connect 13 0 4 0;
#X connect 14 0 5 0;
#X connect 14 0 6 0;
#X connect 15 0 8 0;
#X connect 16 0 19 0;
#X connect 17 0 18 0;
#X connect 18 0 15 1;
#X connect 19 0 15 1;
#X connect 23 0 11 1;
#X connect 24 0 28 0;
#X connect 25 0 26 0;
#X connect 26 0 24 0;
#X connect 26 0 27 0;
#X connect 28 0 13 0;
