#N canvas 885 497 450 300 10;
#X obj 129 108 random;
#X obj 214 42 loadbang;
#X msg 214 65 1024;
#X obj 129 42 inlet;
#X obj 129 161 /;
#X obj 129 184 * \$1;
#X obj 129 207 outlet;
#X connect 0 0 4 0;
#X connect 1 0 2 0;
#X connect 2 0 0 1;
#X connect 2 0 4 1;
#X connect 3 0 0 0;
#X connect 4 0 5 0;
#X connect 5 0 6 0;
