#N canvas 408 102 862 676 10;
#X obj 101 134 moses;
#X obj 128 65 r init;
#X obj 128 88 randomf 60;
#X obj 221 134 moses;
#X obj 248 45 r init;
#X obj 248 68 randomf 60;
#X obj 248 91 + 40;
#X obj 341 134 moses;
#X obj 368 45 r init;
#X obj 368 68 randomf 90;
#X obj 368 91 + 70;
#X obj 461 134 moses;
#X obj 488 45 r init;
#X obj 581 134 moses;
#X obj 608 45 r init;
#X text 216 24 0'40" <-> 1'40";
#X text 336 24 1'10" <-> 2'40";
#X text 456 24 2'10" <-> 3'40";
#X obj 488 68 randomf 90;
#X obj 488 91 + 130;
#X text 576 24 4'55" <-> 6'10;
#X obj 608 68 randomf 75;
#X obj 608 91 + 295;
#X obj 701 134 moses;
#X obj 728 45 r init;
#X text 696 24 5'50" <-> 7'00";
#X text 106 46 0'00" <-> 1'00";
#X floatatom 248 114 5 0 0 0 - - -;
#X floatatom 368 114 5 0 0 0 - - -;
#X floatatom 488 114 5 0 0 0 - - -;
#X floatatom 608 114 5 0 0 0 - - -;
#X floatatom 728 114 5 0 0 0 - - -;
#X floatatom 128 111 5 0 0 0 - - -;
#X obj 221 213 t b;
#X text 226 188 Fa;
#X obj 341 213 t b;
#X text 346 188 stop Fa;
#X obj 461 213 t b;
#X text 466 188 Sol;
#X obj 581 213 t b;
#X text 586 188 stop Sol;
#X obj 701 213 t b;
#X text 706 188 Fa2;
#X obj 751 213 t b;
#X text 756 188 stop Fa2;
#X obj 101 213 t b;
#X msg 101 236 0;
#X msg 221 236 1;
#X msg 341 236 2;
#X msg 461 236 3;
#X msg 581 236 4;
#X msg 701 236 5;
#X msg 751 236 6;
#X obj 101 11 r clock;
#X obj 158 477 player soprano/F4;
#X obj 628 546 outlet;
#X obj 341 312 t f f;
#X obj 158 454 == 1;
#X obj 278 454 == 3;
#X obj 278 477 player soprano/G4;
#X obj 398 454 == 5;
#X obj 398 477 player soprano/F5;
#X obj 329 565 outlet~;
#X floatatom 379 372 5 0 0 0 - - -;
#X floatatom 61 44 5 0 0 0 - - -;
#X obj 728 68 randomf 70;
#X obj 728 91 + 350;
#X connect 0 0 45 0;
#X connect 0 1 3 0;
#X connect 1 0 2 0;
#X connect 2 0 0 1;
#X connect 2 0 32 0;
#X connect 3 0 33 0;
#X connect 3 1 7 0;
#X connect 4 0 5 0;
#X connect 5 0 6 0;
#X connect 6 0 3 1;
#X connect 6 0 27 0;
#X connect 7 0 35 0;
#X connect 7 1 11 0;
#X connect 8 0 9 0;
#X connect 9 0 10 0;
#X connect 10 0 7 1;
#X connect 10 0 28 0;
#X connect 11 0 37 0;
#X connect 11 1 13 0;
#X connect 12 0 18 0;
#X connect 13 0 39 0;
#X connect 13 1 23 0;
#X connect 14 0 21 0;
#X connect 18 0 19 0;
#X connect 19 0 11 1;
#X connect 19 0 29 0;
#X connect 21 0 22 0;
#X connect 22 0 13 1;
#X connect 22 0 30 0;
#X connect 23 0 41 0;
#X connect 23 1 43 0;
#X connect 24 0 65 0;
#X connect 33 0 47 0;
#X connect 35 0 48 0;
#X connect 37 0 49 0;
#X connect 39 0 50 0;
#X connect 41 0 51 0;
#X connect 43 0 52 0;
#X connect 45 0 46 0;
#X connect 46 0 56 0;
#X connect 47 0 56 0;
#X connect 48 0 56 0;
#X connect 49 0 56 0;
#X connect 50 0 56 0;
#X connect 51 0 56 0;
#X connect 52 0 56 0;
#X connect 53 0 0 0;
#X connect 53 0 64 0;
#X connect 54 0 62 0;
#X connect 56 0 57 0;
#X connect 56 0 58 0;
#X connect 56 0 60 0;
#X connect 56 1 55 0;
#X connect 56 1 63 0;
#X connect 57 0 54 0;
#X connect 58 0 59 0;
#X connect 59 0 62 0;
#X connect 60 0 61 0;
#X connect 61 0 62 0;
#X connect 65 0 66 0;
#X connect 66 0 23 1;
#X connect 66 0 31 0;
