#N canvas 380 615 1010 300 10;
#X obj 101 11 inlet;
#X obj 101 134 moses;
#X obj 128 65 r init;
#X obj 128 88 random 60;
#X obj 221 134 moses;
#X obj 248 45 r init;
#X obj 248 68 random 60;
#X obj 248 91 + 40;
#X obj 341 134 moses;
#X obj 368 45 r init;
#X obj 368 68 random 90;
#X obj 368 91 + 70;
#X obj 461 134 moses;
#X obj 488 45 r init;
#X obj 581 134 moses;
#X obj 608 45 r init;
#X text 216 24 0'40" <-> 1'40";
#X text 336 24 1'10" <-> 2'40";
#X text 456 24 2'10" <-> 3'40";
#X obj 488 68 random 90;
#X obj 488 91 + 130;
#X text 576 24 4'55" <-> 6'10;
#X obj 608 68 random 75;
#X obj 608 91 + 295;
#X obj 701 134 moses;
#X obj 728 45 r init;
#X obj 728 68 random 90;
#X obj 728 91 + 130;
#X text 696 24 5'50" <-> 7'00";
#X text 106 46 0'00" <-> 1'00";
#X floatatom 248 114 5 0 0 0 - - -;
#X floatatom 368 114 5 0 0 0 - - -;
#X floatatom 488 114 5 0 0 0 - - -;
#X floatatom 608 114 5 0 0 0 - - -;
#X floatatom 728 114 5 0 0 0 - - -;
#X floatatom 128 111 5 0 0 0 - - -;
#X obj 221 209 t b;
#X text 226 188 Fa;
#X obj 341 209 t b;
#X text 346 188 stop Fa;
#X obj 461 209 t b;
#X text 466 188 Sol;
#X obj 581 209 t b;
#X text 586 188 stop Sol;
#X obj 701 209 t b;
#X text 706 188 Fa2;
#X obj 751 209 t b;
#X text 756 188 stop Fa2;
#X connect 0 0 1 0;
#X connect 1 1 4 0;
#X connect 2 0 3 0;
#X connect 3 0 1 1;
#X connect 3 0 35 0;
#X connect 4 0 36 0;
#X connect 4 1 8 0;
#X connect 5 0 6 0;
#X connect 6 0 7 0;
#X connect 7 0 4 1;
#X connect 7 0 30 0;
#X connect 8 0 38 0;
#X connect 8 1 12 0;
#X connect 9 0 10 0;
#X connect 10 0 11 0;
#X connect 11 0 8 1;
#X connect 11 0 31 0;
#X connect 12 0 40 0;
#X connect 12 1 14 0;
#X connect 13 0 19 0;
#X connect 14 0 42 0;
#X connect 14 1 24 0;
#X connect 15 0 22 0;
#X connect 19 0 20 0;
#X connect 20 0 12 1;
#X connect 20 0 32 0;
#X connect 22 0 23 0;
#X connect 23 0 14 1;
#X connect 23 0 33 0;
#X connect 24 0 44 0;
#X connect 24 1 46 0;
#X connect 25 0 26 0;
#X connect 26 0 27 0;
#X connect 27 0 24 1;
#X connect 27 0 34 0;
