#N canvas 0 206 1280 572 10;
#X obj 101 134 moses;
#X obj 128 65 r init;
#X obj 128 88 randomf 60;
#X obj 221 134 moses;
#X obj 248 45 r init;
#X obj 248 68 randomf 60;
#X obj 248 91 + 40;
#X obj 341 134 moses;
#X obj 368 45 r init;
#X obj 461 134 moses;
#X obj 488 45 r init;
#X obj 581 134 moses;
#X obj 608 45 r init;
#X text 216 24 0'40" <-> 1'40";
#X obj 701 134 moses;
#X obj 728 45 r init;
#X text 106 46 0'00" <-> 1'00";
#X floatatom 248 114 5 0 0 0 - - -;
#X floatatom 368 114 5 0 0 0 - - -;
#X floatatom 488 114 5 0 0 0 - - -;
#X floatatom 608 114 5 0 0 0 - - -;
#X floatatom 728 114 5 0 0 0 - - -;
#X floatatom 128 111 5 0 0 0 - - -;
#X obj 221 209 t b;
#X text 226 188 Fa;
#X obj 341 209 t b;
#X text 346 188 stop Fa;
#X obj 461 209 t b;
#X text 466 188 Sol;
#X obj 581 209 t b;
#X text 586 188 stop Sol;
#X obj 701 209 t b;
#X text 706 188 Fa2;
#X obj 821 134 moses;
#X obj 848 45 r init;
#X obj 941 134 moses;
#X obj 968 45 r init;
#X obj 1061 134 moses;
#X obj 1088 45 r init;
#X obj 1181 134 moses;
#X obj 1208 45 r init;
#X obj 1301 134 moses;
#X obj 1328 45 r init;
#X floatatom 848 114 5 0 0 0 - - -;
#X floatatom 968 114 5 0 0 0 - - -;
#X floatatom 1088 114 5 0 0 0 - - -;
#X floatatom 1208 114 5 0 0 0 - - -;
#X floatatom 1328 114 5 0 0 0 - - -;
#X obj 821 209 t b;
#X text 826 188 Fa;
#X obj 941 209 t b;
#X text 946 188 stop Fa;
#X obj 1061 209 t b;
#X text 1066 188 Sol;
#X obj 1181 209 t b;
#X text 1186 188 stop Sol;
#X obj 1301 209 t b;
#X text 1306 188 Fa2;
#X obj 1421 134 moses;
#X obj 1448 45 r init;
#X floatatom 1448 114 5 0 0 0 - - -;
#X obj 1421 209 t b;
#X text 1426 188 Fa2;
#X obj 1471 209 t b;
#X text 1476 188 stop Fa2;
#X text 336 24 1'25" <-> 2'10";
#X text 456 24 1'55" <-> 2'40";
#X text 576 24 2'50" <-> 3'20;
#X text 696 24 3'10" <-> 3'40";
#X text 819 23 3'15" <-> 4'30";
#X text 936 24 4'10" <-> 5'20";
#X text 1056 24 5'15" <-> 5'30";
#X text 1177 23 5'25" <-> 5'40;
#X text 1296 24 5'20" <-> 6'20";
#X text 1419 25 6'00" <-> 7'00";
#X obj 368 91 + 85;
#X obj 488 91 + 115;
#X obj 608 91 + 170;
#X obj 728 91 + 190;
#X obj 848 91 + 195;
#X obj 968 91 + 250;
#X obj 1088 91 + 315;
#X obj 1208 91 + 325;
#X obj 1328 91 + 320;
#X obj 1448 91 + 360;
#X obj 1448 68 randomf 60;
#X obj 1328 68 randomf 60;
#X obj 1208 68 randomf 15;
#X obj 1088 68 randomf 15;
#X obj 969 68 randomf 70;
#X obj 849 68 randomf 75;
#X obj 728 68 randomf 30;
#X obj 608 68 randomf 30;
#X obj 488 68 randomf 45;
#X obj 368 68 randomf 45;
#X obj 101 209 t b;
#X msg 101 232 0;
#X msg 221 232 1;
#X msg 341 232 2;
#X msg 461 232 3;
#X msg 581 232 4;
#X msg 701 232 5;
#X msg 821 232 6;
#X msg 941 232 7;
#X msg 1061 232 8;
#X msg 1181 232 9;
#X msg 1301 232 10;
#X msg 1421 232 11;
#X obj 1471 232 12;
#X obj 101 11 r clock;
#X obj 306 424 == 1;
#X obj 701 330 t f f;
#X obj 1052 500 outlet;
#X obj 306 449 player tenor/A3-heu;
#X obj 436 449 player tenor/C4;
#X obj 546 449 player tenor/D4;
#X obj 436 424 == 3;
#X obj 546 424 == 5;
#X obj 656 424 == 7;
#X obj 766 424 == 9;
#X obj 876 424 == 11;
#X obj 656 448 player tenor/A3-O;
#X obj 766 448 player tenor/D4-O;
#X obj 876 448 player tenor/C#3;
#X obj 497 496 outlet~;
#X floatatom 785 353 5 0 0 0 - - -;
#X floatatom 64 40 5 0 0 0 - - -;
#X connect 0 0 95 0;
#X connect 0 1 3 0;
#X connect 1 0 2 0;
#X connect 2 0 0 1;
#X connect 2 0 22 0;
#X connect 3 0 23 0;
#X connect 3 1 7 0;
#X connect 4 0 5 0;
#X connect 5 0 6 0;
#X connect 6 0 3 1;
#X connect 6 0 17 0;
#X connect 7 0 25 0;
#X connect 7 1 9 0;
#X connect 8 0 94 0;
#X connect 9 0 27 0;
#X connect 9 1 11 0;
#X connect 10 0 93 0;
#X connect 11 0 29 0;
#X connect 11 1 14 0;
#X connect 12 0 92 0;
#X connect 14 0 31 0;
#X connect 14 1 33 0;
#X connect 15 0 91 0;
#X connect 23 0 97 0;
#X connect 25 0 98 0;
#X connect 27 0 99 0;
#X connect 29 0 100 0;
#X connect 31 0 101 0;
#X connect 33 0 48 0;
#X connect 33 1 35 0;
#X connect 34 0 90 0;
#X connect 35 0 50 0;
#X connect 35 1 37 0;
#X connect 36 0 89 0;
#X connect 37 0 52 0;
#X connect 37 1 39 0;
#X connect 38 0 88 0;
#X connect 39 0 54 0;
#X connect 39 1 41 0;
#X connect 40 0 87 0;
#X connect 41 0 56 0;
#X connect 41 1 58 0;
#X connect 42 0 86 0;
#X connect 48 0 102 0;
#X connect 50 0 103 0;
#X connect 52 0 104 0;
#X connect 54 0 105 0;
#X connect 56 0 106 0;
#X connect 58 0 61 0;
#X connect 58 1 63 0;
#X connect 59 0 85 0;
#X connect 61 0 107 0;
#X connect 63 0 108 0;
#X connect 75 0 7 1;
#X connect 75 0 18 0;
#X connect 76 0 9 1;
#X connect 76 0 19 0;
#X connect 77 0 11 1;
#X connect 77 0 20 0;
#X connect 78 0 14 1;
#X connect 78 0 21 0;
#X connect 79 0 33 1;
#X connect 79 0 43 0;
#X connect 80 0 35 1;
#X connect 80 0 44 0;
#X connect 81 0 37 1;
#X connect 81 0 45 0;
#X connect 82 0 39 1;
#X connect 82 0 46 0;
#X connect 83 0 41 1;
#X connect 83 0 47 0;
#X connect 84 0 58 1;
#X connect 84 0 60 0;
#X connect 85 0 84 0;
#X connect 86 0 83 0;
#X connect 87 0 82 0;
#X connect 88 0 81 0;
#X connect 89 0 80 0;
#X connect 90 0 79 0;
#X connect 91 0 78 0;
#X connect 92 0 77 0;
#X connect 93 0 76 0;
#X connect 94 0 75 0;
#X connect 95 0 96 0;
#X connect 96 0 111 0;
#X connect 97 0 111 0;
#X connect 98 0 111 0;
#X connect 99 0 111 0;
#X connect 100 0 111 0;
#X connect 101 0 111 0;
#X connect 102 0 111 0;
#X connect 103 0 111 0;
#X connect 104 0 111 0;
#X connect 105 0 111 0;
#X connect 106 0 111 0;
#X connect 107 0 111 0;
#X connect 108 0 111 0;
#X connect 109 0 0 0;
#X connect 109 0 126 0;
#X connect 110 0 113 0;
#X connect 111 0 110 0;
#X connect 111 0 116 0;
#X connect 111 0 117 0;
#X connect 111 0 120 0;
#X connect 111 0 119 0;
#X connect 111 0 118 0;
#X connect 111 1 112 0;
#X connect 111 1 125 0;
#X connect 113 0 124 0;
#X connect 114 0 124 0;
#X connect 115 0 124 0;
#X connect 116 0 114 0;
#X connect 117 0 115 0;
#X connect 118 0 121 0;
#X connect 119 0 122 0;
#X connect 120 0 123 0;
#X connect 121 0 124 0;
#X connect 122 0 124 0;
#X connect 123 0 124 0;
