#N canvas 388 345 853 361 10;
#X obj 10 19 notein;
#N canvas 0 23 236 330 itw 0;
#X obj 78 77 inlet;
#X obj 78 223 outlet;
#X obj 78 198 symbol;
#X msg 78 177 itw/\$1.jpeg;
#X obj 78 155 moses 33;
#X obj 78 112 moses 1;
#X connect 0 0 5 0;
#X connect 2 0 1 0;
#X connect 3 0 2 0;
#X connect 4 0 3 0;
#X connect 5 1 4 0;
#X restore 10 91 pd itw;
#X obj 10 44 stripnote;
#X obj 37 142 ossia.remote cartel:/image.1/load;
#X floatatom 10 68 5 0 0 0 - - -;
#X obj 10 162 ossia.remote cartel:/image.1/enable;
#X msg 10 132 1;
#N canvas 49 440 493 300 client 1;
#X obj 74 163 print;
#X obj 74 100 loadbang;
#X msg 208 142 connect oscquery ws://192.168.0.49:5678;
#X obj 74 142 ossia.client cartel 0;
#X msg 74 120 connect oscquery ws://192.168.32.9:5680;
#X msg 159 90 namespace;
#X connect 1 0 4 0;
#X connect 2 0 3 0;
#X connect 3 0 0 0;
#X connect 4 0 3 0;
#X connect 5 0 3 0;
#X restore 71 249 pd client;
#N canvas 91 185 450 300 device 0;
#X obj 122 140 ossia.device live-bridge;
#X obj 122 88 loadbang;
#X msg 122 109 expose oscquery 1238 5682;
#X connect 1 0 2 0;
#X connect 2 0 0 0;
#X restore 71 271 pd device;
#X obj 288 325 noteout;
#X obj 288 274 makenote 564 250;
#X msg 288 70 1;
#X msg 317 90 2;
#X msg 347 110 3;
#X msg 377 130 4;
#X msg 407 150 5;
#X msg 437 170 6;
#X msg 467 190 7;
#X msg 497 210 8;
#X obj 288 50 ossia.parameter live-bridge:/jetsun_mila @type impulse
;
#X obj 317 70 ossia.parameter live-bridge:/bol_thibetain @type impulse
;
#X obj 347 90 ossia.parameter live-bridge:/touche1 @type impulse;
#X obj 377 110 ossia.parameter live-bridge:/touche2 @type impulse;
#X obj 407 130 ossia.parameter live-bridge:/touch3 @type impulse;
#X obj 437 150 ossia.parameter live-bridge:/experiences @type impulse
;
#X obj 467 170 ossia.parameter live-bridge:/palais_de_mari @type impulse
;
#X obj 497 190 ossia.parameter live-bridge:/itw @type impulse;
#X obj 258 30 ossia.parameter live-bridge:/reset @type impulse;
#X msg 258 50 0;
#X obj 455 319 ../common/selectMidiDevice disklavier_from_live disklaver_to_live
;
#X text 102 47 midi in : from_live;
#X text 102 67 midi out : to_live;
#X obj 10 112 t b a;
#X connect 0 0 2 0;
#X connect 0 1 2 1;
#X connect 1 0 32 0;
#X connect 2 0 4 0;
#X connect 4 0 1 0;
#X connect 6 0 5 0;
#X connect 10 0 9 0;
#X connect 10 1 9 1;
#X connect 11 0 10 0;
#X connect 12 0 10 0;
#X connect 13 0 10 0;
#X connect 14 0 10 0;
#X connect 15 0 10 0;
#X connect 16 0 10 0;
#X connect 17 0 10 0;
#X connect 18 0 10 0;
#X connect 19 0 11 0;
#X connect 20 0 12 0;
#X connect 21 0 13 0;
#X connect 22 0 14 0;
#X connect 23 0 15 0;
#X connect 24 0 16 0;
#X connect 25 0 17 0;
#X connect 26 0 18 0;
#X connect 27 0 28 0;
#X connect 28 0 10 0;
#X connect 32 0 6 0;
#X connect 32 1 3 0;
