#N canvas 162 313 450 300 10;
#X obj 45 244 ossia.client cartel;
#X msg 45 222 connect oscquery ws://192.168.32.9:5680;
#X obj 45 265 print;
#X obj 45 202 loadbang;
#X obj 52 102 ossia.remote image.1/load;
#X obj 52 19 notein;
#N canvas 0 23 450 300 midisettings 1;
#X obj 83 57 loadbang;
#X obj 83 78 bng 15 250 50 0 empty empty empty 17 7 0 10 -262144 -1
-1;
#X obj 83 122 list prepend midi-dialog;
#X obj 83 144 list trim;
#X obj 83 166 s pd;
#X msg 83 100 0 0 0 0 0 0 0 0 4 5;
#X obj 193 224 mediasettings/midisettings;
#X msg 238 181 disklavier netsend;
#X obj 193 245 route;
#X connect 0 0 1 0;
#X connect 1 0 5 0;
#X connect 2 0 3 0;
#X connect 3 0 4 0;
#X connect 5 0 2 0;
#X connect 6 0 8 0;
#X restore 138 183 pd midisettings;
#N canvas 0 23 236 330 itw 0;
#X obj 78 77 inlet;
#X obj 78 223 outlet;
#X obj 78 198 symbol;
#X msg 78 177 itw/\$1.jpeg;
#X obj 78 155 moses 33;
#X obj 78 112 moses 1;
#X connect 0 0 5 0;
#X connect 2 0 1 0;
#X connect 3 0 2 0;
#X connect 4 0 3 0;
#X connect 5 1 4 0;
#X restore 52 81 pd itw;
#X connect 0 0 2 0;
#X connect 1 0 0 0;
#X connect 3 0 1 0;
#X connect 5 0 7 0;
#X connect 7 0 4 0;
