#N canvas 234 183 1046 502 10;
#X declare -lib ossia;
#X obj 10 19 notein;
#N canvas 0 23 236 330 itw 0;
#X obj 78 77 inlet;
#X obj 78 223 outlet;
#X obj 78 198 symbol;
#X msg 78 177 itw/\$1.jpeg;
#X obj 78 112 moses 1;
#X obj 78 155 moses 34;
#X connect 0 0 4 0;
#X connect 2 0 1 0;
#X connect 3 0 2 0;
#X connect 4 1 5 0;
#X connect 5 0 3 0;
#X restore 10 91 pd itw;
#X obj 10 44 stripnote;
#X obj 37 142 ossia.remote cartel:/image.1/load;
#X floatatom 10 68 5 0 0 0 - - -;
#X obj 10 162 ossia.remote cartel:/image.1/enable;
#X msg 10 132 1;
#N canvas 49 440 493 300 client 0;
#X obj 74 163 print;
#X obj 74 100 loadbang;
#X msg 208 142 connect oscquery ws://192.168.0.49:5678;
#X obj 74 142 ossia.client cartel 0;
#X msg 74 120 connect oscquery ws://192.168.32.9:5680;
#X msg 159 90 namespace;
#X connect 1 0 4 0;
#X connect 2 0 3 0;
#X connect 3 0 0 0;
#X connect 4 0 3 0;
#X connect 5 0 3 0;
#X restore 71 249 pd client;
#N canvas 91 185 450 300 device 0;
#X obj 122 140 ossia.device live-bridge;
#X obj 122 88 loadbang;
#X msg 122 109 expose oscquery 1238 5682;
#X connect 1 0 2 0;
#X connect 2 0 0 0;
#X restore 71 271 pd device;
#X obj 258 405 noteout;
#X obj 258 354 makenote 564 250;
#X msg 298 70 1;
#X msg 337 90 2;
#X msg 377 110 3;
#X msg 417 130 4;
#X msg 457 150 5;
#X msg 497 170 6;
#X msg 537 190 7;
#X msg 577 210 8;
#X msg 258 50 0;
#X text 102 47 midi in : from_live;
#X text 102 67 midi out : to_live;
#X obj 10 112 t b a;
#X obj 36 336 declare -lib ossia;
#X obj 258 431 ../common/selectMidiDevice disklavier_from_live disklavier_to_live
;
#N canvas 0 23 236 330 experiences 0;
#X obj 78 77 inlet;
#X obj 78 263 outlet;
#X obj 78 238 symbol;
#X obj 78 112 moses 34;
#X obj 78 155 moses 100;
#X obj 78 176 - 36;
#X floatatom 140 160 5 0 0 0 - - -;
#X msg 78 217 experiences/\$1.jpg;
#X connect 0 0 3 0;
#X connect 2 0 1 0;
#X connect 3 1 4 0;
#X connect 4 0 5 0;
#X connect 5 0 7 0;
#X connect 6 0 7 0;
#X connect 7 0 2 0;
#X restore 60 91 pd experiences;
#X obj 577 191 sel 1;
#X obj 537 171 sel 1;
#X obj 497 151 sel 1;
#X obj 457 131 sel 1;
#X obj 417 111 sel 1;
#X obj 377 91 sel 1;
#X obj 337 71 sel 1;
#X obj 298 51 sel 1;
#X obj 258 31 sel 1;
#X obj 258 10 ossia.parameter live-bridge:/reset @type bool;
#X obj 298 30 ossia.parameter live-bridge:/jetsun_mila @type bool;
#X obj 337 50 ossia.parameter live-bridge:/bol_thibetain @type bool
;
#X obj 377 70 ossia.parameter live-bridge:/touche1 @type bool;
#X obj 417 90 ossia.parameter live-bridge:/touche2 @type bool;
#X obj 457 110 ossia.parameter live-bridge:/touch3 @type bool;
#X obj 497 130 ossia.parameter live-bridge:/experiences @type bool
;
#X obj 537 150 ossia.parameter live-bridge:/palais_de_mari @type bool
;
#X obj 577 170 ossia.parameter live-bridge:/itw @type bool;
#X obj 617 211 sel 1;
#X msg 617 230 9;
#X obj 617 190 ossia.parameter live-bridge:/jetsun2 @type bool;
#X obj 696 385 mrpeach/packOSC;
#X obj 696 458 udpsend;
#X obj 696 478 tgl 15 0 empty empty empty 17 7 0 10 -262144 -1 -1 1
1;
#X obj 721 408 loadbang;
#X msg 696 364 /seq/go 1;
#X obj 696 323 ossia.parameter live-bridge:/light-go @type bool;
#X obj 696 344 sel 1;
#X msg 763 452 disconnect;
#X msg 721 430 connect 192.168.32.17 7000;
#X obj 657 232 sel 1;
#X obj 697 253 sel 1;
#X msg 657 251 10;
#X msg 697 272 11;
#X obj 657 211 ossia.parameter live-bridge:/stop_bol @type bool;
#X obj 697 232 ossia.parameter live-bridge:/stop_exp @type bool;
#X obj 737 274 sel 1;
#X msg 737 293 12;
#X obj 737 253 ossia.parameter live-bridge:/stop_itw @type bool;
#X connect 0 0 2 0;
#X connect 0 1 2 1;
#X connect 1 0 22 0;
#X connect 2 0 4 0;
#X connect 4 0 1 0;
#X connect 4 0 25 0;
#X connect 6 0 5 0;
#X connect 10 0 9 0;
#X connect 10 1 9 1;
#X connect 11 0 10 0;
#X connect 12 0 10 0;
#X connect 13 0 10 0;
#X connect 14 0 10 0;
#X connect 15 0 10 0;
#X connect 16 0 10 0;
#X connect 17 0 10 0;
#X connect 18 0 10 0;
#X connect 19 0 10 0;
#X connect 22 0 6 0;
#X connect 22 1 3 0;
#X connect 25 0 22 0;
#X connect 26 0 18 0;
#X connect 27 0 17 0;
#X connect 28 0 16 0;
#X connect 29 0 15 0;
#X connect 30 0 14 0;
#X connect 31 0 13 0;
#X connect 32 0 12 0;
#X connect 33 0 11 0;
#X connect 34 0 19 0;
#X connect 35 0 34 0;
#X connect 36 0 33 0;
#X connect 37 0 32 0;
#X connect 38 0 31 0;
#X connect 39 0 30 0;
#X connect 40 0 29 0;
#X connect 41 0 28 0;
#X connect 42 0 27 0;
#X connect 43 0 26 0;
#X connect 44 0 45 0;
#X connect 45 0 10 0;
#X connect 46 0 44 0;
#X connect 47 0 48 0;
#X connect 48 0 49 0;
#X connect 50 0 55 0;
#X connect 51 0 47 0;
#X connect 52 0 53 0;
#X connect 53 0 51 0;
#X connect 54 0 48 0;
#X connect 55 0 48 0;
#X connect 56 0 58 0;
#X connect 57 0 59 0;
#X connect 58 0 10 0;
#X connect 59 0 10 0;
#X connect 60 0 56 0;
#X connect 61 0 57 0;
#X connect 62 0 63 0;
#X connect 63 0 10 0;
#X connect 64 0 62 0;
