#N canvas 1351 159 530 430 10;
#X obj 368 350 Gem;
#X obj 300 364 gemwin;
#X msg 309 319 destroy;
#X obj 26 270 text2d;
#X obj 25 32 gemhead;
#X floatatom 59 249 5 0 0 0 - - -;
#X obj 186 113 t b b;
#N canvas 735 298 450 490 make_symbol 0;
#X obj 164 67 t f f, f 11;
#X obj 164 115 int;
#X obj 227 91 / 60;
#X obj 227 115 int;
#X obj 164 92 % 60;
#X obj 164 223 change;
#X obj 166 316 symbol;
#X obj 166 339 outlet;
#X obj 163 39 inlet;
#X obj 164 261 pack f f f, f 11;
#X obj 164 138 t f f;
#X obj 164 161 % 10;
#X obj 194 161 / 10;
#X obj 194 184 int;
#X msg 164 289 \$3'\$2\$1";
#X connect 0 0 4 0;
#X connect 0 1 2 0;
#X connect 1 0 10 0;
#X connect 2 0 3 0;
#X connect 3 0 9 2;
#X connect 4 0 1 0;
#X connect 5 0 9 0;
#X connect 6 0 7 0;
#X connect 8 0 0 0;
#X connect 9 0 14 0;
#X connect 10 0 11 0;
#X connect 10 1 12 0;
#X connect 11 0 5 0;
#X connect 12 0 13 0;
#X connect 13 0 9 1;
#X connect 14 0 6 0;
#X restore 218 211 pd make_symbol;
#X msg 218 231 text \$1;
#X obj 218 146 f;
#X obj 243 146 + 1;
#X floatatom 218 169 5 0 0 0 - - -;
#X obj 59 204 loadbang;
#X msg 59 227 500;
#X obj 268 146 sel 420;
#X msg 268 169 0;
#X floatatom 307 100 5 0 0 0 - - -;
#X obj 307 122 * 60;
#X text 344 100 durée en seconde du compteur;
#X obj 186 90 spigot;
#X obj 219 10 tgl 15 0 empty empty empty 17 7 0 10 -262144 -1 -1 0
1;
#X obj 250 37 bng 15 250 50 0 empty empty empty 17 7 0 10 -262144 -1
-1;
#X msg 250 57 0;
#X floatatom 250 80 5 0 0 0 - - -;
#X obj 66 314 loadbang;
#X msg 300 297 dimen 1280 400 \, create \, 1;
#X obj 26 141 translateXYZ -0.33 1 0;
#X msg 66 337 file export/chrono 99;
#X obj 329 10 loadbang;
#X obj 26 401 pix_write 0 0 1280 400 1;
#X obj 167 380 route dimen;
#X obj 300 276 loadbang;
#X obj 329 33 t b b;
#X msg 357 57 1;
#X text 102 7 toggle to start ->;
#X obj 25 55 t a b;
#X obj 250 102 t f f b;
#X connect 2 0 1 0;
#X connect 3 0 29 0;
#X connect 4 0 35 0;
#X connect 5 0 3 1;
#X connect 6 0 29 0;
#X connect 6 1 9 0;
#X connect 7 0 8 0;
#X connect 8 0 3 0;
#X connect 9 0 10 0;
#X connect 9 0 11 0;
#X connect 9 0 14 0;
#X connect 10 0 9 1;
#X connect 11 0 7 0;
#X connect 12 0 13 0;
#X connect 13 0 5 0;
#X connect 14 0 15 0;
#X connect 15 0 20 0;
#X connect 16 0 17 0;
#X connect 17 0 14 1;
#X connect 19 0 6 0;
#X connect 20 0 19 1;
#X connect 21 0 22 0;
#X connect 22 0 23 0;
#X connect 23 0 36 0;
#X connect 24 0 27 0;
#X connect 25 0 1 0;
#X connect 25 0 30 0;
#X connect 26 0 3 0;
#X connect 27 0 29 0;
#X connect 28 0 32 0;
#X connect 30 0 29 2;
#X connect 31 0 25 0;
#X connect 32 0 22 0;
#X connect 32 1 33 0;
#X connect 33 0 23 0;
#X connect 35 0 26 0;
#X connect 35 1 19 0;
#X connect 36 0 9 1;
#X connect 36 1 9 0;
#X connect 36 2 27 0;
