#N canvas 0 23 450 300 10;
#X obj 251 115 t b b;
#X obj 251 136 timer;
#X obj 251 177 * 10;
#X obj 251 198 int;
#X obj 251 219 / 10;
#X obj 251 156 puremapping/iir 15;
#X obj 250 80 inlet;
#X obj 251 240 outlet;
#X obj 196 162 del;
#X msg 196 183 -1;
#X msg 196 141 1000;
#X obj 135 154 loadbang;
#X connect 0 0 1 0;
#X connect 0 0 10 0;
#X connect 0 1 1 1;
#X connect 1 0 5 0;
#X connect 2 0 3 0;
#X connect 3 0 4 0;
#X connect 4 0 7 0;
#X connect 5 0 2 0;
#X connect 6 0 0 0;
#X connect 8 0 9 0;
#X connect 9 0 7 0;
#X connect 10 0 8 0;
#X connect 11 0 9 0;
