#N canvas 795 178 376 352 10;
#X obj 97 74 mrpeach/unpackOSC;
#X msg 97 120 \$1;
#X floatatom 97 143 5 0 0 0 - - -;
#X obj 97 51 iemnet/udpreceive 5566;
#X obj 97 97 route /33 /34 /35 /36;
#X msg 127 120 \$1;
#X floatatom 127 143 5 0 0 0 - - -;
#X msg 157 120 \$1;
#X floatatom 157 143 5 0 0 0 - - -;
#X msg 187 120 \$1;
#X floatatom 187 143 5 0 0 0 - - -;
#X floatatom 255 217 5 0 0 0 - - -;
#N canvas 0 23 450 300 period 0;
#X obj 251 115 t b b;
#X obj 251 136 timer;
#X obj 251 177 * 10;
#X obj 251 198 int;
#X obj 251 219 / 10;
#X obj 251 156 puremapping/iir 15;
#X obj 250 80 inlet;
#X obj 251 240 outlet;
#X connect 0 0 1 0;
#X connect 0 1 1 1;
#X connect 1 0 5 0;
#X connect 2 0 3 0;
#X connect 3 0 4 0;
#X connect 4 0 7 0;
#X connect 5 0 2 0;
#X connect 6 0 0 0;
#X restore 255 189 pd period;
#X floatatom 185 217 5 0 0 0 - - -;
#N canvas 0 23 450 300 period 0;
#X obj 251 115 t b b;
#X obj 251 136 timer;
#X obj 251 177 * 10;
#X obj 251 198 int;
#X obj 251 219 / 10;
#X obj 251 156 puremapping/iir 15;
#X obj 250 80 inlet;
#X obj 251 240 outlet;
#X connect 0 0 1 0;
#X connect 0 1 1 1;
#X connect 1 0 5 0;
#X connect 2 0 3 0;
#X connect 3 0 4 0;
#X connect 4 0 7 0;
#X connect 5 0 2 0;
#X connect 6 0 0 0;
#X restore 185 189 pd period;
#X floatatom 115 217 5 0 0 0 - - -;
#N canvas 0 23 450 300 period 0;
#X obj 251 115 t b b;
#X obj 251 136 timer;
#X obj 251 177 * 10;
#X obj 251 198 int;
#X obj 251 219 / 10;
#X obj 251 156 puremapping/iir 15;
#X obj 250 80 inlet;
#X obj 251 240 outlet;
#X connect 0 0 1 0;
#X connect 0 1 1 1;
#X connect 1 0 5 0;
#X connect 2 0 3 0;
#X connect 3 0 4 0;
#X connect 4 0 7 0;
#X connect 5 0 2 0;
#X connect 6 0 0 0;
#X restore 115 189 pd period;
#X floatatom 45 217 5 0 0 0 - - -;
#N canvas 0 23 450 300 period 0;
#X obj 251 115 t b b;
#X obj 251 136 timer;
#X obj 251 177 * 10;
#X obj 251 198 int;
#X obj 251 219 / 10;
#X obj 251 156 puremapping/iir 15;
#X obj 250 80 inlet;
#X obj 251 240 outlet;
#X connect 0 0 1 0;
#X connect 0 1 1 1;
#X connect 1 0 5 0;
#X connect 2 0 3 0;
#X connect 3 0 4 0;
#X connect 4 0 7 0;
#X connect 5 0 2 0;
#X connect 6 0 0 0;
#X restore 45 189 pd period;
#X connect 0 0 4 0;
#X connect 1 0 2 0;
#X connect 3 0 0 0;
#X connect 4 0 1 0;
#X connect 4 0 18 0;
#X connect 4 1 5 0;
#X connect 4 1 16 0;
#X connect 4 2 7 0;
#X connect 4 2 14 0;
#X connect 4 3 9 0;
#X connect 4 3 12 0;
#X connect 5 0 6 0;
#X connect 7 0 8 0;
#X connect 9 0 10 0;
#X connect 12 0 11 0;
#X connect 14 0 13 0;
#X connect 16 0 15 0;
#X connect 18 0 17 0;
