#N canvas 795 178 450 430 10;
#X obj 137 81 iemnet/udpreceive 5566;
#X obj 137 104 mrpeach/unpackOSC;
#X obj 137 127 route /33;
#X msg 137 150 \$1;
#X floatatom 137 173 5 0 0 0 - - -;
#X connect 0 0 1 0;
#X connect 1 0 2 0;
#X connect 2 0 3 0;
#X connect 3 0 4 0;
