#N canvas 795 178 376 352 10;
#X obj 97 74 mrpeach/unpackOSC;
#X msg 97 120 \$1;
#X floatatom 97 143 5 0 0 0 - - -;
#X obj 97 51 iemnet/udpreceive 5566;
#X obj 97 97 route /33 /34 /35 /36;
#X msg 127 120 \$1;
#X floatatom 127 143 5 0 0 0 - - -;
#X msg 157 120 \$1;
#X floatatom 157 143 5 0 0 0 - - -;
#X msg 187 120 \$1;
#X floatatom 187 143 5 0 0 0 - - -;
#X floatatom 255 217 5 0 0 0 - - -;
#X floatatom 185 217 5 0 0 0 - - -;
#X floatatom 115 217 5 0 0 0 - - -;
#X floatatom 45 217 5 0 0 0 - - -;
#X obj 255 189 period;
#X obj 185 189 period;
#X obj 115 189 period;
#X obj 45 189 period;
#X obj 56 288 outlet;
#X obj 116 288 outlet;
#X obj 176 288 outlet;
#X obj 236 288 outlet;
#X connect 0 0 4 0;
#X connect 1 0 2 0;
#X connect 3 0 0 0;
#X connect 4 0 1 0;
#X connect 4 0 18 0;
#X connect 4 0 19 0;
#X connect 4 1 5 0;
#X connect 4 1 17 0;
#X connect 4 1 20 0;
#X connect 4 2 7 0;
#X connect 4 2 16 0;
#X connect 4 2 21 0;
#X connect 4 3 9 0;
#X connect 4 3 15 0;
#X connect 4 3 22 0;
#X connect 5 0 6 0;
#X connect 7 0 8 0;
#X connect 9 0 10 0;
#X connect 15 0 11 0;
#X connect 16 0 12 0;
#X connect 17 0 13 0;
#X connect 18 0 14 0;
