#N canvas 833 248 620 579 10;
#X obj 76 131 osc~ 0.5;
#X obj 77 383 snapshot~;
#X obj 167 334 metro 10;
#X obj 167 311 tgl 15 0 empty empty empty 17 7 0 10 -262144 -1 -1 1
1;
#X obj 76 162 expr~ $v1>0;
#X floatatom 76 100 5 0 0 0 - - -;
#X floatatom 108 278 5 0 0 0 - - -;
#X obj 76 300 lop~ 3;
#X obj 167 284 loadbang;
#X obj 76 78 / 60;
#X obj 79 491 ø.model breath;
#X obj 77 435 ø.parameter out @type float;
#N canvas 0 50 450 300 noise 0;
#X obj 100 86 noise~;
#X obj 99 150 *~ 0.1;
#X floatatom 121 176 5 0 0 0 - - -;
#X obj 100 199 lop~ 200;
#X floatatom 129 118 5 0 0 0 - - -;
#X obj 166 73 ø.remote noise/gain @defualt 0.1;
#X obj 176 113 ø.remote noise/cutoff @defualt 200;
#X obj 100 222 outlet~;
#X connect 0 0 1 0;
#X connect 1 0 3 0;
#X connect 2 0 3 1;
#X connect 3 0 7 0;
#X connect 4 0 1 1;
#X connect 5 0 4 0;
#X connect 6 0 2 0;
#X restore 101 333 pd noise;
#X obj 108 251 ø.param locut @unit Hz @default 3;
#X obj 76 11 ø.parameter target_frequency @type float @unit bpm @default
45;
#N canvas 495 292 460 480 onset 0;
#X obj 72 73 change;
#X obj 139 71 ø.remote target_frequency;
#X obj 72 28 inlet;
#X floatatom 212 96 5 0 0 0 - - -;
#X obj 212 118 / 60;
#X obj 212 191 * 0.5;
#N canvas 0 50 450 300 debounce 0;
#X obj 112 202 t b b;
#X msg 241 107 0;
#X obj 201 59 t b b;
#X obj 201 83 del;
#X msg 201 106 1;
#X obj 112 142 inlet;
#X obj 112 225 outlet;
#X obj 288 54 inlet;
#X obj 112 179 spigot 1;
#X connect 0 0 6 0;
#X connect 0 1 2 0;
#X connect 1 0 8 1;
#X connect 2 0 3 0;
#X connect 2 1 1 0;
#X connect 3 0 4 0;
#X connect 4 0 8 1;
#X connect 5 0 8 0;
#X connect 7 0 3 1;
#X connect 8 0 0 0;
#X restore 72 249 pd debounce;
#X floatatom 120 29 5 0 0 0 - - -;
#X obj 72 50 > 0.2;
#X obj 72 295 timer;
#X msg 212 141 1000 \$1;
#X obj 212 164 /;
#X obj 72 340 / 1000;
#X msg 72 317 1000 \$1;
#X obj 72 363 * 60;
#X floatatom 72 386 5 0 0 0 - - -;
#X obj 72 408 ø.param detected_frequency @mode get;
#X obj 140 335 outlet;
#X obj 72 272 t b b b;
#X obj 163 297 bng 15 250 50 0 empty empty empty 17 7 0 10 -262144
-1 -1;
#X obj 311 415 outlet;
#X obj 72 96 sel 1 0;
#X connect 0 0 21 0;
#X connect 1 1 3 0;
#X connect 2 0 8 0;
#X connect 3 0 4 0;
#X connect 4 0 10 0;
#X connect 5 0 6 1;
#X connect 6 0 18 0;
#X connect 7 0 8 1;
#X connect 8 0 0 0;
#X connect 9 0 13 0;
#X connect 10 0 11 0;
#X connect 11 0 5 0;
#X connect 12 0 14 0;
#X connect 13 0 12 0;
#X connect 14 0 15 0;
#X connect 15 0 16 0;
#X connect 15 0 20 0;
#X connect 18 0 9 0;
#X connect 18 1 9 1;
#X connect 18 2 17 0;
#X connect 18 2 19 0;
#X connect 21 0 6 0;
#X connect 21 1 6 0;
#X restore 254 419 pd onset detection;
#X msg 254 442 next bang;
#X floatatom 359 443 5 0 0 1 bpm - -;
#X obj 254 474 clone -x player 16 breath;
#N canvas 0 80 380 625 jitter 1;
#X obj 83 438 outlet~;
#X obj 82 54 inlet~;
#X obj 85 156 noise~;
#X floatatom 130 249 5 0 0 0 - - -;
#X floatatom 111 200 5 0 0 0 - - -;
#X obj 84 220 *~ 60;
#X obj 85 342 *~ 5;
#X floatatom 106 322 5 0 0 0 - - -;
#X obj 106 300 ø.param post_gain;
#X obj 111 180 ø.param gain @default 60;
#X obj 130 229 ø.param cutoff @default 1;
#X obj 85 269 lop~ 1;
#X obj 85 365 +~ 30;
#X obj 87 479 ø.model jiiter;
#X obj 82 81 delwrite~ breath_jitter 5000;
#X obj 84 393 delread4~ breath_jitter;
#X connect 1 0 14 0;
#X connect 2 0 5 0;
#X connect 3 0 11 1;
#X connect 4 0 5 1;
#X connect 5 0 11 0;
#X connect 6 0 12 0;
#X connect 7 0 6 1;
#X connect 8 0 7 0;
#X connect 9 0 4 0;
#X connect 10 0 3 0;
#X connect 11 0 6 0;
#X connect 12 0 15 0;
#X connect 15 0 0 0;
#X restore 75 197 pd jitter;
#X floatatom 76 47 5 0 0 0 - - -;
#N canvas 0 50 450 300 audio/gain 0;
#X obj 113 177 *~ 0.2;
#X obj 113 200 outlet~;
#X obj 146 75 + 100;
#X obj 146 98 dbtorms;
#X msg 146 121 \$1 10;
#X obj 146 144 line~;
#X obj 113 22 inlet~;
#X obj 146 52 ø.param audio/gain @unit dB @default -12;
#X connect 0 0 1 0;
#X connect 2 0 3 0;
#X connect 3 0 4 0;
#X connect 4 0 5 0;
#X connect 5 0 0 1;
#X connect 6 0 0 0;
#X connect 7 0 2 0;
#X restore 255 500 pd audio/gain;
#X obj 255 523 outlet~;
#X connect 0 0 4 0;
#X connect 1 0 11 0;
#X connect 1 0 15 0;
#X connect 2 0 1 0;
#X connect 3 0 2 0;
#X connect 4 0 19 0;
#X connect 5 0 0 0;
#X connect 6 0 7 1;
#X connect 7 0 1 0;
#X connect 8 0 3 0;
#X connect 9 0 5 0;
#X connect 12 0 1 0;
#X connect 13 0 6 0;
#X connect 14 0 20 0;
#X connect 15 0 16 0;
#X connect 15 1 17 0;
#X connect 16 0 18 0;
#X connect 18 0 21 0;
#X connect 19 0 7 0;
#X connect 20 0 9 0;
#X connect 21 0 22 0;
