#N canvas 286 179 530 579 10;
#X obj 76 131 osc~ 0.5;
#X obj 77 313 snapshot~;
#X obj 267 264 metro 10;
#X obj 269 241 tgl 15 0 empty empty empty 17 7 0 10 -262144 -1 -1 1
1;
#X obj 104 419 f;
#X obj 104 442 + 1;
#X obj 77 376 t f b;
#X obj 77 525 tabwrite breath;
#X obj 283 114 table breath 1024;
#X obj 104 465 % 1024;
#X obj 76 172 expr~ $v1>0;
#X floatatom 76 100 5 0 0 0 - - -;
#X floatatom 97 207 5 0 0 0 - - -;
#X obj 76 230 lop~ 3;
#X obj 173 127 noise~;
#X obj 172 191 *~ 0.1;
#X floatatom 194 217 5 0 0 0 - - -;
#X obj 173 240 lop~ 200;
#X floatatom 202 159 5 0 0 0 - - -;
#X obj 268 214 loadbang;
#X obj 218 370 ø.parameter breath @type float @mode get;
#X obj 76 11 ø.parameter frequency @type float @unit bpm;
#X obj 116 51 ø.parameter jitter @type float;
#X obj 76 34 / 60;
#X connect 0 0 10 0;
#X connect 1 0 6 0;
#X connect 1 0 20 0;
#X connect 2 0 1 0;
#X connect 3 0 2 0;
#X connect 4 0 5 0;
#X connect 5 0 9 0;
#X connect 6 0 7 0;
#X connect 6 1 4 0;
#X connect 9 0 4 1;
#X connect 9 0 7 1;
#X connect 10 0 13 0;
#X connect 11 0 0 0;
#X connect 12 0 13 1;
#X connect 13 0 1 0;
#X connect 14 0 15 0;
#X connect 15 0 17 0;
#X connect 16 0 17 1;
#X connect 17 0 1 0;
#X connect 18 0 15 1;
#X connect 19 0 3 0;
#X connect 21 0 23 0;
#X connect 23 0 11 0;
