#N canvas 418 292 530 579 10;
#X obj 76 131 osc~ 0.5;
#X obj 77 313 snapshot~;
#X obj 267 264 metro 10;
#X obj 269 241 tgl 15 0 empty empty empty 17 7 0 10 -262144 -1 -1 1
1;
#X obj 76 172 expr~ $v1>0;
#X floatatom 76 100 5 0 0 0 - - -;
#X floatatom 97 207 5 0 0 0 - - -;
#X obj 76 230 lop~ 3;
#X obj 173 127 noise~;
#X obj 172 191 *~ 0.1;
#X floatatom 194 217 5 0 0 0 - - -;
#X obj 173 240 lop~ 200;
#X floatatom 202 159 5 0 0 0 - - -;
#X obj 268 214 loadbang;
#X obj 76 11 ø.parameter frequency @type float @unit bpm;
#X obj 116 51 ø.parameter jitter @type float;
#X obj 76 34 / 60;
#X obj 309 467 ø.model breath;
#X obj 77 365 ø.parameter out @type float;
#X connect 0 0 4 0;
#X connect 1 0 18 0;
#X connect 2 0 1 0;
#X connect 3 0 2 0;
#X connect 4 0 7 0;
#X connect 5 0 0 0;
#X connect 6 0 7 1;
#X connect 7 0 1 0;
#X connect 8 0 9 0;
#X connect 9 0 11 0;
#X connect 10 0 11 1;
#X connect 11 0 1 0;
#X connect 12 0 9 1;
#X connect 13 0 3 0;
#X connect 14 0 16 0;
#X connect 16 0 5 0;
