#N canvas 0 23 495 631 10;
#X msg 236 465 next bang;
#X obj 236 497 clone -x player 16 bip;
#N canvas 325 257 636 301 audio/gain 0;
#X obj 113 200 outlet~;
#X obj 146 75 + 100;
#X obj 146 98 dbtorms;
#X msg 146 121 \$1 10;
#X obj 146 144 line~;
#X obj 113 11 inlet~;
#X obj 113 177 *~;
#X obj 146 41 ø.param audio/gain @unit dB @default -12 @range -96
-12 @clip both;
#X connect 1 0 2 0;
#X connect 2 0 3 0;
#X connect 3 0 4 0;
#X connect 4 0 6 1;
#X connect 5 0 6 0;
#X connect 6 0 0 0;
#X connect 7 0 1 0;
#X restore 236 520 pd audio/gain;
#X obj 236 543 outlet~;
#X obj 236 393 notein;
#X obj 211 182 fill_sample_list bip;
#X obj 236 433 stripnote;
#X connect 0 0 1 0;
#X connect 1 0 2 0;
#X connect 2 0 3 0;
#X connect 4 0 6 0;
#X connect 4 1 6 1;
#X connect 6 0 0 0;
