#N canvas 1279 226 450 521 10;
#X obj 126 339 metro 10;
#X obj 126 316 tgl 15 0 empty empty empty 17 7 0 10 -262144 -1 -1 1
1;
#X floatatom 55 125 5 0 0 0 - - -;
#X obj 131 83 noise~;
#X obj 130 147 *~ 0.1;
#X floatatom 152 173 5 0 0 0 - - -;
#X floatatom 160 115 5 0 0 0 - - -;
#X obj 55 147 phasor~ 0.5;
#X obj 55 170 *~ 512;
#X obj 126 288 loadbang;
#X obj 55 379 snapshot~;
#X obj 260 114 table pulse 512;
#X obj 262 194 loadbang;
#X msg 262 221 \; pulse read pulse.txt;
#X obj 54 256 tabread~ pulse;
#X msg 254 288 \; pulse write pulse.txt;
#X obj 55 103 / 60;
#X floatatom 54 74 5 0 0 0 - - -;
#X obj 131 196 lop~ 60;
#X obj 55 48 ø.parameter frequency @type float @unit bpm;
#X obj 258 353 ø.model ecg;
#X obj 55 437 ø.parameter out @type float;
#X connect 0 0 10 0;
#X connect 1 0 0 0;
#X connect 2 0 7 0;
#X connect 3 0 4 0;
#X connect 4 0 18 0;
#X connect 5 0 18 1;
#X connect 6 0 4 1;
#X connect 7 0 8 0;
#X connect 8 0 14 0;
#X connect 9 0 1 0;
#X connect 10 0 21 0;
#X connect 12 0 13 0;
#X connect 14 0 10 0;
#X connect 16 0 2 0;
#X connect 17 0 16 0;
#X connect 18 0 14 0;
#X connect 19 0 17 0;
