#N canvas 1279 226 450 561 10;
#X obj 126 287 metro 10;
#X obj 126 264 tgl 15 0 empty empty empty 17 7 0 10 -262144 -1 -1 1
1;
#X obj 82 393 f;
#X obj 82 416 + 1;
#X obj 55 350 t f b;
#X floatatom 55 73 5 0 0 0 - - -;
#X obj 131 31 noise~;
#X obj 130 95 *~ 0.1;
#X floatatom 152 121 5 0 0 0 - - -;
#X floatatom 160 63 5 0 0 0 - - -;
#X obj 55 499 tabwrite ECG;
#X obj 55 95 phasor~ 0.5;
#X obj 55 118 *~ 512;
#X obj 126 236 loadbang;
#X obj 55 327 snapshot~;
#X obj 260 62 table pulse 512;
#X obj 262 142 loadbang;
#X msg 262 169 \; pulse read pulse.txt;
#X obj 54 204 tabread~ pulse;
#X msg 254 236 \; pulse write pulse.txt;
#X floatatom 229 331 5 0 0 0 - - -;
#X floatatom 229 376 5 0 0 0 - - -;
#X obj 229 353 / 60;
#X obj 55 51 / 60;
#X floatatom 54 22 5 0 0 0 - - -;
#X obj 261 28 table ECG 512;
#X obj 82 439 % 512;
#X obj 131 144 lop~ 60;
#X connect 0 0 14 0;
#X connect 1 0 0 0;
#X connect 2 0 3 0;
#X connect 3 0 26 0;
#X connect 4 0 10 0;
#X connect 4 1 2 0;
#X connect 5 0 11 0;
#X connect 6 0 7 0;
#X connect 7 0 27 0;
#X connect 8 0 27 1;
#X connect 9 0 7 1;
#X connect 11 0 12 0;
#X connect 12 0 18 0;
#X connect 13 0 1 0;
#X connect 14 0 4 0;
#X connect 16 0 17 0;
#X connect 18 0 14 0;
#X connect 20 0 22 0;
#X connect 22 0 21 0;
#X connect 23 0 5 0;
#X connect 24 0 23 0;
#X connect 26 0 2 1;
#X connect 26 0 10 1;
#X connect 27 0 18 0;
