#N canvas 0 50 450 390 10;
#X obj 77 223 ggee/shell;
#X obj 77 63 ggee/getdir;
#X obj 75 40 bng 15 250 50 0 empty empty empty 17 7 0 10 -262144 -1
-1;
#X obj 77 169 pack s s;
#X obj 77 86 t a b b, f 30;
#X msg 254 126 clear;
#X obj 75 15 loadbang;
#X msg 147 222 1e+20;
#X obj 77 303 symbol;
#X msg 77 196 ls -1 \$1/sounds/\$2;
#X obj 77 252 pack s s s;
#X obj 77 134 t a a;
#X msg 77 275 \$2/sounds/\$3/\$1;
#X obj 122 117 symbol \$1;
#X obj 254 148 text define \$1-sample_list;
#X obj 77 339 text set \$1-sample_list;
#X connect 0 0 10 0;
#X connect 1 0 4 0;
#X connect 2 0 1 0;
#X connect 3 0 9 0;
#X connect 4 0 11 0;
#X connect 4 1 13 0;
#X connect 4 2 5 0;
#X connect 4 2 7 0;
#X connect 5 0 14 0;
#X connect 6 0 2 0;
#X connect 7 0 15 1;
#X connect 8 0 15 0;
#X connect 9 0 0 0;
#X connect 10 0 12 0;
#X connect 11 0 3 0;
#X connect 11 1 10 1;
#X connect 12 0 8 0;
#X connect 13 0 3 1;
#X connect 13 0 10 2;
