#N canvas 820 684 330 380 10;
#X obj 104 190 readsf~;
#X obj 104 41 inlet;
#X obj 104 121 random;
#X obj 70 37 bng 15 250 50 0 empty empty empty 17 7 0 10 -262144 -1
-1;
#X obj 104 98 t b f;
#X msg 104 167 open \$1 \, 1;
#X obj 39 189 print;
#X obj 104 281 outlet~;
#X obj 104 75 text size \$1-sample_list;
#X obj 104 144 text get \$1-sample_list;
#X obj 104 231 *~ 1;
#X connect 0 0 10 0;
#X connect 1 0 8 0;
#X connect 2 0 9 0;
#X connect 3 0 8 0;
#X connect 4 0 2 0;
#X connect 4 1 2 1;
#X connect 5 0 0 0;
#X connect 8 0 4 0;
#X connect 9 0 5 0;
#X connect 9 0 6 0;
#X connect 10 0 7 0;
