#N canvas 604 393 720 550 10;
#X obj 77 493 snapshot~;
#X obj 102 464 metro 10;
#X obj 102 444 tgl 15 0 empty empty empty 17 7 0 10 -262144 -1 -1 1
1;
#X floatatom 76 100 5 0 0 0 - - -;
#X floatatom 97 337 5 0 0 0 - - -;
#X obj 76 360 lop~ 3;
#X obj 102 424 loadbang;
#X obj 76 34 / 60;
#X obj 77 515 ø.parameter out @type float;
#X obj 222 458 ø.model SpO2;
#X floatatom 32 11 5 0 0 0 - - -;
#X obj 76 154 *~ 0.5;
#X obj 76 131 osc~;
#X obj 76 11 ø.parameter frequency @type float @unit bpm @default
60;
#N canvas 0 50 630 625 harm 0;
#X floatatom 146 90 5 0 0 0 - - -;
#X obj 146 54 * 2;
#X obj 146 121 osc~ 2;
#X floatatom 179 91 5 0 0 0 - - -;
#X obj 214 413 delread4~ spo2-harm;
#X obj 214 345 /;
#X msg 214 315 1000 \$1;
#X obj 214 368 t b f;
#X floatatom 107 314 5 0 0 0 - - -;
#X obj 214 389 * 1;
#X obj 145 191 delwrite~ spo2-harm 5000;
#X floatatom 205 121 5 0 0 0 - - -;
#X floatatom 203 142 5 0 0 0 - - -;
#X obj 107 271 ø.parameter phase @type float @clip both @range 0 1
@default 0.8;
#X obj 146 144 *~ 0.5;
#X obj 146 167 +~ 0.05;
#X obj 141 14 inlet;
#X obj 213 458 outlet~;
#X obj 372 365 ø.model harm;
#X obj 220 41 ø.param gain @default 0.5;
#X obj 230 71 ø.param offset @type float @range 0 1 @clip both @default
0.05;
#X connect 0 0 2 0;
#X connect 0 0 6 0;
#X connect 1 0 0 0;
#X connect 2 0 14 0;
#X connect 3 0 2 1;
#X connect 4 0 17 0;
#X connect 5 0 7 0;
#X connect 6 0 5 0;
#X connect 7 0 9 0;
#X connect 7 1 9 1;
#X connect 8 0 9 0;
#X connect 9 0 4 0;
#X connect 11 0 14 1;
#X connect 12 0 15 1;
#X connect 13 0 8 0;
#X connect 14 0 15 0;
#X connect 15 0 10 0;
#X connect 16 0 1 0;
#X connect 19 0 11 0;
#X connect 20 0 12 0;
#X restore 150 194 pd harm;
#N canvas 0 50 450 300 noise 0;
#X obj 31 69 noise~;
#X floatatom 73 152 5 0 0 0 - - -;
#X floatatom 63 111 5 0 0 0 - - -;
#X obj 30 133 *~ 2;
#X obj 31 182 lop~ 11;
#X obj 31 205 outlet~;
#X obj 185 202 ø.model noise;
#X obj 108 93 ø.param cutoff @unit Hz @range 0 100 @default 10;
#X obj 98 63 ø.param gain @default 2;
#X connect 0 0 3 0;
#X connect 1 0 4 1;
#X connect 2 0 3 1;
#X connect 3 0 4 0;
#X connect 4 0 5 0;
#X connect 7 0 1 0;
#X connect 8 0 2 0;
#X restore 89 392 pd noise;
#X connect 0 0 8 0;
#X connect 1 0 0 0;
#X connect 2 0 1 0;
#X connect 3 0 12 0;
#X connect 4 0 5 1;
#X connect 5 0 0 0;
#X connect 6 0 2 0;
#X connect 7 0 3 0;
#X connect 7 0 14 0;
#X connect 11 0 5 0;
#X connect 12 0 11 0;
#X connect 13 0 7 0;
#X connect 14 0 5 0;
#X connect 15 0 0 0;
