#N canvas 123 204 543 405 10;
#X obj 256 -5 ossia.parameter load @type string;
#X obj 260 114 symbol;
#X obj 305 155 ggee/getdir;
#X obj 260 175 pack s s;
#X obj 305 135 loadbang;
#X obj 374 114 bng 15 250 50 0 empty empty empty 17 7 0 10 -262144
-1 -1;
#X obj 374 114 bng 15 250 50 0 empty empty empty 17 7 0 10 -262144
-1 -1;
#X obj 389 182 print;
#X msg 260 200 read \$2/MIDI_samples/\$1;
#X obj 79 29 tgl 45 0 empty empty play -45 23 0 12 -24198 -1 -258699
0 1;
#X obj 97 356 midiout;
#X msg 255 72 2/1.mid;
#X msg 446 133 test.mid;
#X obj 449 268 ctlout 123;
#X msg 449 238 123;
#X obj 449 210 bng 15 250 50 0 empty empty all_notes_off 17 7 0 10
-258113 -257985 -1;
#N canvas 597 317 630 340 midifile 0;
#X obj 87 44 * 96;
#X obj 87 133 mrpeach/midifile;
#X obj 87 104 t b f;
#N canvas 1 108 413 618 passall 0;
#X floatatom 119 171 5 0 0 0 - - -;
#X obj 119 359 until;
#X floatatom 117 31 5 0 0 0 - - -;
#X obj 119 421 f;
#X obj 119 443 + 1;
#X obj 119 149 -;
#X floatatom 119 473 5 0 0 0 - - -;
#X obj 119 208 abs;
#X obj 119 188 t f f;
#X obj 210 213 > 0;
#X obj 210 235 sel 0, f 8;
#X msg 210 257 -1;
#X obj 119 251 moses 10;
#X msg 132 300 10;
#X obj 201 326 f;
#X obj 201 358 - 10;
#X obj 251 294 * 10;
#X obj 132 280 t b b;
#X floatatom 201 380 5 0 0 0 - - -;
#X obj 117 80 change;
#X obj 117 118 t f f f;
#X obj 117 8 inlet;
#X obj 119 492 outlet;
#X obj 117 50 int;
#X connect 0 0 8 0;
#X connect 1 0 3 0;
#X connect 2 0 23 0;
#X connect 3 0 4 0;
#X connect 4 0 3 1;
#X connect 4 0 6 0;
#X connect 5 0 0 0;
#X connect 6 0 22 0;
#X connect 7 0 12 0;
#X connect 8 0 7 0;
#X connect 8 1 9 0;
#X connect 9 0 10 0;
#X connect 10 0 11 0;
#X connect 10 1 4 1;
#X connect 10 1 16 0;
#X connect 11 0 4 1;
#X connect 11 0 16 0;
#X connect 12 0 1 0;
#X connect 12 1 17 0;
#X connect 13 0 1 0;
#X connect 14 0 15 0;
#X connect 15 0 3 1;
#X connect 15 0 18 0;
#X connect 16 0 15 1;
#X connect 17 0 13 0;
#X connect 17 1 14 0;
#X connect 19 0 20 0;
#X connect 20 0 5 1;
#X connect 20 1 5 0;
#X connect 20 2 14 1;
#X connect 21 0 2 0;
#X connect 23 0 19 0;
#X restore 87 82 pd passall;
#X floatatom 304 313 5 0 0 0 - - -;
#X obj 182 163 route ticks_per_quarternote microsec_per_quarternote
;
#X obj 336 205 / 1000;
#X obj 336 227 / 1000;
#X obj 304 261 / 0.5;
#X obj 541 243 / 120;
#X obj 304 283 * 1;
#X floatatom 539 217 5 0 0 0 bpm - -;
#X floatatom 541 265 5 0 0 0 - - -;
#X obj 87 213 outlet;
#X obj 233 78 inlet;
#X obj 87 15 inlet;
#X obj 49 13 bng 15 250 50 0 empty empty empty 17 7 0 10 -262144 -1
-1;
#X msg 173 65 1e+06;
#X obj 138 262 route bang;
#X obj 142 291 outlet;
#X connect 0 0 3 0;
#X connect 1 0 13 0;
#X connect 1 2 5 0;
#X connect 1 2 18 0;
#X connect 2 0 1 0;
#X connect 2 1 1 0;
#X connect 3 0 2 0;
#X connect 4 0 0 1;
#X connect 5 0 8 0;
#X connect 5 1 6 0;
#X connect 6 0 7 0;
#X connect 7 0 8 1;
#X connect 8 0 10 0;
#X connect 9 0 10 1;
#X connect 9 0 12 0;
#X connect 10 0 4 0;
#X connect 11 0 9 0;
#X connect 14 0 1 0;
#X connect 15 0 0 0;
#X connect 16 0 0 0;
#X connect 17 0 2 0;
#X connect 18 0 19 0;
#X restore 97 332 pd midifile;
#X obj 79 165 timer;
#X obj 79 124 t b b;
#X obj 79 101 metro 10;
#X obj 79 242 f;
#X obj 79 216 +;
#X floatatom 79 265 5 0 0 0 - - -;
#X obj 79 188 / 1000;
#X obj 80 78 t a a;
#X obj 173 126 sel 1;
#X msg 169 183 0;
#X obj 241 138 t b a b;
#X msg 148 -10 0;
#X msg 118 -12 1;
#X msg 315 72 2/2.mid;
#X msg 377 71 1/3.mid;
#X msg 436 72 1/4.mid;
#X connect 1 0 27 0;
#X connect 2 0 3 1;
#X connect 2 0 7 0;
#X connect 3 0 8 0;
#X connect 4 0 2 0;
#X connect 5 0 2 0;
#X connect 8 0 16 1;
#X connect 9 0 24 0;
#X connect 11 0 1 0;
#X connect 12 0 1 0;
#X connect 14 0 13 0;
#X connect 15 0 14 0;
#X connect 16 0 10 0;
#X connect 16 1 28 0;
#X connect 17 0 23 0;
#X connect 18 0 17 0;
#X connect 18 1 17 1;
#X connect 19 0 18 0;
#X connect 20 0 21 1;
#X connect 20 0 22 0;
#X connect 21 0 20 0;
#X connect 22 0 16 0;
#X connect 23 0 21 0;
#X connect 24 0 19 0;
#X connect 24 1 25 0;
#X connect 25 0 26 0;
#X connect 25 0 17 0;
#X connect 26 0 21 1;
#X connect 27 0 29 0;
#X connect 27 1 3 0;
#X connect 27 2 28 0;
#X connect 28 0 9 0;
#X connect 29 0 9 0;
#X connect 30 0 1 0;
#X connect 31 0 1 0;
#X connect 32 0 1 0;
