#N canvas 509 68 483 578 10;
#X declare -lib zexy;
#X obj 39 28 declare -lib zexy;
#X obj 87 199 route devicelist;
#X obj 87 241 route float;
#X obj 150 286 symbol2list;
#X obj 150 306 list2symbol _;
#X obj 150 266 unpack s 0;
#X obj 150 346 f;
#X floatatom 150 371 5 0 0 0 - - -;
#X obj 150 326 select \$1;
#X obj 247 241 route float;
#X obj 310 286 symbol2list;
#X obj 310 306 list2symbol _;
#X obj 310 266 unpack s 0;
#X obj 310 346 f;
#X floatatom 310 371 5 0 0 0 - - -;
#X obj 310 326 select \$2;
#X obj 87 220 route in out, f 54;
#X msg 87 133 device @in \$1;
#X msg 237 133 device @out \$1;
#X obj 23 64 loadbang;
#X msg 23 106 listdevices;
#X obj 163 478 list prepend midi-dialog;
#X obj 163 498 list trim;
#X obj 163 518 s pd;
#X obj 184 418 pack 0 0;
#X msg 163 458 0 0 0 0 0 0 0 0 \$1 \$2;
#X obj 163 438 list;
#X obj 23 152 t b a;
#X obj 310 391 t b f;
#X obj 23 85 del 1000;
#X obj 87 178 mediasettings/midisettings;
#X obj 23 367 t b b;
#X connect 1 0 16 0;
#X connect 2 1 5 0;
#X connect 3 0 4 0;
#X connect 4 0 8 0;
#X connect 5 0 3 0;
#X connect 5 1 6 1;
#X connect 6 0 7 0;
#X connect 7 0 24 0;
#X connect 8 0 6 0;
#X connect 9 1 12 0;
#X connect 10 0 11 0;
#X connect 11 0 15 0;
#X connect 12 0 10 0;
#X connect 12 1 13 1;
#X connect 13 0 14 0;
#X connect 14 0 28 0;
#X connect 15 0 13 0;
#X connect 16 0 2 0;
#X connect 16 1 9 0;
#X connect 17 0 30 0;
#X connect 18 0 30 0;
#X connect 19 0 29 0;
#X connect 20 0 27 0;
#X connect 21 0 22 0;
#X connect 22 0 23 0;
#X connect 24 0 26 1;
#X connect 25 0 21 0;
#X connect 26 0 25 0;
#X connect 27 0 31 0;
#X connect 27 1 30 0;
#X connect 28 0 24 0;
#X connect 28 1 24 1;
#X connect 29 0 20 0;
#X connect 30 0 1 0;
#X connect 31 0 26 0;
#X connect 31 1 24 0;
