#N canvas 1088 515 440 300 10;
#X obj 309 256 ø.model label.1;
#X obj 101 23 ø.remote text;
#X symbolatom 35 24 10 0 0 0 - - -;
#X obj 72 76 ø.remote text;
#X floatatom 36 77 5 0 0 0 - - -;
#X obj 54 190 pack;
#X obj 54 213 ø.remote position;
#X obj 54 106 unpack;
#X msg 54 129 set \$1;
#X msg 103 129 set \$1;
#X floatatom 54 154 5 0 0 0 - - -;
#X floatatom 103 154 5 0 0 0 - - -;
#X msg 309 227 address ecg.\$1;
#X obj 309 183 hradio 15 1 0 4 empty empty empty 0 -8 0 10 -262144
-1 -1 0;
#X obj 309 203 + 1;
#X msg 209 39 set \$1;
#X msg 258 39 set \$1;
#X floatatom 209 64 5 0 0 0 - - -;
#X floatatom 258 64 5 0 0 0 - - -;
#X obj 279 147 ø.remote color;
#X msg 308 39 set \$1;
#X floatatom 308 64 5 0 0 0 - - -;
#X msg 358 39 set \$1;
#X floatatom 358 64 5 0 0 0 - - -;
#X obj 209 16 unpack 0 0 0 0, f 25;
#X obj 279 119 pack 0 0 0 0;
#X obj 358 87 t b f;
#X obj 308 87 t b f;
#X obj 258 87 t b f;
#X connect 1 0 2 0;
#X connect 2 0 1 0;
#X connect 3 0 4 0;
#X connect 4 0 3 0;
#X connect 5 0 6 0;
#X connect 6 1 7 0;
#X connect 7 0 8 0;
#X connect 7 1 9 0;
#X connect 8 0 10 0;
#X connect 9 0 11 0;
#X connect 10 0 5 0;
#X connect 11 0 5 1;
#X connect 12 0 0 0;
#X connect 13 0 14 0;
#X connect 14 0 12 0;
#X connect 15 0 17 0;
#X connect 16 0 18 0;
#X connect 17 0 25 0;
#X connect 18 0 28 0;
#X connect 19 1 24 0;
#X connect 20 0 21 0;
#X connect 21 0 27 0;
#X connect 22 0 23 0;
#X connect 23 0 26 0;
#X connect 24 0 15 0;
#X connect 24 1 16 0;
#X connect 24 2 20 0;
#X connect 24 3 22 0;
#X connect 25 0 19 0;
#X connect 26 0 25 0;
#X connect 26 1 25 3;
#X connect 27 0 25 0;
#X connect 27 1 25 2;
#X connect 28 0 25 0;
#X connect 28 1 25 1;
