#N canvas 895 184 450 300 10;
#X msg 325 225 address ecg.\$1;
#X obj 325 181 hradio 15 1 0 4 empty empty empty 0 -8 0 10 -262144
-1 -1 0;
#X obj 325 201 + 1;
#X obj 138 57 ø.remote vbar_width;
#X floatatom 92 57 5 0 0 0 - - -;
#X obj 325 252 ø.view oscillo.*;
#X connect 0 0 5 0;
#X connect 1 0 2 0;
#X connect 2 0 0 0;
#X connect 3 0 4 0;
#X connect 4 0 3 0;
