#N canvas 1421 681 450 300 10;
#X obj 9 217 ø.client;
#X msg 49 67 connect tv;
#X obj 9 240 print;
#N canvas 0 50 450 300 ecg 0;
#X obj 212 214 ø.view ecg;
#X obj 180 91 label.view;
#X obj 275 148 oscillo.view;
#X obj 93 141 ø.remote enable;
#X obj 66 143 tgl 15 0 empty empty empty 17 7 0 10 -262144 -1 -1 0
1;
#X connect 3 0 4 0;
#X connect 4 0 3 0;
#X restore 168 144 pd ecg;
#N canvas 974 649 540 330 video 1;
#X obj 150 111 ø.remote load;
#X symbolatom 150 91 20 0 0 0 - - -;
#X msg 150 46 TV-pubs.mp4;
#X obj 150 69 symbol;
#X obj 93 141 ø.remote enable;
#X obj 66 143 tgl 15 0 empty empty empty 17 7 0 10 -262144 -1 -1 0
1;
#X msg 291 229 get global_address;
#X obj 302 301 print;
#X obj 302 272 ø.view video;
#X obj 76 239 ø.remote volume;
#X floatatom 34 237 5 0 0 0 - - -;
#X obj 82 276 ø.remote scale;
#X floatatom 40 274 5 0 0 0 - - -;
#X msg 309 49 set \$1;
#X msg 358 49 set \$1;
#X floatatom 309 74 5 0 0 0 - - -;
#X floatatom 358 74 5 0 0 0 - - -;
#X obj 349 187 ø.remote color;
#X msg 408 49 set \$1;
#X floatatom 408 74 5 0 0 0 - - -;
#X msg 458 49 set \$1;
#X floatatom 458 74 5 0 0 0 - - -;
#X obj 309 26 unpack 0 0 0 0, f 25;
#X obj 349 159 pack 0 0 0 0;
#X obj 458 97 t b f;
#X obj 408 97 t b f;
#X obj 358 97 t b f;
#X obj 66 173 tgl 15 0 empty empty empty 17 7 0 10 -262144 -1 -1 0
1;
#X obj 93 171 ø.remote play;
#X obj 17 88 pack;
#X obj 17 111 ø.remote position;
#X obj 17 -6 unpack;
#X msg 17 17 set \$1;
#X msg 66 17 set \$1;
#X floatatom 17 42 5 0 0 0 - - -;
#X floatatom 66 42 5 0 0 0 - - -;
#X obj 66 64 t b f;
#X msg 143 15 IRM-full.mp4;
#X connect 0 0 1 0;
#X connect 1 0 0 0;
#X connect 2 0 3 0;
#X connect 3 0 1 0;
#X connect 4 0 5 0;
#X connect 5 0 4 0;
#X connect 6 0 8 0;
#X connect 8 0 7 0;
#X connect 9 0 10 0;
#X connect 10 0 9 0;
#X connect 11 0 12 0;
#X connect 12 0 11 0;
#X connect 13 0 15 0;
#X connect 14 0 16 0;
#X connect 15 0 23 0;
#X connect 16 0 26 0;
#X connect 17 1 22 0;
#X connect 18 0 19 0;
#X connect 19 0 25 0;
#X connect 20 0 21 0;
#X connect 21 0 24 0;
#X connect 22 0 13 0;
#X connect 22 1 14 0;
#X connect 22 2 18 0;
#X connect 22 3 20 0;
#X connect 23 0 17 0;
#X connect 24 0 23 0;
#X connect 24 1 23 3;
#X connect 25 0 23 0;
#X connect 25 1 23 2;
#X connect 26 0 23 0;
#X connect 26 1 23 1;
#X connect 27 0 28 0;
#X connect 28 0 27 0;
#X connect 29 0 30 0;
#X connect 30 1 31 0;
#X connect 31 0 32 0;
#X connect 31 1 33 0;
#X connect 32 0 34 0;
#X connect 33 0 35 0;
#X connect 34 0 29 0;
#X connect 35 0 36 0;
#X connect 36 0 29 0;
#X connect 36 1 29 1;
#X connect 37 0 3 0;
#X restore 140 197 pd video;
#N canvas 1370 342 450 300 shader 0;
#X obj 104 61 ø.remote alpha;
#X floatatom 68 62 5 0 0 0 - - -;
#X obj 129 237 ø.remote anchor;
#X obj 129 215 pack;
#X obj 129 121 unpack;
#X msg 129 144 set \$1;
#X msg 178 144 set \$1;
#X floatatom 129 169 5 0 0 0 - - -;
#X floatatom 178 169 5 0 0 0 - - -;
#X obj 178 191 t b f;
#X floatatom 68 32 5 0 0 0 - - -;
#X obj 104 31 ø.remote beta;
#X obj 352 187 ø.view shader;
#X floatatom 238 62 5 0 0 0 - - -;
#X floatatom 238 32 5 0 0 0 - - -;
#X obj 274 61 ø.remote freq;
#X obj 274 31 ø.remote amplitude;
#X connect 0 0 1 0;
#X connect 1 0 0 0;
#X connect 2 1 4 0;
#X connect 3 0 2 0;
#X connect 4 0 5 0;
#X connect 4 1 6 0;
#X connect 5 0 7 0;
#X connect 6 0 8 0;
#X connect 7 0 3 0;
#X connect 8 0 9 0;
#X connect 9 0 3 0;
#X connect 9 1 3 1;
#X connect 10 0 11 0;
#X connect 11 0 10 0;
#X connect 13 0 15 0;
#X connect 14 0 16 0;
#X connect 15 0 13 0;
#X connect 16 0 14 0;
#X restore 282 143 pd shader;
#X msg 49 149 namespace;
#X msg 19 27 connect raspberrypi;
#X msg 29 47 connect ecg;
#X obj 233 49 ø.remote preset/load;
#X obj 233 27 bng 15 250 50 0 empty empty empty 17 7 0 10 -262144 -1
-1;
#X obj 233 77 bng 15 250 50 0 empty empty empty 17 7 0 10 -262144 -1
-1;
#X obj 233 99 ø.remote preset/save;
#N canvas 862 683 540 300 images 0;
#X obj 192 175 hradio 15 1 0 4 empty empty empty 0 -8 0 10 -262144
-1 -1 0;
#X obj 192 195 + 1;
#X obj 71 183 ø.remote load;
#X obj 71 159 symbol;
#X obj 192 246 ø.view images;
#X msg 192 219 address image.\$1;
#X msg 71 124 sop1.png;
#X symbolatom 59 208 10 0 0 0 - - -;
#X obj 71 259 ø.remote scale;
#X floatatom 31 258 5 0 0 0 - - -;
#X obj 170 102 pack;
#X obj 170 125 ø.remote position;
#X obj 170 8 unpack;
#X msg 170 31 set \$1;
#X msg 219 31 set \$1;
#X floatatom 170 56 5 0 0 0 - - -;
#X floatatom 219 56 5 0 0 0 - - -;
#X obj 219 78 t b f;
#X msg 314 76 set \$1;
#X msg 363 76 set \$1;
#X floatatom 314 101 5 0 0 0 - - -;
#X floatatom 363 101 5 0 0 0 - - -;
#X obj 354 214 ø.remote color;
#X msg 413 76 set \$1;
#X floatatom 413 101 5 0 0 0 - - -;
#X msg 463 76 set \$1;
#X floatatom 463 101 5 0 0 0 - - -;
#X obj 314 53 unpack 0 0 0 0, f 25;
#X obj 354 186 pack 0 0 0 0;
#X obj 463 124 t b f;
#X obj 413 124 t b f;
#X obj 363 124 t b f;
#X msg 168 154 0 0;
#X msg 6 124 sop3.png;
#X obj 59 230 print load;
#X obj 47 51 ø.remote enable;
#X obj 25 51 tgl 15 0 empty empty empty 17 7 0 10 -262144 -1 -1 0 1
;
#X msg 15 91 cartels/fourfor.jpg;
#X msg 3 27 chrono/000.jpg;
#X connect 0 0 1 0;
#X connect 1 0 5 0;
#X connect 2 0 7 0;
#X connect 3 0 2 0;
#X connect 5 0 4 0;
#X connect 6 0 3 0;
#X connect 7 0 2 0;
#X connect 7 0 34 0;
#X connect 8 0 9 0;
#X connect 9 0 8 0;
#X connect 10 0 11 0;
#X connect 11 0 32 0;
#X connect 11 1 12 0;
#X connect 12 0 13 0;
#X connect 12 1 14 0;
#X connect 13 0 15 0;
#X connect 14 0 16 0;
#X connect 15 0 10 0;
#X connect 16 0 17 0;
#X connect 17 0 10 0;
#X connect 17 1 10 1;
#X connect 18 0 20 0;
#X connect 19 0 21 0;
#X connect 20 0 28 0;
#X connect 21 0 31 0;
#X connect 22 1 27 0;
#X connect 23 0 24 0;
#X connect 24 0 30 0;
#X connect 25 0 26 0;
#X connect 26 0 29 0;
#X connect 27 0 18 0;
#X connect 27 1 19 0;
#X connect 27 2 23 0;
#X connect 27 3 25 0;
#X connect 28 0 22 0;
#X connect 29 0 28 0;
#X connect 29 1 28 3;
#X connect 30 0 28 0;
#X connect 30 1 28 2;
#X connect 31 0 28 0;
#X connect 31 1 28 1;
#X connect 33 0 3 0;
#X connect 35 0 36 0;
#X connect 36 0 35 0;
#X connect 37 0 3 0;
#X connect 38 0 3 0;
#X restore 139 221 pd images;
#X msg 56 187 disconnect;
#X obj 253 251 ø.remote add_string;
#X obj 251 227 symbol;
#X msg 250 200 Hellow world!;
#X msg 59 87 connect irm;
#X msg 69 107 connect cartel;
#N canvas 60 717 450 300 label 1;
#X obj 192 175 hradio 15 1 0 4 empty empty empty 0 -8 0 10 -262144
-1 -1 2;
#X obj 192 195 + 1;
#X obj 192 246 ø.view label;
#X msg 192 219 address label.\$1;
#X obj 168 108 ø.remote text;
#X obj 166 84 symbol;
#X msg 166 57 truc;
#X symbolatom 168 131 10 0 0 0 - - -;
#X msg 194 28 sdqs;
#X connect 0 0 1 0;
#X connect 1 0 3 0;
#X connect 3 0 2 0;
#X connect 4 0 7 0;
#X connect 5 0 4 0;
#X connect 6 0 5 0;
#X connect 8 0 5 0;
#X restore 136 244 pd label;
#X msg 9 7 connect oscquery ws://192.168.32.12:5678;
#N canvas 60 717 450 300 number 0;
#X obj 192 175 hradio 15 1 0 4 empty empty empty 0 -8 0 10 -262144
-1 -1 0;
#X obj 192 195 + 1;
#X obj 168 108 ø.remote text;
#X obj 166 84 symbol;
#X msg 166 57 truc;
#X symbolatom 168 131 10 0 0 0 - - -;
#X msg 194 28 sdqs;
#X msg 192 219 address number.\$1;
#X obj 192 246 ø.view number;
#X floatatom 248 27 5 0 0 0 - - -;
#X connect 0 0 1 0;
#X connect 1 0 7 0;
#X connect 2 0 5 0;
#X connect 3 0 2 0;
#X connect 4 0 3 0;
#X connect 6 0 3 0;
#X connect 7 0 8 0;
#X connect 9 0 2 0;
#X restore 136 270 pd number;
#X connect 0 0 2 0;
#X connect 1 0 0 0;
#X connect 6 0 0 0;
#X connect 7 0 0 0;
#X connect 8 0 0 0;
#X connect 10 0 9 0;
#X connect 11 0 12 0;
#X connect 14 0 0 0;
#X connect 16 0 15 0;
#X connect 17 0 16 0;
#X connect 18 0 0 0;
#X connect 19 0 0 0;
#X connect 21 0 0 0;
