#N canvas 322 134 755 546 10;
#X obj 60 102 ossia.device score-trigger;
#X obj 60 61 loadbang;
#X msg 60 82 expose oscquery 1340 5684;
#X obj 289 425 ossia.parameter trigger @type int;
#X msg 289 395 1;
#X msg 321 395 0;
#X obj 321 375 del 50;
#X obj 289 344 t b b;
#X obj 289 136 bng 200 250 50 0 empty empty empty 17 7 0 10 -258113
-1 -1;
#X obj 288 1 notein;
#X obj 288 102 stripnote;
#X obj 21 465 ../common/selectMidiDevice Launch_Control_XL Launch_Control_XL
;
#X obj 517 155 noteout;
#X floatatom 241 133 5 0 0 0 - - -;
#X floatatom 556 92 5 0 0 0 - - -;
#X obj 516 24 sel 0 127;
#X msg 516 51 15;
#X msg 546 51 60;
#X msg 499 102 76;
#X obj 288 77 i;
#X obj 288 29 route;
#X obj 288 52 t b;
#X obj 353 32 nbx 5 14 -1e+37 1e+37 0 0 empty empty empty 0 -8 0 10
-262144 -1 -1 76 256;
#X connect 1 0 2 0;
#X connect 2 0 0 0;
#X connect 4 0 3 0;
#X connect 5 0 3 0;
#X connect 6 0 5 0;
#X connect 7 0 4 0;
#X connect 7 1 6 0;
#X connect 8 0 7 0;
#X connect 9 0 20 0;
#X connect 9 1 10 1;
#X connect 9 1 15 0;
#X connect 9 2 14 0;
#X connect 10 0 13 0;
#X connect 10 0 8 0;
#X connect 14 0 12 2;
#X connect 15 0 16 0;
#X connect 15 1 17 0;
#X connect 16 0 12 1;
#X connect 17 0 12 1;
#X connect 18 0 12 0;
#X connect 19 0 10 0;
#X connect 19 0 12 0;
#X connect 20 0 21 0;
#X connect 21 0 19 0;
#X connect 22 0 19 1;
#X connect 22 0 20 1;
