#N canvas 574 614 240 325 10;
#X obj 16 5 midiin;
#X obj 24 101 loadbang;
#X obj 16 291 midiout;
#X obj 16 28 list prepend send;
#X obj 16 51 list trim;
#X msg 96 101 disconnect;
#X floatatom 155 11 5 0 0 0 - - -;
#X obj 16 198 del 1000;
#X obj 16 74 spigot;
#X obj 16 170 sel 0;
#X msg 24 124 connect 192.168.32.255 5656;
#X obj 16 147 netsend;
#X obj 16 268 netreceive 5657;
#X connect 0 0 3 0;
#X connect 1 0 10 0;
#X connect 3 0 4 0;
#X connect 4 0 8 0;
#X connect 5 0 11 0;
#X connect 6 0 3 0;
#X connect 7 0 5 0;
#X connect 8 0 11 0;
#X connect 9 0 7 0;
#X connect 9 1 8 1;
#X connect 10 0 11 0;
#X connect 11 0 9 0;
#X connect 12 0 2 0;
