#N canvas 209 193 873 518 10;
#X declare -lib cyclone;
#X obj 56 35 midiin;
#X obj 64 191 loadbang;
#X obj 56 341 midiout;
#X obj 56 118 list prepend send;
#X obj 56 141 list trim;
#X msg 136 191 disconnect;
#X floatatom 152 11 5 0 0 0 - - -;
#X obj 56 288 del 1000;
#X obj 56 164 spigot;
#X obj 56 260 sel 0;
#X obj 113 360 spigot;
#X obj 146 340 tgl 15 0 empty empty empty 17 7 0 10 -262144 -1 -1 0
1;
#X obj 113 381 print received-midi;
#X obj 140 263 spigot;
#X obj 173 243 tgl 15 0 empty empty empty 17 7 0 10 -262144 -1 -1 0
1;
#X obj 140 284 print send-midi;
#N canvas 0 23 450 300 filter 0;
#X obj 159 173 midiparse, f 33;
#N canvas 8 116 644 418 delay_noteoff 0;
#X obj 129 58 inlet;
#X obj 127 325 outlet;
#X obj 129 79 t a a;
#X msg 261 103 \$2;
#X obj 128 182 spigot;
#X obj 268 202 spigot;
#X obj 261 124 > 0;
#X obj 301 124 == 0;
#X msg 268 223 \$1;
#X msg 268 270 \$1 0;
#X floatatom 316 226 5 0 0 0 - - -;
#X obj 128 203 unpack;
#X obj 128 271 pack 0 0;
#X obj 161 243 min 127;
#X floatatom 185 185 5 0 0 0 - - -;
#X text 311 164 note off delay;
#X text 311 174 ta compensate physical solenoid latency on noteon;
#X text 52 242 add some velocity;
#X obj 268 249 pipe 150;
#X obj 161 223 + 0;
#X connect 0 0 2 0;
#X connect 2 0 4 0;
#X connect 2 0 5 0;
#X connect 2 1 3 0;
#X connect 3 0 6 0;
#X connect 3 0 7 0;
#X connect 4 0 11 0;
#X connect 5 0 8 0;
#X connect 6 0 4 1;
#X connect 7 0 5 1;
#X connect 8 0 18 0;
#X connect 9 0 1 0;
#X connect 10 0 18 1;
#X connect 11 0 12 0;
#X connect 11 1 19 0;
#X connect 12 0 1 0;
#X connect 13 0 12 1;
#X connect 14 0 19 1;
#X connect 18 0 9 0;
#X connect 19 0 13 0;
#X restore 159 197 pd delay_noteoff;
#X obj 160 139 inlet;
#X obj 159 221 midiformat, f 33;
#X obj 159 242 outlet;
#X obj 271 106 inlet;
#X connect 0 0 1 0;
#X connect 0 1 3 1;
#X connect 0 2 3 2;
#X connect 0 3 3 3;
#X connect 0 4 3 4;
#X connect 0 5 3 5;
#X connect 0 6 3 6;
#X connect 1 0 3 0;
#X connect 2 0 0 0;
#X connect 3 0 4 0;
#X connect 5 0 3 0;
#X restore 56 71 pd filter;
#X obj 62 450 declare -lib cyclone;
#X obj 56 237 netsend;
#X obj 56 318 netreceive 5656;
#X msg 64 214 connect 192.168.32.11 5657;
#X obj 25 270 tgl 15 0 empty empty empty 17 7 0 10 -262144 -1 -1 1
1;
#X obj 62 420 ../common/selectMidiDevice disklavier_netsend disklavier_netreceive
;
#X text 174 73 MIDI in : netsend;
#X text 174 93 MIDI out : netreceive;
#X obj 152 30 makenote 64 250;
#X obj 152 51 pack;
#X msg 209 6 60;
#X obj 388 439 poly 16 1;
#X obj 293 60 bng 15 250 50 0 empty empty empty 17 7 0 10 -262144 -1
-1;
#X obj 293 60 bng 15 250 50 0 empty empty empty 17 7 0 10 -262144 -1
-1;
#X obj 388 221 + 1;
#X obj 388 197 i;
#X msg 415 347 1;
#X msg 462 346 -1;
#X msg 447 116 21;
#X obj 388 90 tgl 15 0 empty empty empty 17 7 0 10 -262144 -1 -1 0
1;
#X obj 388 257 t f f;
#X floatatom 347 345 5 0 0 0 - - -;
#X obj 413 462 pack;
#X obj 388 398 makenote 64 250;
#X obj 388 114 metro 10;
#X obj 388 158 t b b;
#X obj 448 186 random 100;
#X obj 448 228 sel 1;
#X obj 448 247 f 1;
#X obj 448 267 * -1;
#X obj 415 299 < 22;
#X obj 415 319 sel 1;
#X obj 465 319 sel 1;
#X obj 465 299 > 107;
#X obj 448 207 < 5;
#X obj 518 146 random 1000;
#X obj 518 258 + 5;
#X obj 518 167 / 1000;
#X floatatom 518 281 5 0 0 0 - - -;
#X obj 518 232 * 30;
#X obj 518 213 *;
#X msg 518 191 \$1 \$1;
#X obj 579 84 ossia.device bug_disklavier;
#X obj 579 44 loadbang;
#X obj 388 65 ossia.parameter bug @type bool;
#X msg 579 64 expose oscquery 1239 5683;
#X connect 0 0 16 0;
#X connect 1 0 20 0;
#X connect 3 0 4 0;
#X connect 4 0 8 0;
#X connect 4 0 13 0;
#X connect 5 0 18 0;
#X connect 6 0 25 0;
#X connect 7 0 20 0;
#X connect 8 0 18 0;
#X connect 9 0 7 0;
#X connect 9 1 8 1;
#X connect 10 0 12 0;
#X connect 11 0 10 1;
#X connect 13 0 15 0;
#X connect 14 0 13 1;
#X connect 16 0 3 0;
#X connect 18 0 9 0;
#X connect 18 0 21 0;
#X connect 19 0 2 0;
#X connect 19 0 10 0;
#X connect 20 0 18 0;
#X connect 25 0 26 0;
#X connect 25 1 26 1;
#X connect 26 0 16 1;
#X connect 27 0 25 0;
#X connect 28 1 39 0;
#X connect 28 2 39 1;
#X connect 29 0 6 0;
#X connect 31 0 37 0;
#X connect 31 0 32 1;
#X connect 32 0 31 0;
#X connect 33 0 31 1;
#X connect 33 0 45 1;
#X connect 34 0 31 1;
#X connect 34 0 45 1;
#X connect 35 0 32 1;
#X connect 36 0 41 0;
#X connect 37 0 38 0;
#X connect 37 0 40 0;
#X connect 37 1 47 0;
#X connect 37 1 50 0;
#X connect 39 0 16 1;
#X connect 40 0 28 0;
#X connect 40 1 28 1;
#X connect 41 0 42 0;
#X connect 42 0 32 0;
#X connect 42 1 43 0;
#X connect 42 1 52 0;
#X connect 43 0 51 0;
#X connect 44 0 45 0;
#X connect 45 0 46 0;
#X connect 46 0 31 1;
#X connect 47 0 48 0;
#X connect 48 0 33 0;
#X connect 49 0 34 0;
#X connect 50 0 49 0;
#X connect 51 0 44 0;
#X connect 52 0 54 0;
#X connect 53 0 41 1;
#X connect 53 0 55 0;
#X connect 54 0 58 0;
#X connect 56 0 53 0;
#X connect 57 0 56 0;
#X connect 58 0 57 0;
#X connect 60 0 62 0;
#X connect 61 0 36 0;
#X connect 62 0 59 0;
