#N canvas 523 94 278 454 10;
#X declare -lib cyclone;
#X obj 46 25 midiin;
#X obj 54 181 loadbang;
#X obj 46 331 midiout;
#X obj 46 108 list prepend send;
#X obj 46 131 list trim;
#X msg 126 181 disconnect;
#X floatatom 94 26 5 0 0 0 - - -;
#X obj 46 278 del 1000;
#X obj 46 154 spigot;
#X obj 46 250 sel 0;
#X obj 103 350 spigot;
#X obj 136 330 tgl 15 0 empty empty empty 17 7 0 10 -262144 -1 -1 0
1;
#X obj 103 371 print received-midi;
#X obj 130 253 spigot;
#X obj 163 233 tgl 15 0 empty empty empty 17 7 0 10 -262144 -1 -1 0
1;
#X obj 130 274 print send-midi;
#N canvas 0 23 450 300 midisettings 0;
#X obj 83 57 loadbang;
#X obj 83 78 bng 15 250 50 0 empty empty empty 17 7 0 10 -262144 -1
-1;
#X obj 83 122 list prepend midi-dialog;
#X obj 83 144 list trim;
#X obj 83 166 s pd;
#X msg 83 100 0 0 0 0 0 0 0 0 1 2;
#X connect 0 0 1 0;
#X connect 1 0 5 0;
#X connect 2 0 3 0;
#X connect 3 0 4 0;
#X connect 5 0 2 0;
#X restore 53 408 pd midisettings;
#N canvas 0 23 450 300 filter 0;
#X obj 159 173 midiparse, f 33;
#N canvas 8 116 644 418 delay_noteoff 0;
#X obj 129 58 inlet;
#X obj 127 325 outlet;
#X obj 129 79 t a a;
#X msg 261 103 \$2;
#X obj 128 182 spigot;
#X obj 268 202 spigot;
#X obj 261 124 > 0;
#X obj 301 124 == 0;
#X msg 268 223 \$1;
#X msg 268 270 \$1 0;
#X floatatom 316 226 5 0 0 0 - - -;
#X obj 128 203 unpack;
#X obj 128 271 pack 0 0;
#X obj 161 243 min 127;
#X floatatom 185 185 5 0 0 0 - - -;
#X obj 161 223 + 20;
#X text 311 164 note off delay;
#X text 311 174 ta compensate physical solenoid latency on noteon;
#X text 52 242 add some velocity;
#X obj 268 249 pipe 150;
#X connect 0 0 2 0;
#X connect 2 0 4 0;
#X connect 2 0 5 0;
#X connect 2 1 3 0;
#X connect 3 0 6 0;
#X connect 3 0 7 0;
#X connect 4 0 11 0;
#X connect 5 0 8 0;
#X connect 6 0 4 1;
#X connect 7 0 5 1;
#X connect 8 0 19 0;
#X connect 9 0 1 0;
#X connect 10 0 19 1;
#X connect 11 0 12 0;
#X connect 11 1 15 0;
#X connect 12 0 1 0;
#X connect 13 0 12 1;
#X connect 14 0 15 1;
#X connect 15 0 13 0;
#X connect 19 0 9 0;
#X restore 159 197 pd delay_noteoff;
#X obj 160 139 inlet;
#X obj 159 221 midiformat, f 33;
#X obj 159 242 outlet;
#X connect 0 0 1 0;
#X connect 0 1 3 1;
#X connect 0 2 3 2;
#X connect 0 3 3 3;
#X connect 0 4 3 4;
#X connect 0 5 3 5;
#X connect 0 6 3 6;
#X connect 1 0 3 0;
#X connect 2 0 0 0;
#X connect 3 0 4 0;
#X restore 46 61 pd filter;
#X obj 53 431 declare -lib cyclone;
#X obj 46 227 netsend;
#X obj 46 308 netreceive 5656;
#X msg 54 204 connect 192.168.32.11 5657;
#X connect 0 0 17 0;
#X connect 1 0 21 0;
#X connect 3 0 4 0;
#X connect 4 0 8 0;
#X connect 4 0 13 0;
#X connect 5 0 19 0;
#X connect 6 0 3 0;
#X connect 7 0 21 0;
#X connect 8 0 19 0;
#X connect 9 0 7 0;
#X connect 9 1 8 1;
#X connect 10 0 12 0;
#X connect 11 0 10 1;
#X connect 13 0 15 0;
#X connect 14 0 13 1;
#X connect 17 0 3 0;
#X connect 19 0 9 0;
#X connect 20 0 2 0;
#X connect 20 0 10 0;
#X connect 21 0 19 0;
