#N canvas 642 78 634 698 10;
#X declare -path nusmuk-audio;
#X text 242 158 \$1 : fader CC -> pitch;
#X text 242 178 \$2 : rot enc CC -> volume;
#X obj 55 120 / 127;
#X text 242 199 \$3 : button CC -> cut;
#X text 242 219 \$4 : lower freq;
#X text 242 238 \$5 : higher freq;
#X floatatom 55 269 5 0 0 0 - - -;
#X obj 115 301 ftom;
#X floatatom 115 324 5 0 0 0 - - -;
#X obj 56 685 *~;
#X obj 56 708 outlet~;
#X obj 258 420 > 0;
#X obj 258 442 tgl 15 0 empty empty empty 17 7 0 10 -262144 -1 -1 1
1;
#X msg 258 462 \$1 10;
#X obj 258 485 line~;
#X obj 139 21 loadbang;
#X obj 55 143 *;
#X obj 55 180 +;
#X obj 119 109 -;
#X floatatom 119 132 5 0 0 0 - - -;
#X obj 55 95 inlet;
#X obj 168 240 inlet;
#X obj 258 395 inlet;
#X obj 159 78 \$2;
#X obj 186 78 \$1;
#X obj 139 44 t b b b;
#N canvas 0 23 450 300 volume 0;
#X floatatom 189 92 5 0 0 0 - - -;
#X obj 132 34 hsl 128 15 0 127 0 0 empty empty empty -2 -8 0 10 -262144
-1 -1 0 1;
#X obj 129 62 / 127;
#X obj 129 99 * 40;
#X obj 129 134 + 60;
#X floatatom 137 242 5 0 0 0 - - -;
#X obj 129 163 moses 70;
#X obj 113 191 - 60;
#X obj 113 212 * 7;
#X obj 129 13 inlet;
#X obj 138 266 outlet;
#X connect 1 0 2 0;
#X connect 2 0 0 0;
#X connect 2 0 3 0;
#X connect 3 0 4 0;
#X connect 4 0 6 0;
#X connect 5 0 10 0;
#X connect 6 0 7 0;
#X connect 6 1 5 0;
#X connect 7 0 8 0;
#X connect 8 0 5 0;
#X connect 9 0 1 0;
#X restore 168 313 pd volume mappng;
#X floatatom 177 340 5 0 0 0 - - -;
#X text 242 258 \$6 : pitch scale;
#X obj 55 304 / 1;
#X obj 207 123 inlet;
#X obj 304 352 loadbang;
#X msg 304 373 1;
#N canvas 17 231 716 547 VCO 0;
#X obj 29 125 line~;
#X msg 29 105 \$1 20;
#N canvas 485 241 672 540 pwm~ 0;
#X obj 62 99 phasor~;
#X obj 63 36 inlet~;
#X obj 235 149 +~;
#X obj 251 41 inlet~;
#X obj 234 175 wrap~;
#X obj 317 304 sig~ 22050;
#X obj 317 261 samplerate~;
#X obj 317 209 loadbang;
#X obj 317 284 * 0.5;
#X obj 63 482 -~;
#X obj 63 510 outlet~;
#X obj 436 341 loadbang;
#X obj 436 404 table \$0-lookup 2;
#X obj 436 383 s \$0-lookup;
#X msg 436 362 0 0 1;
#X msg 327 234 bang;
#N canvas 315 401 852 607 sinc-phasor 0;
#X obj 173 131 -~ 0.5;
#X obj 421 192 *~ 2;
#X obj 459 191 /~;
#X obj 421 219 *~;
#X obj 422 241 abs~;
#X obj 421 263 +~ 1.8955;
#X obj 174 427 +~;
#N canvas 104 50 701 480 sin(x)/x 0;
#X obj 220 229 cos~;
#X obj 221 204 -~ 0.25;
#X msg 288 90 1;
#X floatatom 288 162 5 0 0 0 - - -;
#X obj 288 116 atan;
#X obj 288 137 * 8;
#X obj 220 181 /~ 6.238;
#X obj 288 67 loadbang;
#X obj 221 148 inlet~;
#X obj 219 291 outlet~;
#X obj 220 255 /~;
#X connect 0 0 10 0;
#X connect 1 0 0 0;
#X connect 2 0 4 0;
#X connect 3 0 6 1;
#X connect 4 0 5 0;
#X connect 5 0 3 0;
#X connect 6 0 1 0;
#X connect 7 0 2 0;
#X connect 8 0 6 0;
#X connect 8 0 10 1;
#X connect 10 0 9 0;
#X restore 421 293 pd sin(x)/x;
#X text 208 426 + v3;
#X obj 175 333 tabread~ \$0-lookup;
#X obj 174 311 +~ 1;
#X obj 127 78 inlet~;
#X text 123 53 phasor~;
#X obj 433 71 inlet~;
#X obj 510 72 inlet~;
#X text 506 47 SR;
#X text 429 46 freq;
#X obj 109 486 outlet~;
#X obj 328 217 wrap~;
#X obj 329 243 *~ 2;
#X obj 329 268 -~ 1;
#X obj 330 392 *~;
#X text 357 387 v2*sin(v4)/v4;
#X obj 110 460 -~;
#X connect 0 0 1 0;
#X connect 0 0 10 0;
#X connect 0 0 18 0;
#X connect 1 0 3 0;
#X connect 2 0 3 1;
#X connect 3 0 4 0;
#X connect 4 0 5 0;
#X connect 5 0 7 0;
#X connect 6 0 23 0;
#X connect 7 0 21 1;
#X connect 9 0 6 0;
#X connect 10 0 9 0;
#X connect 11 0 0 0;
#X connect 11 0 23 1;
#X connect 13 0 2 1;
#X connect 14 0 2 0;
#X connect 18 0 19 0;
#X connect 19 0 20 0;
#X connect 20 0 21 0;
#X connect 21 0 6 1;
#X connect 23 0 17 0;
#X restore 235 419 pd sinc-phasor;
#N canvas 307 425 852 607 sinc-phasor 0;
#X obj 173 131 -~ 0.5;
#X obj 421 192 *~ 2;
#X obj 459 191 /~;
#X obj 421 219 *~;
#X obj 422 241 abs~;
#X obj 421 263 +~ 1.8955;
#X obj 174 427 +~;
#N canvas 102 83 701 480 sin(x)/x 0;
#X obj 220 229 cos~;
#X obj 221 204 -~ 0.25;
#X msg 288 90 1;
#X floatatom 288 162 5 0 0 0 - - -;
#X obj 288 116 atan;
#X obj 288 137 * 8;
#X obj 220 181 /~ 6.238;
#X obj 288 67 loadbang;
#X obj 221 148 inlet~;
#X obj 219 291 outlet~;
#X obj 220 255 /~;
#X connect 0 0 10 0;
#X connect 1 0 0 0;
#X connect 2 0 4 0;
#X connect 3 0 6 1;
#X connect 4 0 5 0;
#X connect 5 0 3 0;
#X connect 6 0 1 0;
#X connect 7 0 2 0;
#X connect 8 0 6 0;
#X connect 8 0 10 1;
#X connect 10 0 9 0;
#X restore 421 293 pd sin(x)/x;
#X text 208 426 + v3;
#X obj 175 333 tabread~ \$0-lookup;
#X obj 174 311 +~ 1;
#X obj 127 78 inlet~;
#X text 123 53 phasor~;
#X obj 433 71 inlet~;
#X obj 510 72 inlet~;
#X text 506 47 SR;
#X text 429 46 freq;
#X obj 109 486 outlet~;
#X obj 328 217 wrap~;
#X obj 329 243 *~ 2;
#X obj 329 268 -~ 1;
#X obj 330 392 *~;
#X text 357 387 v2*sin(v4)/v4;
#X obj 110 460 -~;
#X connect 0 0 1 0;
#X connect 0 0 10 0;
#X connect 0 0 18 0;
#X connect 1 0 3 0;
#X connect 2 0 3 1;
#X connect 3 0 4 0;
#X connect 4 0 5 0;
#X connect 5 0 7 0;
#X connect 6 0 23 0;
#X connect 7 0 21 1;
#X connect 9 0 6 0;
#X connect 10 0 9 0;
#X connect 11 0 0 0;
#X connect 11 0 23 1;
#X connect 13 0 2 1;
#X connect 14 0 2 0;
#X connect 18 0 19 0;
#X connect 19 0 20 0;
#X connect 20 0 21 0;
#X connect 21 0 6 1;
#X connect 23 0 17 0;
#X restore 62 420 pd sinc-phasor;
#X obj 235 442 *~;
#X obj 486 36 inlet;
#X connect 0 0 2 0;
#X connect 0 0 17 0;
#X connect 1 0 0 0;
#X connect 1 0 16 1;
#X connect 1 0 17 1;
#X connect 2 0 4 0;
#X connect 3 0 2 1;
#X connect 4 0 16 0;
#X connect 5 0 16 2;
#X connect 5 0 17 2;
#X connect 6 0 8 0;
#X connect 7 0 6 0;
#X connect 8 0 5 0;
#X connect 9 0 10 0;
#X connect 11 0 14 0;
#X connect 14 0 13 0;
#X connect 15 0 6 0;
#X connect 16 0 18 0;
#X connect 17 0 9 0;
#X connect 18 0 9 1;
#X connect 19 0 18 1;
#X restore 30 355 pd pwm~;
#X obj 105 44 r VCO_pwm;
#X obj 105 64 / 127;
#X msg 105 84 \$1 20;
#X obj 105 104 line~;
#X obj 368 86 r VCO_tri_square;
#X obj 104 144 -~ 0.5;
#X obj 241 438 *~;
#X obj 368 111 == 0;
#X obj 104 125 /~ 2;
#X obj 31 440 *~;
#X obj 47 398 -~ 1;
#X obj 47 416 abs~;
#X obj 240 415 *~ 0.5;
#X obj 241 356 phasor~;
#X obj 241 394 cos~;
#X obj 241 375 +~ 0.37;
#X obj 31 513 outlet~;
#X obj 30 492 *~ 2;
#X obj 347 156 *~ 1;
#X obj 29 64 inlet freq;
#X connect 0 0 2 0;
#X connect 0 0 16 0;
#X connect 1 0 0 0;
#X connect 2 0 12 0;
#X connect 3 0 4 0;
#X connect 4 0 5 0;
#X connect 5 0 6 0;
#X connect 6 0 11 0;
#X connect 6 0 21 0;
#X connect 7 0 2 2;
#X connect 7 0 10 0;
#X connect 8 0 2 1;
#X connect 9 0 20 0;
#X connect 10 0 21 1;
#X connect 11 0 8 0;
#X connect 12 0 20 0;
#X connect 13 0 14 0;
#X connect 14 0 12 1;
#X connect 15 0 9 0;
#X connect 16 0 18 0;
#X connect 17 0 15 0;
#X connect 18 0 17 0;
#X connect 20 0 19 0;
#X connect 21 0 9 1;
#X connect 21 0 13 0;
#X connect 22 0 1 0;
#X restore 26 417 pd VCO;
#N canvas 410 274 647 447 VCF 0;
#X obj 220 172 mtof;
#X obj 220 194 bq_coef_lop;
#N canvas 1 91 450 300 5_lines~ 0;
#X obj 80 123 line~;
#X obj 79 147 outlet~;
#X obj 80 71 inlet;
#X obj 136 123 line~;
#X obj 135 147 outlet~;
#X obj 136 73 inlet;
#X obj 193 123 line~;
#X obj 192 147 outlet~;
#X obj 193 73 inlet;
#X obj 247 123 line~;
#X obj 246 147 outlet~;
#X obj 247 73 inlet;
#X obj 304 123 line~;
#X obj 303 147 outlet~;
#X obj 304 73 inlet;
#X msg 193 96 \$1 20;
#X msg 304 99 \$1 25;
#X msg 247 99 \$1 25;
#X msg 136 98 \$1 25;
#X msg 80 97 \$1 25;
#X connect 0 0 1 0;
#X connect 2 0 19 0;
#X connect 3 0 4 0;
#X connect 5 0 18 0;
#X connect 6 0 7 0;
#X connect 8 0 15 0;
#X connect 9 0 10 0;
#X connect 11 0 17 0;
#X connect 12 0 13 0;
#X connect 14 0 16 0;
#X connect 15 0 6 0;
#X connect 16 0 12 0;
#X connect 17 0 9 0;
#X connect 18 0 3 0;
#X connect 19 0 0 0;
#X restore 220 215 pd 5_lines~;
#X obj 42 279 bq~ ---------;
#X obj 43 68 inlet~;
#X obj 43 312 outlet~;
#X obj 283 118 / 127;
#X obj 283 158 * 50;
#X obj 283 138 pow 4;
#X obj 220 70 inlet;
#X obj 283 96 inlet q;
#X connect 0 0 1 0;
#X connect 1 0 2 0;
#X connect 1 1 2 1;
#X connect 1 2 2 2;
#X connect 1 3 2 3;
#X connect 1 4 2 4;
#X connect 2 0 3 1;
#X connect 2 1 3 2;
#X connect 2 2 3 3;
#X connect 2 3 3 4;
#X connect 2 4 3 5;
#X connect 3 0 5 0;
#X connect 4 0 3 0;
#X connect 6 0 8 0;
#X connect 7 0 1 1;
#X connect 8 0 7 0;
#X connect 9 0 0 0;
#X connect 10 0 6 0;
#X restore 26 456 pd VCF;
#N canvas 867 378 413 400 disto1 0;
#X obj 39 47 inlet~;
#X obj 40 286 outlet~;
#X obj 143 110 / 127;
#X obj 143 47 r disto;
#X obj 199 48 r disto1_A;
#X obj 56 81 r disto1_B;
#X obj 143 174 *;
#X obj 40 154 +~;
#X obj 56 130 line~;
#X msg 56 105 \$1 20;
#X obj 143 132 pow 2;
#X obj 199 69 t b f;
#X obj 143 152 * 1.5;
#X obj 39 246 distortion~;
#X obj 106 204 hip~ 1000;
#X obj 40 204 lop~ 1000;
#X connect 0 0 7 0;
#X connect 2 0 10 0;
#X connect 3 0 2 0;
#X connect 4 0 11 0;
#X connect 5 0 9 0;
#X connect 6 0 13 1;
#X connect 7 0 15 0;
#X connect 7 0 14 0;
#X connect 8 0 7 1;
#X connect 9 0 8 0;
#X connect 10 0 12 0;
#X connect 11 0 2 0;
#X connect 11 1 6 1;
#X connect 12 0 6 0;
#X connect 13 0 1 0;
#X connect 14 0 1 0;
#X connect 15 0 13 0;
#X restore 26 436 pd disto1;
#N canvas 772 582 402 396 disto2 0;
#X obj 39 47 inlet~;
#X obj 40 275 outlet~;
#X obj 143 110 / 127;
#X obj 143 47 r disto;
#X obj 143 174 *;
#X obj 40 154 +~;
#X obj 56 130 line~;
#X msg 56 105 \$1 20;
#X obj 56 81 r disto2_B;
#X obj 199 46 r disto2_A;
#X obj 143 132 pow 2;
#X obj 199 69 t b f;
#X obj 143 152 * 1.5;
#X obj 39 234 distortion~;
#X obj 106 204 hip~ 1000;
#X obj 40 204 lop~ 1000;
#X connect 0 0 5 0;
#X connect 2 0 10 0;
#X connect 3 0 2 0;
#X connect 4 0 13 1;
#X connect 5 0 15 0;
#X connect 5 0 14 0;
#X connect 6 0 5 1;
#X connect 7 0 6 0;
#X connect 8 0 7 0;
#X connect 9 0 11 0;
#X connect 10 0 12 0;
#X connect 11 0 2 0;
#X connect 11 1 4 1;
#X connect 12 0 4 0;
#X connect 13 0 1 0;
#X connect 14 0 13 0;
#X connect 15 0 13 0;
#X restore 27 476 pd disto2;
#X obj 27 494 hip~ 15;
#X obj 27 513 hip~ 15;
#X obj 27 532 hip~ 15;
#X obj 27 550 *~ 0.5;
#N canvas 1 95 450 300 VCA 0;
#X obj 28 259 outlet~;
#X obj 26 23 inlet~;
#X obj 82 48 r VCA;
#X obj 82 71 / 127;
#X obj 82 92 t f f;
#X obj 82 113 *;
#X obj 82 157 line~;
#X obj 27 196 *~;
#X obj 222 29 inlet~;
#X obj 28 231 *~;
#X obj 221 82 *~;
#X msg 82 135 \$1 20;
#X connect 1 0 7 0;
#X connect 2 0 3 0;
#X connect 3 0 4 0;
#X connect 4 0 5 0;
#X connect 4 1 5 1;
#X connect 5 0 11 0;
#X connect 6 0 7 1;
#X connect 7 0 9 0;
#X connect 8 0 10 1;
#X connect 8 0 10 0;
#X connect 9 0 0 0;
#X connect 10 0 9 1;
#X connect 11 0 6 0;
#X restore 27 574 pd VCA;
#N canvas 1 137 450 300 ADSR 0;
#X obj 53 169 ADSR -------;
#X obj 70 58 r ADSR_A;
#X obj 87 78 r ADSR_D;
#X obj 104 98 r ADSR_S;
#X obj 122 118 r ADSR_R;
#X obj 53 34 r on_off;
#X msg 53 189 \$1 5;
#X obj 53 211 line~;
#X obj 53 236 outlet~;
#X obj 104 137 / 127;
#X obj 124 237 outlet;
#X connect 0 0 6 0;
#X connect 0 0 10 0;
#X connect 1 0 0 1;
#X connect 2 0 0 2;
#X connect 3 0 9 0;
#X connect 4 0 0 4;
#X connect 5 0 0 0;
#X connect 6 0 7 0;
#X connect 7 0 8 0;
#X connect 9 0 0 3;
#X restore 110 382 pd ADSR;
#X obj 360 628 block~ 128 1 2;
#X obj 26 598 lop~ 15000;
#X obj 346 66 declare -path nusmuk-audio;
#X connect 2 0 16 0;
#X connect 6 0 7 0;
#X connect 6 0 29 0;
#X connect 7 0 8 0;
#X connect 9 0 10 0;
#X connect 11 0 12 0;
#X connect 12 0 13 0;
#X connect 13 0 14 0;
#X connect 14 0 9 1;
#X connect 15 0 25 0;
#X connect 16 0 17 0;
#X connect 17 0 6 0;
#X connect 18 0 16 1;
#X connect 18 0 19 0;
#X connect 20 0 2 0;
#X connect 21 0 26 0;
#X connect 22 0 11 0;
#X connect 23 0 18 0;
#X connect 24 0 18 1;
#X connect 24 0 17 1;
#X connect 25 0 2 0;
#X connect 25 1 23 0;
#X connect 25 2 24 0;
#X connect 26 0 27 0;
#X connect 26 0 34 1;
#X connect 29 0 33 0;
#X connect 30 0 29 1;
#X connect 31 0 32 0;
#X connect 32 0 11 0;
#X connect 33 0 35 0;
#X connect 34 0 36 0;
#X connect 35 0 34 0;
#X connect 36 0 37 0;
#X connect 37 0 38 0;
#X connect 38 0 39 0;
#X connect 39 0 40 0;
#X connect 40 0 41 0;
#X connect 41 0 44 0;
#X connect 42 0 41 1;
#X connect 44 0 9 0;
