#N canvas 0 23 450 300 10;
#X floatatom 53 82 5 0 0 0 - - -;
#X obj 53 107 / 1.27;
#X obj 276 169 moses 50;
#X obj 112 237 t b;
#X obj 130 337 -;
#X msg 158 309 81.17;
#X msg 130 309 189;
#X obj 92 377 *;
#X obj 145 399 +;
#X floatatom 145 421 5 0 0 0 - - -;
#X obj 144 276 t b b;
#X obj 144 253 loadbang;
#X floatatom 53 132 5 0 0 0 - - -;
#X obj 504 346 -;
#X obj 456 383 *;
#X obj 509 405 +;
#X floatatom 509 427 5 0 0 0 - - -;
#X obj 508 282 t b b;
#X obj 508 259 loadbang;
#X obj 456 252 t b;
#X obj 398 168 moses 70;
#X floatatom 261 221 5 0 0 0 - - -;
#X obj 283 259 - 50;
#X floatatom 333 491 5 0 0 0 - - -;
#X obj 336 169 moses 60;
#X obj 335 199 t b;
#X msg 330 274 0;
#X obj 363 282 / 10;
#X obj 363 259 - 60;
#X obj 349 332 t b;
#X msg 349 353 1;
#X obj 148 200 t b;
#X msg 148 221 1;
#X floatatom 120 496 5 0 0 0 - - -;
#X obj 53 37 inlet;
#X obj 330 555 outlet;
#X obj 103 554 outlet;
#X obj 108 529 * 0.127;
#X msg 494 315 1000;
#X msg 538 315 415.4;
#X floatatom 408 397 5 0 0 0 - - -;
#X obj 456 336 * -1;
#X obj 456 356 + 1;
#X floatatom 549 204 5 0 0 0 - - -;
#X floatatom 437 193 5 0 0 0 - - -;
#X obj 476 168 moses 90;
#X msg 456 272 90;
#X obj 456 294 - 90;
#X obj 456 315 / 10;
#X obj 83 169 moses 20;
#X obj 23 169 moses 10;
#X msg 23 241 0;
#X obj 23 220 t b;
#X obj 89 196 bng 15 250 50 0 empty empty empty 17 7 0 10 -262144 -1
-1;
#X obj 37 196 bng 15 250 50 0 empty empty empty 17 7 0 10 -262144 -1
-1;
#X obj 209 226 bng 15 250 50 0 empty empty empty 17 7 0 10 -262144
-1 -1;
#X obj 179 199 bng 15 250 50 0 empty empty empty 17 7 0 10 -262144
-1 -1;
#X obj 73 237 - 10;
#X obj 83 297 / 10;
#X msg 112 257 10;
#X obj 146 169 moses 45;
#X obj 283 280 / -5;
#X connect 0 0 1 0;
#X connect 1 0 12 0;
#X connect 2 0 21 0;
#X connect 2 0 22 0;
#X connect 2 0 3 0;
#X connect 2 0 55 0;
#X connect 2 1 24 0;
#X connect 3 0 59 0;
#X connect 4 0 7 1;
#X connect 5 0 4 1;
#X connect 5 0 8 1;
#X connect 6 0 4 0;
#X connect 7 0 8 0;
#X connect 8 0 9 0;
#X connect 9 0 33 0;
#X connect 10 0 6 0;
#X connect 10 1 5 0;
#X connect 11 0 10 0;
#X connect 12 0 50 0;
#X connect 13 0 14 1;
#X connect 14 0 15 0;
#X connect 15 0 16 0;
#X connect 16 0 33 0;
#X connect 17 0 38 0;
#X connect 17 1 39 0;
#X connect 18 0 17 0;
#X connect 19 0 46 0;
#X connect 20 0 28 0;
#X connect 20 0 19 0;
#X connect 20 1 45 0;
#X connect 22 0 61 0;
#X connect 23 0 35 0;
#X connect 24 0 25 0;
#X connect 24 1 20 0;
#X connect 25 0 26 0;
#X connect 26 0 23 0;
#X connect 27 0 23 0;
#X connect 28 0 27 0;
#X connect 29 0 30 0;
#X connect 30 0 23 0;
#X connect 31 0 32 0;
#X connect 32 0 23 0;
#X connect 33 0 37 0;
#X connect 34 0 0 0;
#X connect 37 0 36 0;
#X connect 38 0 13 0;
#X connect 39 0 13 1;
#X connect 39 0 15 1;
#X connect 41 0 42 0;
#X connect 42 0 14 0;
#X connect 45 0 29 0;
#X connect 45 0 19 0;
#X connect 45 0 44 0;
#X connect 45 1 29 0;
#X connect 45 1 43 0;
#X connect 45 1 47 0;
#X connect 46 0 47 0;
#X connect 47 0 48 0;
#X connect 48 0 40 0;
#X connect 48 0 41 0;
#X connect 49 0 31 0;
#X connect 49 0 53 0;
#X connect 49 0 57 0;
#X connect 49 1 60 0;
#X connect 50 0 52 0;
#X connect 50 0 54 0;
#X connect 50 1 49 0;
#X connect 51 0 58 0;
#X connect 52 0 51 0;
#X connect 57 0 58 0;
#X connect 58 0 7 0;
#X connect 59 0 58 0;
#X connect 60 0 3 0;
#X connect 60 0 31 0;
#X connect 60 0 56 0;
#X connect 60 1 2 0;
#X connect 61 0 23 0;
