#N canvas 0 23 706 684 10;
#X obj 113 113 unpack;
#X floatatom 146 139 5 0 0 1 signal_strength - -;
#X floatatom 303 329 5 0 0 0 - - -;
#X obj 254 367 t f f;
#X obj 254 390 * 127;
#X obj 224 289 clip 30 50;
#X obj 253 320 - 30;
#X obj 253 345 / 20;
#X obj 256 578 line;
#X obj 437 67 timer;
#X obj 437 47 t b b;
#X floatatom 437 168 5 0 0 0 - - -;
#X obj 437 127 int;
#X obj 437 147 / 10;
#X obj 437 107 * 10;
#X obj 437 87 puremapping/iir 50;
#X msg 256 553 \$1 10;
#X obj 375 459 puremapping/iir 5;
#X floatatom 253 227 5 0 0 0 - - -;
#X floatatom 294 228 5 0 0 0 - - -;
#X obj 303 282 -;
#X obj 263 251 t b f;
#X obj 256 601 outlet;
#X obj 113 259 moses \$2;
#X obj 113 236 moses \$5;
#X obj 251 163 loadbang;
#X obj 251 186 i \$3;
#X obj 287 185 i \$4;
#X obj 378 360 loadbang;
#X obj 378 381 f \$6;
#X obj 113 207 puremapping/resample 10;
#X obj 378 402 == 0;
#X obj 254 411 spigot;
#X obj 300 369 tgl 15 0 empty empty empty 17 7 0 10 -262144 -1 -1 0
1;
#X obj 300 369 tgl 15 0 empty empty empty 17 7 0 10 -262144 -1 -1 0
1;
#X obj 375 433 spigot;
#X obj 418 402 > 0;
#X floatatom 190 340 5 0 0 1 - - -;
#X obj 215 429 t b f;
#X obj 288 457 > 100;
#X floatatom 336 575 5 0 0 1 signal_strength - -;
#X floatatom 326 613 5 0 0 1 signal_strength - -;
#X obj 256 515 spigot;
#X msg 186 512 127;
#X obj 187 489 sel 0;
#X obj 578 139 inlet;
#X obj 113 91 inlet;
#X obj 437 190 outlet;
#X connect 0 0 10 0;
#X connect 0 0 30 0;
#X connect 0 1 1 0;
#X connect 0 1 38 0;
#X connect 3 0 4 0;
#X connect 4 0 32 0;
#X connect 4 0 35 0;
#X connect 5 0 6 0;
#X connect 5 0 37 0;
#X connect 6 0 2 0;
#X connect 6 0 7 0;
#X connect 7 0 3 0;
#X connect 8 0 22 0;
#X connect 8 0 41 0;
#X connect 9 0 15 0;
#X connect 10 0 9 0;
#X connect 10 1 9 1;
#X connect 11 0 47 0;
#X connect 12 0 13 0;
#X connect 13 0 11 0;
#X connect 14 0 12 0;
#X connect 15 0 14 0;
#X connect 16 0 8 0;
#X connect 17 0 42 0;
#X connect 18 0 5 1;
#X connect 18 0 6 1;
#X connect 18 0 21 0;
#X connect 19 0 5 2;
#X connect 19 0 20 0;
#X connect 20 0 7 1;
#X connect 21 0 20 0;
#X connect 21 1 20 1;
#X connect 23 1 5 0;
#X connect 24 0 23 0;
#X connect 25 0 26 0;
#X connect 25 0 27 0;
#X connect 26 0 18 0;
#X connect 27 0 19 0;
#X connect 28 0 29 0;
#X connect 29 0 31 0;
#X connect 29 0 17 1;
#X connect 29 0 36 0;
#X connect 30 0 24 0;
#X connect 31 0 35 0;
#X connect 31 0 32 1;
#X connect 32 0 42 0;
#X connect 34 0 32 1;
#X connect 35 0 17 0;
#X connect 36 0 35 1;
#X connect 38 1 39 0;
#X connect 39 0 42 1;
#X connect 39 0 44 0;
#X connect 42 0 16 0;
#X connect 42 0 40 0;
#X connect 43 0 16 0;
#X connect 44 0 43 0;
#X connect 45 0 39 1;
#X connect 46 0 0 0;
