#N canvas 324 39 1052 755 10;
#X obj 15 166 hsl 128 15 0 127 0 0 empty empty empty -2 -8 0 10 -262144
-1 -1 12700 1;
#X obj 30 202 hsl 128 15 0 127 0 0 empty empty empty -2 -8 0 10 -262144
-1 -1 0 1;
#X text 110 149 pitch;
#X text 117 187 volume;
#X obj 188 209 tgl 15 0 empty empty empty 17 7 0 10 -262144 -1 -1 1
1;
#X text 16 514 low limit : distance en cm en dessous de laquelle les
valeurs sont ignoreés \,;
#X text 16 593 high clip : distance en cm au dessus de laquelle les
valeurs sont constantes;
#X text 16 553 low clip : distance en cm en dessous de laquelle les
valeurs sont constantes;
#X text 17 631 high limit : distance en cm au dessus de laquelle les
valeurs sont ignoreés \,;
#X obj 267 339 dac~ 1 2;
#X obj 270 228 hsl 128 15 0 127 0 0 empty empty empty -2 -8 0 10 -262144
-1 -1 5276 1;
#X obj 280 258 hsl 128 15 0 127 0 0 empty empty empty -2 -8 0 10 -262144
-1 -1 0 1;
#X text 364 208 pitch;
#X text 370 242 volume;
#X obj 429 266 tgl 15 0 empty empty empty 17 7 0 10 -262144 -1 -1 1
1;
#X obj 817 279 dac~ 1 2;
#X obj 820 168 hsl 128 15 0 127 0 0 empty empty empty -2 -8 0 10 -262144
-1 -1 0 1;
#X obj 830 198 hsl 128 15 0 127 0 0 empty empty empty -2 -8 0 10 -262144
-1 -1 0 1;
#X text 916 152 pitch;
#X text 921 182 volume;
#X obj 974 198 tgl 15 0 empty empty empty 17 7 0 10 -262144 -1 -1 0
1;
#X text 4 492 receiveLidar <port> <low limit> <low clip> <high clip>
<high limit> <smooth>, f 78;
#X text 17 672 smooth : valeur de lissage \, plus c'est élevé \,
plus c'est lissé;
#X obj 34 136 min 100;
#X obj 34 86 * -1;
#X obj 34 107 + 127;
#X obj 22 318 ctlout 0;
#X obj 55 340 ctlout 1;
#X text 187 192 on;
#X text 428 249 on;
#X text 972 183 on;
#X obj 278 368 ctlout 2;
#X obj 287 393 ctlout 3;
#X obj 829 311 ctlout 4;
#X obj 838 336 ctlout 5;
#X obj 307 126 min 100;
#X obj 307 85 * -1;
#X obj 307 106 + 127;
#X obj 827 132 min 100;
#X obj 827 88 * -1;
#X obj 827 109 + 127;
#X text 20 705 ctlout = n° de controleurs midi sur lesquels les valeurs
st envoyées;
#X obj 16 282 dac~ 1 2, f 9;
#X text 16 456 valeurs receiveLidar Imaginary Landscape : 3331 22 27
55 12000 5 // 3332 22 30 50 12000 0;
#X text 497 475 MODE D’EMPLOI VILLERETTE > VCV connecter le routeur
à l’ordi PD lancer villerette.pd configurer audio vers carte son
MAC : lancer config audio et midi fenetre / afficher le studio midi
ds iAC driver / cliquer sur « le periph est connecté » redemarrer
PD paramètres midi /choisir « iac driver « comme periph de sortie
VCV ajouter un midi cc choisir IAC driver bus 1 les modules apparaissent
channel par channel;
#X obj 506 668 ctlin;
#X floatatom 491 715 5 0 0 0 - - -;
#X floatatom 556 715 5 0 0 0 - - -;
#X text 11 411 valeurs pitch vinyl_synth Imaginary landscape 1 : 999.75
/ 2337, f 65;
#X text 11 431 valeurs pitch vinyl_synth Imaginary landscape 2 : 415.4
/ 1000 et 81.17 / 189, f 77;
#X obj 818 239 vinyl_synth 0 1000;
#X obj 827 65 receiveLidar 3336 22 30 70 12000 5;
#X obj 818 32 receiveLidar 3334 22 30 70 12000 5;
#X obj 818 438 hsl 128 15 0 127 0 0 empty empty empty -2 -8 0 10 -262144
-1 -1 0 1;
#N canvas 654 88 540 593 mapping 0;
#X floatatom 83 92 5 0 0 0 - - -;
#X obj 83 117 / 1.27;
#X obj 146 169 moses 40;
#X obj 206 169 moses 50;
#X obj 112 237 t b;
#X obj 158 348 -;
#X msg 158 309 81.17;
#X msg 130 309 189;
#X obj 92 377 *;
#X obj 145 399 +;
#X floatatom 145 421 5 0 0 0 - - -;
#X obj 144 276 t b b;
#X obj 144 253 loadbang;
#X floatatom 83 142 5 0 0 0 - - -;
#X obj 434 346 -;
#X obj 386 383 *;
#X obj 439 405 +;
#X floatatom 439 427 5 0 0 0 - - -;
#X obj 438 282 t b b;
#X obj 438 259 loadbang;
#X obj 386 252 t b;
#X obj 328 168 moses 70;
#X floatatom 191 221 5 0 0 0 - - -;
#X obj 213 259 - 50;
#X floatatom 263 491 5 0 0 0 - - -;
#X obj 266 169 moses 60;
#X obj 265 199 t b;
#X msg 260 274 0;
#X obj 293 282 / 10;
#X obj 213 280 / -10;
#X obj 293 259 - 60;
#X obj 279 332 t b;
#X msg 279 353 1;
#X obj 148 200 t b;
#X msg 148 221 1;
#X floatatom 120 496 5 0 0 0 - - -;
#X obj 83 47 inlet;
#X obj 260 555 outlet;
#X obj 103 554 outlet;
#X obj 108 529 * 0.127;
#X obj 406 168 moses 80;
#X msg 386 272 80;
#X obj 386 294 - 80;
#X msg 424 315 1000;
#X msg 468 315 415.4;
#X obj 386 315 / 20;
#X floatatom 338 397 5 0 0 0 - - -;
#X obj 386 336 * -1;
#X obj 386 356 + 1;
#X obj 83 169 moses 10;
#X msg 112 257 10;
#X obj 83 297 / 10;
#X connect 0 0 1 0;
#X connect 1 0 13 0;
#X connect 2 0 4 0;
#X connect 2 0 33 0;
#X connect 2 1 3 0;
#X connect 3 0 22 0;
#X connect 3 0 23 0;
#X connect 3 0 4 0;
#X connect 3 1 25 0;
#X connect 4 0 50 0;
#X connect 5 0 8 1;
#X connect 6 0 5 1;
#X connect 6 0 9 1;
#X connect 7 0 5 0;
#X connect 8 0 9 0;
#X connect 9 0 10 0;
#X connect 10 0 35 0;
#X connect 11 0 7 0;
#X connect 11 1 6 0;
#X connect 12 0 11 0;
#X connect 13 0 49 0;
#X connect 14 0 15 1;
#X connect 15 0 16 0;
#X connect 16 0 17 0;
#X connect 17 0 35 0;
#X connect 18 0 43 0;
#X connect 18 1 44 0;
#X connect 19 0 18 0;
#X connect 20 0 41 0;
#X connect 21 0 30 0;
#X connect 21 0 20 0;
#X connect 21 1 40 0;
#X connect 23 0 29 0;
#X connect 24 0 37 0;
#X connect 25 0 26 0;
#X connect 25 1 21 0;
#X connect 26 0 27 0;
#X connect 27 0 24 0;
#X connect 28 0 24 0;
#X connect 29 0 24 0;
#X connect 30 0 28 0;
#X connect 31 0 32 0;
#X connect 32 0 24 0;
#X connect 33 0 34 0;
#X connect 34 0 24 0;
#X connect 35 0 39 0;
#X connect 36 0 0 0;
#X connect 39 0 38 0;
#X connect 40 0 31 0;
#X connect 40 0 20 0;
#X connect 40 1 31 0;
#X connect 40 1 42 0;
#X connect 41 0 42 0;
#X connect 42 0 45 0;
#X connect 43 0 14 0;
#X connect 44 0 14 1;
#X connect 44 0 16 1;
#X connect 45 0 46 0;
#X connect 45 0 47 0;
#X connect 47 0 48 0;
#X connect 48 0 15 0;
#X connect 49 0 33 0;
#X connect 49 0 51 0;
#X connect 49 1 2 0;
#X connect 50 0 51 0;
#X connect 51 0 8 0;
#X restore 267 149 pd mapping;
#X obj 267 300 vinyl_synth 0 1000;
#X obj 294 205 *;
#X floatatom 349 157 5 0 0 0 - - -;
#X floatatom 228 204 5 0 0 0 - - -;
#X floatatom 224 127 5 0 0 0 - - -;
#X obj 305 177 t b f;
#X obj 277 42 hsl 128 15 0 127 0 0 empty empty empty -2 -8 0 10 -262144
-1 -1 12700 1;
#X floatatom 404 170 5 0 0 0 - - -;
#X floatatom 76 86 5 0 0 0 - - -;
#X obj 582 197 loadbang;
#X msg 582 218 \; pd dsp 1;
#X floatatom 250 101 5 0 0 0 - - -;
#X obj 267 20 receiveLidar 3333 20 20 70 12000 5;
#X obj 16 35 receiveLidar 3331 22 30 80 12000 2;
#X obj 34 65 receiveLidar 3332 22 30 80 12000 5;
#X obj 307 65 receiveLidar 3335 22 30 70 12000 2;
#X obj 544 285 ctlin 8;
#X obj 593 285 ctlin 9;
#X obj 494 285 ctlin 7;
#X floatatom 492 320 5 0 0 0 - - -;
#X floatatom 557 320 5 0 0 0 - - -;
#X floatatom 594 318 5 0 0 0 - - -;
#X obj 45 242 vinyl_synth 999.75 2337 4;
#X obj 163 123 loadbang;
#X obj 452 161 loadbang;
#X msg 452 184 2;
#X msg 172 171 8;
#X connect 0 0 26 0;
#X connect 0 0 77 0;
#X connect 1 0 27 0;
#X connect 1 0 77 1;
#X connect 4 0 77 3;
#X connect 10 0 31 0;
#X connect 10 0 55 0;
#X connect 11 0 32 0;
#X connect 11 0 55 1;
#X connect 14 0 55 3;
#X connect 16 0 33 0;
#X connect 16 0 50 0;
#X connect 17 0 34 0;
#X connect 17 0 50 1;
#X connect 20 0 50 2;
#X connect 23 0 1 0;
#X connect 24 0 25 0;
#X connect 25 0 23 0;
#X connect 35 0 56 0;
#X connect 36 0 37 0;
#X connect 37 0 35 0;
#X connect 38 0 17 0;
#X connect 39 0 40 0;
#X connect 40 0 38 0;
#X connect 45 0 46 0;
#X connect 45 1 47 0;
#X connect 50 0 15 0;
#X connect 50 0 15 1;
#X connect 51 0 39 0;
#X connect 52 0 16 0;
#X connect 54 0 10 0;
#X connect 54 0 58 0;
#X connect 54 1 57 0;
#X connect 54 1 60 0;
#X connect 55 0 9 1;
#X connect 56 0 11 0;
#X connect 59 0 54 0;
#X connect 60 0 56 0;
#X connect 60 1 56 1;
#X connect 62 0 10 0;
#X connect 64 0 65 0;
#X connect 67 0 61 0;
#X connect 67 0 54 0;
#X connect 67 0 66 0;
#X connect 68 0 0 0;
#X connect 69 0 24 0;
#X connect 69 0 63 0;
#X connect 70 0 36 0;
#X connect 71 0 75 0;
#X connect 72 0 76 0;
#X connect 73 0 74 0;
#X connect 77 0 42 0;
#X connect 78 0 81 0;
#X connect 79 0 80 0;
#X connect 80 0 55 2;
#X connect 81 0 77 2;
