#N canvas 605 152 1017 587 10;
#X declare -lib ossia;
#X obj 15 166 hsl 128 15 0 127 0 0 empty empty empty -2 -8 0 10 -262144
-1 -1 0 1;
#X obj 30 202 hsl 128 15 0 127 0 0 empty empty empty -2 -8 0 10 -262144
-1 -1 0 1;
#X text 110 149 pitch;
#X text 117 187 volume;
#X obj 188 209 tgl 15 0 empty empty empty 17 7 0 10 -262144 -1 -1 1
1;
#X obj 267 339 dac~ 1 2;
#X obj 270 228 hsl 128 15 0 127 0 0 empty empty empty -2 -8 0 10 -262144
-1 -1 900 1;
#X obj 280 258 hsl 128 15 0 127 0 0 empty empty empty -2 -8 0 10 -262144
-1 -1 11900 1;
#X text 364 208 pitch;
#X text 370 242 volume;
#X obj 429 266 tgl 15 0 empty empty empty 17 7 0 10 -262144 -1 -1 1
1;
#X obj 543 265 hsl 128 15 0 127 0 0 empty empty empty -2 -8 0 10 -262144
-1 -1 0 1;
#X obj 553 185 hsl 128 15 0 127 0 0 empty empty empty -2 -8 0 10 -262144
-1 -1 0 1;
#X text 639 139 pitch;
#X text 644 169 volume;
#X obj 697 185 tgl 15 0 empty empty empty 17 7 0 10 -262144 -1 -1 0
1;
#X obj 34 136 min 100;
#X obj 34 86 * -1;
#X obj 34 107 + 127;
#X text 187 192 on;
#X text 428 249 on;
#X text 695 170 on;
#X obj 307 126 min 100;
#X obj 307 85 * -1;
#X obj 307 106 + 127;
#X obj 550 119 min 100;
#X obj 550 75 * -1;
#X obj 550 96 + 127;
#X obj 13 282 dac~ 1 2, f 9;
#N canvas 654 88 540 593 mapping 0;
#X floatatom 83 92 5 0 0 0 - - -;
#X obj 83 117 / 1.27;
#X obj 146 169 moses 40;
#X obj 206 169 moses 50;
#X obj 112 237 t b;
#X obj 158 348 -;
#X msg 158 309 81.17;
#X msg 130 309 189;
#X obj 92 377 *;
#X obj 145 399 +;
#X floatatom 145 421 5 0 0 0 - - -;
#X obj 144 276 t b b;
#X obj 144 253 loadbang;
#X floatatom 83 142 5 0 0 0 - - -;
#X obj 434 346 -;
#X obj 386 383 *;
#X obj 439 405 +;
#X floatatom 439 427 5 0 0 0 - - -;
#X obj 438 282 t b b;
#X obj 438 259 loadbang;
#X obj 386 252 t b;
#X obj 328 168 moses 70;
#X floatatom 191 221 5 0 0 0 - - -;
#X obj 213 259 - 50;
#X floatatom 263 491 5 0 0 0 - - -;
#X obj 266 169 moses 60;
#X obj 265 199 t b;
#X msg 260 274 0;
#X obj 293 282 / 10;
#X obj 213 280 / -10;
#X obj 293 259 - 60;
#X obj 279 332 t b;
#X msg 279 353 1;
#X obj 148 200 t b;
#X msg 148 221 1;
#X floatatom 120 496 5 0 0 0 - - -;
#X obj 83 47 inlet;
#X obj 260 555 outlet;
#X obj 103 554 outlet;
#X obj 108 529 * 0.127;
#X obj 406 168 moses 80;
#X msg 386 272 80;
#X obj 386 294 - 80;
#X msg 424 315 1000;
#X msg 468 315 415.4;
#X obj 386 315 / 20;
#X floatatom 338 397 5 0 0 0 - - -;
#X obj 386 336 * -1;
#X obj 386 356 + 1;
#X obj 83 169 moses 10;
#X msg 112 257 10;
#X obj 83 297 / 10;
#X connect 0 0 1 0;
#X connect 1 0 13 0;
#X connect 2 0 4 0;
#X connect 2 0 33 0;
#X connect 2 1 3 0;
#X connect 3 0 22 0;
#X connect 3 0 23 0;
#X connect 3 0 4 0;
#X connect 3 1 25 0;
#X connect 4 0 50 0;
#X connect 5 0 8 1;
#X connect 6 0 5 1;
#X connect 6 0 9 1;
#X connect 7 0 5 0;
#X connect 8 0 9 0;
#X connect 9 0 10 0;
#X connect 10 0 35 0;
#X connect 11 0 7 0;
#X connect 11 1 6 0;
#X connect 12 0 11 0;
#X connect 13 0 49 0;
#X connect 14 0 15 1;
#X connect 15 0 16 0;
#X connect 16 0 17 0;
#X connect 17 0 35 0;
#X connect 18 0 43 0;
#X connect 18 1 44 0;
#X connect 19 0 18 0;
#X connect 20 0 41 0;
#X connect 21 0 30 0;
#X connect 21 0 20 0;
#X connect 21 1 40 0;
#X connect 23 0 29 0;
#X connect 24 0 37 0;
#X connect 25 0 26 0;
#X connect 25 1 21 0;
#X connect 26 0 27 0;
#X connect 27 0 24 0;
#X connect 28 0 24 0;
#X connect 29 0 24 0;
#X connect 30 0 28 0;
#X connect 31 0 32 0;
#X connect 32 0 24 0;
#X connect 33 0 34 0;
#X connect 34 0 24 0;
#X connect 35 0 39 0;
#X connect 36 0 0 0;
#X connect 39 0 38 0;
#X connect 40 0 31 0;
#X connect 40 0 20 0;
#X connect 40 1 31 0;
#X connect 40 1 42 0;
#X connect 41 0 42 0;
#X connect 42 0 45 0;
#X connect 43 0 14 0;
#X connect 44 0 14 1;
#X connect 44 0 16 1;
#X connect 45 0 46 0;
#X connect 45 0 47 0;
#X connect 47 0 48 0;
#X connect 48 0 15 0;
#X connect 49 0 33 0;
#X connect 49 0 51 0;
#X connect 49 1 2 0;
#X connect 50 0 51 0;
#X connect 51 0 8 0;
#X restore 267 149 pd mapping;
#X obj 294 205 *;
#X floatatom 349 157 5 0 0 0 - - -;
#X floatatom 228 204 5 0 0 0 - - -;
#X floatatom 224 127 5 0 0 0 - - -;
#X obj 305 177 t b f;
#X obj 277 42 hsl 128 15 0 127 0 0 empty empty empty -2 -8 0 10 -262144
-1 -1 0 1;
#X floatatom 404 170 5 0 0 0 - - -;
#X floatatom 76 86 5 0 0 0 - - -;
#X obj 274 447 loadbang;
#X msg 274 488 \; pd dsp 1;
#X floatatom 250 101 5 0 0 0 - - -;
#X obj 163 123 loadbang;
#X obj 452 161 loadbang;
#X msg 452 184 2;
#X msg 172 171 8;
#N canvas 0 23 918 363 NOTES 0;
#X text 26 124 low limit : distance en cm en dessous de laquelle les
valeurs sont ignoreés \,;
#X text 26 203 high clip : distance en cm au dessus de laquelle les
valeurs sont constantes;
#X text 26 163 low clip : distance en cm en dessous de laquelle les
valeurs sont constantes;
#X text 27 241 high limit : distance en cm au dessus de laquelle les
valeurs sont ignoreés \,;
#X text 14 102 receiveLidar <port> <low limit> <low clip> <high clip>
<high limit> <smooth>, f 78;
#X text 27 282 smooth : valeur de lissage \, plus c'est élevé \,
plus c'est lissé;
#X text 30 315 ctlout = n° de controleurs midi sur lesquels les valeurs
st envoyées;
#X text 26 66 valeurs receiveLidar Imaginary Landscape : 3331 22 27
55 12000 5 // 3332 22 30 50 12000 0;
#X text 538 109 MODE D’EMPLOI VILLERETTE > VCV connecter le routeur
à l’ordi PD lancer villerette.pd configurer audio vers carte son
MAC : lancer config audio et midi fenetre / afficher le studio midi
ds iAC driver / cliquer sur « le periph est connecté » redemarrer
PD paramètres midi /choisir « iac driver « comme periph de sortie
VCV ajouter un midi cc choisir IAC driver bus 1 les modules apparaissent
channel par channel;
#X text 21 21 valeurs pitch vinyl_synth Imaginary landscape 1 : 999.75
/ 2337, f 65;
#X text 21 41 valeurs pitch vinyl_synth Imaginary landscape 2 : 415.4
/ 1000 et 81.17 / 189, f 77;
#X restore 189 524 pd NOTES;
#X obj 550 52 receiveLidar 3338 22 30 70 12000 5;
#X msg 353 481 expose oscquery 5678 1234;
#X obj 353 461 loadbang;
#X obj 14 44 receiveLidar 3334 22 30 80 12000 2;
#X obj 34 65 receiveLidar 3333 22 30 80 12000 5;
#X obj 274 468 del 1000;
#X obj 267 20 receiveLidar 3335 20 20 70 12000 5;
#X floatatom 3 91 5 0 0 0 - - -;
#X obj 307 65 receiveLidar 3336 22 30 90 12000 2;
#X obj 540 494 noteout;
#X obj 540 474 makenote 120 250;
#X obj 540 378 spigot;
#X obj 586 376 tgl 15 0 empty empty empty 17 7 0 10 -262144 -1 -1 0
1;
#X floatatom 540 224 5 0 0 0 - - -;
#X obj 540 349 moses 127;
#X obj 539 245 receiveLidar 3337 22 30 460 12000 5;
#X obj 557 410 hsl 128 15 0 127 0 0 empty empty empty -2 -8 0 10 -262144
-1 -1 0 1;
#X obj 540 315 change;
#X floatatom 604 320 5 0 0 0 - - -;
#X obj 540 285 int;
#N canvas 0 23 450 300 filter 0;
#X obj 134 47 inlet;
#X obj 134 68 t f f;
#X obj 161 99 % 12;
#X obj 161 120 sel 0 1 3 7 8;
#X obj 134 213 spigot;
#X obj 134 234 outlet;
#X msg 161 149 1;
#X msg 213 155 0;
#X connect 0 0 1 0;
#X connect 1 0 4 0;
#X connect 1 1 2 0;
#X connect 2 0 3 0;
#X connect 3 0 6 0;
#X connect 3 1 6 0;
#X connect 3 2 6 0;
#X connect 3 3 6 0;
#X connect 3 4 6 0;
#X connect 3 5 7 0;
#X connect 4 0 5 0;
#X connect 6 0 4 1;
#X connect 7 0 4 1;
#X restore 540 439 pd filter;
#X obj 650 344 ossia.parameter piano/on @type bool;
#X obj 13 246 vinyl_synth 999.75 2337 4;
#X obj 49 546 declare -lib ossia;
#X obj 214 371 ossia.parameter pitch.2;
#X obj 49 322 ossia.parameter pitch.1;
#X obj 353 501 ossia.device lidar;
#X obj 694 555 ctlout 64;
#X msg 694 530 0;
#X text 693 512 pedal off;
#X obj 78 388 analog_synth 999.75 2337 4;
#X obj 837 442 s VCO_pwm;
#X obj 841 420 hsl 128 15 0 127 0 0 empty empty PWM -2 -8 0 10 -262144
-1 -1 9700 1;
#X obj 806 405 vsl 15 128 0 127 0 1 disto empty empty 0 -9 0 10 -262144
-1 -1 6400 1;
#X text 800 551 disto;
#X obj 840 471 vradio 15 1 0 4 empty empty empty 0 -8 0 10 -262144
-1 -1 2;
#X text 867 517 disto shape;
#N canvas 1 222 338 295 disto_shape 0;
#X obj 31 169 unpack f f f f;
#X obj 31 193 s disto1_A;
#X obj 58 214 s disto1_B;
#X obj 85 233 s disto2_A;
#X obj 112 254 s disto2_B;
#X msg 31 85 1 0 0 0;
#X msg 46 104 0 0 1 0;
#X msg 62 123 1 0.3 1 -0.3;
#X msg 78 142 1 -0.5 1 0.5;
#X obj 31 65 sel 0 1 2 3;
#X obj 32 39 inlet;
#X obj 130 67 loadbang;
#X connect 0 0 1 0;
#X connect 0 1 2 0;
#X connect 0 2 3 0;
#X connect 0 3 4 0;
#X connect 5 0 0 0;
#X connect 6 0 0 0;
#X connect 7 0 0 0;
#X connect 8 0 0 0;
#X connect 9 0 5 0;
#X connect 9 1 6 0;
#X connect 9 2 7 0;
#X connect 9 3 8 0;
#X connect 10 0 9 0;
#X connect 11 0 6 0;
#X restore 840 538 pd disto_shape;
#X obj 776 405 vsl 15 128 0 127 0 1 VCF_q empty VCF_Q 0 -9 0 10 -262144
-1 -1 9800 1;
#X obj 267 300 analog_synth 0 1000;
#X connect 0 0 68 0;
#X connect 0 0 76 0;
#X connect 1 0 68 1;
#X connect 1 0 76 1;
#X connect 4 0 68 3;
#X connect 4 0 76 3;
#X connect 6 0 85 0;
#X connect 7 0 85 1;
#X connect 10 0 85 3;
#X connect 11 0 64 0;
#X connect 11 0 65 0;
#X connect 16 0 1 0;
#X connect 17 0 18 0;
#X connect 18 0 16 0;
#X connect 22 0 30 0;
#X connect 23 0 24 0;
#X connect 24 0 22 0;
#X connect 25 0 12 0;
#X connect 26 0 27 0;
#X connect 27 0 25 0;
#X connect 29 0 32 0;
#X connect 29 0 6 0;
#X connect 29 1 31 0;
#X connect 29 1 34 0;
#X connect 30 0 7 0;
#X connect 33 0 29 0;
#X connect 34 0 30 0;
#X connect 34 1 30 1;
#X connect 36 0 6 0;
#X connect 38 0 51 0;
#X connect 41 0 44 0;
#X connect 42 0 43 0;
#X connect 43 0 85 2;
#X connect 44 0 68 2;
#X connect 44 0 76 2;
#X connect 46 0 26 0;
#X connect 47 0 72 0;
#X connect 48 0 47 0;
#X connect 49 0 53 0;
#X connect 49 0 71 0;
#X connect 50 0 17 0;
#X connect 50 0 37 0;
#X connect 51 0 39 0;
#X connect 52 0 35 0;
#X connect 52 0 29 0;
#X connect 52 0 40 0;
#X connect 52 0 70 0;
#X connect 53 0 0 0;
#X connect 54 0 23 0;
#X connect 56 0 55 0;
#X connect 56 1 55 1;
#X connect 57 0 66 0;
#X connect 58 0 57 1;
#X connect 59 0 61 0;
#X connect 60 0 57 0;
#X connect 61 0 11 0;
#X connect 62 0 66 0;
#X connect 63 0 60 0;
#X connect 65 0 63 0;
#X connect 66 0 56 0;
#X connect 67 0 58 0;
#X connect 68 0 28 0;
#X connect 74 0 73 0;
#X connect 76 0 28 1;
#X connect 78 0 77 0;
#X connect 81 0 83 0;
#X connect 85 0 5 1;
