#N canvas 174 78 1106 587 10;
#X declare -lib ossia;
#X obj 15 176 hsl 128 15 0 127 0 0 empty empty empty -2 -8 0 10 -262144
-1 -1 12700 1;
#X obj 30 212 hsl 128 15 0 127 0 0 empty empty empty -2 -8 0 10 -262144
-1 -1 0 1;
#X text 110 159 pitch;
#X text 117 197 volume;
#X obj 188 219 tgl 15 0 empty empty empty 17 7 0 10 -262144 -1 -1 0
1;
#X obj 270 238 hsl 128 15 0 127 0 0 empty empty empty -2 -8 0 10 -262144
-1 -1 12700 1;
#X obj 280 268 hsl 128 15 0 127 0 0 empty empty empty -2 -8 0 10 -262144
-1 -1 10000 1;
#X text 364 218 pitch;
#X text 370 252 volume;
#X obj 429 276 tgl 15 0 empty empty empty 17 7 0 10 -262144 -1 -1 0
1;
#X obj 543 275 hsl 128 15 0 127 0 0 empty empty empty -2 -8 0 10 -262144
-1 -1 0 1;
#X obj 553 195 hsl 128 15 0 127 0 0 empty empty empty -2 -8 0 10 -262144
-1 -1 0 1;
#X text 639 149 pitch;
#X text 644 179 volume;
#X obj 697 195 tgl 15 0 empty empty empty 17 7 0 10 -262144 -1 -1 0
1;
#X obj 34 146 min 100;
#X obj 34 96 * -1;
#X obj 34 117 + 127;
#X text 187 202 on;
#X text 428 259 on;
#X text 695 180 on;
#X obj 307 136 min 100;
#X obj 307 95 * -1;
#X obj 307 116 + 127;
#X obj 550 129 min 100;
#X obj 550 85 * -1;
#X obj 550 106 + 127;
#X obj 13 392 dac~ 1 2, f 9;
#N canvas 654 88 560 593 mapping 1;
#X floatatom 53 82 5 0 0 0 - - -;
#X obj 53 107 / 1.27;
#X obj 146 169 moses 40;
#X obj 206 169 moses 50;
#X obj 112 237 t b;
#X obj 130 337 -;
#X msg 158 309 81.17;
#X msg 130 309 189;
#X obj 92 377 *;
#X obj 145 399 +;
#X floatatom 145 421 5 0 0 0 - - -;
#X obj 144 276 t b b;
#X obj 144 253 loadbang;
#X floatatom 53 132 5 0 0 0 - - -;
#X obj 434 346 -;
#X obj 386 383 *;
#X obj 439 405 +;
#X floatatom 439 427 5 0 0 0 - - -;
#X obj 438 282 t b b;
#X obj 438 259 loadbang;
#X obj 386 252 t b;
#X obj 328 168 moses 70;
#X floatatom 191 221 5 0 0 0 - - -;
#X obj 213 259 - 50;
#X floatatom 263 491 5 0 0 0 - - -;
#X obj 266 169 moses 60;
#X obj 265 199 t b;
#X msg 260 274 0;
#X obj 293 282 / 10;
#X obj 213 280 / -10;
#X obj 293 259 - 60;
#X obj 279 332 t b;
#X msg 279 353 1;
#X obj 148 200 t b;
#X msg 148 221 1;
#X floatatom 120 496 5 0 0 0 - - -;
#X obj 53 37 inlet;
#X obj 260 555 outlet;
#X obj 103 554 outlet;
#X obj 108 529 * 0.127;
#X msg 424 315 1000;
#X msg 468 315 415.4;
#X floatatom 338 397 5 0 0 0 - - -;
#X obj 386 336 * -1;
#X obj 386 356 + 1;
#X floatatom 479 204 5 0 0 0 - - -;
#X floatatom 367 193 5 0 0 0 - - -;
#X obj 406 168 moses 90;
#X msg 386 272 90;
#X obj 386 294 - 90;
#X obj 386 315 / 10;
#X obj 83 169 moses 20;
#X obj 23 169 moses 10;
#X msg 23 241 0;
#X obj 23 220 t b;
#X obj 83 297 / 20;
#X msg 112 257 20;
#X connect 0 0 1 0;
#X connect 1 0 13 0;
#X connect 2 0 4 0;
#X connect 2 0 33 0;
#X connect 2 1 3 0;
#X connect 3 0 22 0;
#X connect 3 0 23 0;
#X connect 3 0 4 0;
#X connect 3 1 25 0;
#X connect 4 0 56 0;
#X connect 5 0 8 1;
#X connect 6 0 5 1;
#X connect 6 0 9 1;
#X connect 7 0 5 0;
#X connect 8 0 9 0;
#X connect 9 0 10 0;
#X connect 10 0 35 0;
#X connect 11 0 7 0;
#X connect 11 1 6 0;
#X connect 12 0 11 0;
#X connect 13 0 52 0;
#X connect 14 0 15 1;
#X connect 15 0 16 0;
#X connect 16 0 17 0;
#X connect 17 0 35 0;
#X connect 18 0 40 0;
#X connect 18 1 41 0;
#X connect 19 0 18 0;
#X connect 20 0 48 0;
#X connect 21 0 30 0;
#X connect 21 0 20 0;
#X connect 21 1 47 0;
#X connect 23 0 29 0;
#X connect 24 0 37 0;
#X connect 25 0 26 0;
#X connect 25 1 21 0;
#X connect 26 0 27 0;
#X connect 27 0 24 0;
#X connect 28 0 24 0;
#X connect 29 0 24 0;
#X connect 30 0 28 0;
#X connect 31 0 32 0;
#X connect 32 0 24 0;
#X connect 33 0 34 0;
#X connect 34 0 24 0;
#X connect 35 0 39 0;
#X connect 36 0 0 0;
#X connect 39 0 38 0;
#X connect 40 0 14 0;
#X connect 41 0 14 1;
#X connect 41 0 16 1;
#X connect 43 0 44 0;
#X connect 44 0 15 0;
#X connect 47 0 31 0;
#X connect 47 0 20 0;
#X connect 47 0 46 0;
#X connect 47 1 31 0;
#X connect 47 1 45 0;
#X connect 47 1 49 0;
#X connect 48 0 49 0;
#X connect 49 0 50 0;
#X connect 50 0 42 0;
#X connect 50 0 43 0;
#X connect 51 0 33 0;
#X connect 51 0 55 0;
#X connect 51 1 2 0;
#X connect 52 0 54 0;
#X connect 52 1 51 0;
#X connect 53 0 55 0;
#X connect 54 0 53 0;
#X connect 55 0 8 0;
#X connect 56 0 55 0;
#X restore 267 159 pd mapping;
#X obj 294 215 *;
#X floatatom 349 167 5 0 0 0 - - -;
#X floatatom 228 214 5 0 0 0 - - -;
#X floatatom 224 137 5 0 0 0 - - -;
#X obj 307 184 t b f;
#X obj 279 53 hsl 128 15 0 127 0 0 empty empty empty -2 -8 0 10 -262144
-1 -1 10433 1;
#X floatatom 404 180 5 0 0 0 - - -;
#X floatatom 76 96 5 0 0 0 - - -;
#X obj 274 457 loadbang;
#X msg 274 498 \; pd dsp 1;
#X obj 163 133 loadbang;
#X obj 452 171 loadbang;
#N canvas 0 23 918 363 NOTES 0;
#X text 26 124 low limit : distance en cm en dessous de laquelle les
valeurs sont ignoreés \,;
#X text 26 203 high clip : distance en cm au dessus de laquelle les
valeurs sont constantes;
#X text 26 163 low clip : distance en cm en dessous de laquelle les
valeurs sont constantes;
#X text 27 241 high limit : distance en cm au dessus de laquelle les
valeurs sont ignoreés \,;
#X text 14 102 receiveLidar <port> <low limit> <low clip> <high clip>
<high limit> <smooth>, f 78;
#X text 27 282 smooth : valeur de lissage \, plus c'est élevé \,
plus c'est lissé;
#X text 30 315 ctlout = n° de controleurs midi sur lesquels les valeurs
st envoyées;
#X text 26 66 valeurs receiveLidar Imaginary Landscape : 3331 22 27
55 12000 5 // 3332 22 30 50 12000 0;
#X text 538 109 MODE D’EMPLOI VILLERETTE > VCV connecter le routeur
à l’ordi PD lancer villerette.pd configurer audio vers carte son
MAC : lancer config audio et midi fenetre / afficher le studio midi
ds iAC driver / cliquer sur « le periph est connecté » redemarrer
PD paramètres midi /choisir « iac driver « comme periph de sortie
VCV ajouter un midi cc choisir IAC driver bus 1 les modules apparaissent
channel par channel;
#X text 21 21 valeurs pitch vinyl_synth Imaginary landscape 1 : 999.75
/ 2337, f 65;
#X text 21 41 valeurs pitch vinyl_synth Imaginary landscape 2 : 415.4
/ 1000 et 81.17 / 189, f 77;
#X restore 189 534 pd NOTES;
#X obj 550 62 receiveLidar 3338 22 30 70 12000 5;
#X obj 353 471 loadbang;
#X obj 274 478 del 1000;
#X floatatom 3 101 5 0 0 0 - - -;
#X obj 540 504 noteout;
#X obj 540 388 spigot;
#X obj 586 386 tgl 15 0 empty empty empty 17 7 0 10 -262144 -1 -1 0
1;
#X floatatom 540 234 5 0 0 0 - - -;
#X obj 540 359 moses 127;
#X obj 539 255 receiveLidar 3337 22 30 460 12000 5;
#X obj 557 420 hsl 128 15 0 127 0 0 empty empty empty -2 -8 0 10 -262144
-1 -1 0 1;
#X obj 540 325 change;
#X floatatom 604 330 5 0 0 0 - - -;
#X obj 540 295 int;
#N canvas 0 23 450 300 filter 0;
#X obj 134 47 inlet;
#X obj 134 68 t f f;
#X obj 161 99 % 12;
#X obj 161 120 sel 0 1 3 7 8;
#X obj 134 213 spigot;
#X obj 134 234 outlet;
#X msg 161 149 1;
#X msg 213 155 0;
#X connect 0 0 1 0;
#X connect 1 0 4 0;
#X connect 1 1 2 0;
#X connect 2 0 3 0;
#X connect 3 0 6 0;
#X connect 3 1 6 0;
#X connect 3 2 6 0;
#X connect 3 3 6 0;
#X connect 3 4 6 0;
#X connect 3 5 7 0;
#X connect 4 0 5 0;
#X connect 6 0 4 1;
#X connect 7 0 4 1;
#X restore 540 440 pd filter;
#X obj 628 297 ossia.parameter piano/on @type bool;
#X obj 49 556 declare -lib ossia;
#X obj 694 565 ctlout 64;
#X msg 694 540 0;
#X text 693 522 pedal off;
#X obj 12 289 *~ 0.1;
#X obj 82 359 *~ 0.1;
#X obj 267 310 vinyl_synth 0 1000;
#X obj 13 261 vinyl_synth 999.75 2337 4;
#X msg 452 194 1;
#X msg 172 181 1;
#X msg 353 491 expose oscquery 1234 5678;
#X obj 353 511 ossia.device lidar;
#N canvas 0 23 450 300 client 0;
#X obj 99 156 ossia.client ecg 0;
#X obj 99 104 loadbang;
#X msg 99 125 connect oscquery ws://192.168.32.10:5678, f 45;
#X connect 1 0 2 0;
#X connect 2 0 0 0;
#X restore 55 510 pd client;
#N canvas 0 23 450 300 mapping 0;
#X obj 36 173 inlet;
#X obj 36 213 / 127;
#X obj 36 233 ossia.remote ecg:/oscillo.1/input;
#X obj 36 193 spigot;
#X obj 86 143 inlet;
#X obj 86 183 / 127;
#X obj 86 163 spigot;
#X obj 136 113 inlet;
#X obj 136 153 / 127;
#X obj 136 133 spigot;
#X obj 186 83 inlet;
#X obj 186 123 / 127;
#X obj 186 103 spigot;
#X obj 86 203 ossia.remote ecg:/oscillo.2/input;
#X obj 136 173 ossia.remote ecg:/oscillo.3/input;
#X obj 186 143 ossia.remote ecg:/oscillo.4/input;
#X obj 297 11 inlet;
#X obj 297 31 t b f;
#X msg 297 52 0;
#X connect 0 0 3 0;
#X connect 1 0 2 0;
#X connect 3 0 1 0;
#X connect 4 0 6 0;
#X connect 5 0 13 0;
#X connect 6 0 5 0;
#X connect 7 0 9 0;
#X connect 8 0 14 0;
#X connect 9 0 8 0;
#X connect 10 0 12 0;
#X connect 11 0 15 0;
#X connect 12 0 11 0;
#X connect 16 0 17 0;
#X connect 17 0 18 0;
#X connect 17 1 12 1;
#X connect 17 1 3 1;
#X connect 17 1 6 1;
#X connect 17 1 9 1;
#X connect 18 0 15 0;
#X connect 18 0 14 0;
#X connect 18 0 13 0;
#X connect 18 0 2 0;
#X restore 100 464 pd mapping;
#X obj 205 412 tgl 15 0 empty empty empty 17 7 0 10 -262144 -1 -1 1
1;
#X obj 205 388 ossia.parameter send_ecg @type bool;
#X msg 634 391 set 0;
#X obj 348 565 ../common/selectMidiDevice none disklavier_netsend;
#X obj 540 484 makenote 120 100;
#N canvas 0 23 426 532 cluster 0;
#X text 61 184 fq 24000 \, buf 2048 \, del 5ms;
#X obj 59 296 random 24;
#X obj 59 317 + 40;
#X obj 58 261 until;
#X msg 57 235 8;
#X obj 108 228 random 4;
#X obj 108 249 * 12;
#X obj 108 270 + 40;
#X obj 57 154 t b b;
#X obj 58 31 bng 15 250 50 0 empty empty empty 17 7 0 10 -262144 -1
-1;
#X obj 58 51 t b b;
#X obj 115 105 + 50;
#X obj 195 105 + 150;
#X obj 115 126 del;
#X obj 265 105 + 250;
#X obj 195 126 del;
#X obj 265 126 del;
#X obj 115 84 random 100;
#X obj 195 84 random 100;
#X obj 265 84 random 100;
#X obj 59 448 outlet;
#X obj 58 6 inlet;
#X obj 59 338 t a b;
#X obj 80 369 random 60;
#X obj 80 390 + 64;
#X obj 59 423 pack;
#X connect 1 0 2 0;
#X connect 2 0 22 0;
#X connect 3 0 1 0;
#X connect 4 0 3 0;
#X connect 5 0 6 0;
#X connect 6 0 7 0;
#X connect 7 0 2 1;
#X connect 8 0 4 0;
#X connect 8 1 5 0;
#X connect 9 0 10 0;
#X connect 10 0 8 0;
#X connect 10 1 17 0;
#X connect 10 1 18 0;
#X connect 10 1 19 0;
#X connect 11 0 13 0;
#X connect 12 0 15 0;
#X connect 13 0 8 0;
#X connect 14 0 16 0;
#X connect 15 0 8 0;
#X connect 16 0 8 0;
#X connect 17 0 11 0;
#X connect 18 0 12 0;
#X connect 19 0 14 0;
#X connect 21 0 9 0;
#X connect 22 0 25 0;
#X connect 22 1 23 0;
#X connect 23 0 24 0;
#X connect 24 0 25 1;
#X connect 25 0 20 0;
#X restore 699 408 pd cluster;
#X obj 699 391 bng 15 250 50 0 empty empty empty 17 7 0 10 -262144
-1 -1;
#X obj 789 421 bng 15 250 50 0 empty empty empty 17 7 0 10 -262144
-1 -1;
#N canvas 0 23 426 532 glissando 0;
#X obj 59 191 bng 15 250 50 0 empty empty empty 17 7 0 10 -262144 -1
-1;
#X obj 59 338 outlet;
#X obj 59 166 inlet;
#X obj 59 268 line, f 18;
#X msg 59 248 20 \, 110 2000;
#X msg 196 283 100;
#X msg 255 264 0;
#X obj 214 351 ctlout 64;
#X msg 59 307 \$1 40;
#X obj 255 243 del 30000;
#X connect 0 0 4 0;
#X connect 0 0 5 0;
#X connect 0 0 9 0;
#X connect 2 0 0 0;
#X connect 3 0 8 0;
#X connect 4 0 3 0;
#X connect 5 0 7 0;
#X connect 6 0 7 0;
#X connect 8 0 1 0;
#X connect 9 0 6 0;
#X restore 789 438 pd glissando;
#X obj 699 351 ossia.parameter piano/cluster @type bool;
#X obj 789 381 ossia.parameter piano/glissando @type bool;
#X obj 789 402 sel 1;
#X obj 699 372 sel 1;
#X obj 267 30 receiveWiredLidar 3335 20 20 70 12000 5;
#X obj 307 75 receiveWiredLidar 3336 22 30 90 12000 2;
#X floatatom 371 107 5 0 0 0 - - -;
#X obj 14 54 receiveLidar 3334 22 30 80 12000 2;
#X obj 34 75 receiveLidar 3333 22 30 80 12000 5;
#X floatatom 375 142 5 0 0 0 - - -;
#X obj 170 5 ../LidarSlip/Receive_data;
#N canvas 654 88 560 593 mapping 0;
#X floatatom 83 92 5 0 0 0 - - -;
#X obj 83 117 / 1.27;
#X obj 146 169 moses 40;
#X obj 206 169 moses 50;
#X obj 112 237 t b;
#X obj 158 348 -;
#X msg 158 309 81.17;
#X msg 130 309 189;
#X obj 92 377 *;
#X obj 145 399 +;
#X floatatom 145 421 5 0 0 0 - - -;
#X obj 144 276 t b b;
#X obj 144 253 loadbang;
#X floatatom 83 142 5 0 0 0 - - -;
#X obj 434 346 -;
#X obj 386 383 *;
#X obj 439 405 +;
#X floatatom 439 427 5 0 0 0 - - -;
#X obj 438 282 t b b;
#X obj 438 259 loadbang;
#X obj 386 252 t b;
#X obj 328 168 moses 70;
#X floatatom 191 221 5 0 0 0 - - -;
#X obj 213 259 - 50;
#X floatatom 263 491 5 0 0 0 - - -;
#X obj 266 169 moses 60;
#X obj 265 199 t b;
#X msg 260 274 0;
#X obj 293 282 / 10;
#X obj 213 280 / -10;
#X obj 293 259 - 60;
#X obj 279 332 t b;
#X msg 279 353 1;
#X obj 148 200 t b;
#X msg 148 221 1;
#X floatatom 120 496 5 0 0 0 - - -;
#X obj 83 47 inlet;
#X obj 260 555 outlet;
#X obj 103 554 outlet;
#X obj 108 529 * 0.127;
#X msg 424 315 1000;
#X msg 468 315 415.4;
#X floatatom 338 397 5 0 0 0 - - -;
#X obj 386 336 * -1;
#X obj 386 356 + 1;
#X obj 83 169 moses 10;
#X msg 112 257 10;
#X obj 83 297 / 10;
#X floatatom 479 204 5 0 0 0 - - -;
#X floatatom 367 193 5 0 0 0 - - -;
#X obj 406 168 moses 90;
#X msg 386 272 90;
#X obj 386 294 - 90;
#X obj 386 315 / 10;
#X connect 0 0 1 0;
#X connect 1 0 13 0;
#X connect 2 0 4 0;
#X connect 2 0 33 0;
#X connect 2 1 3 0;
#X connect 3 0 22 0;
#X connect 3 0 23 0;
#X connect 3 0 4 0;
#X connect 3 1 25 0;
#X connect 4 0 46 0;
#X connect 5 0 8 1;
#X connect 6 0 5 1;
#X connect 6 0 9 1;
#X connect 7 0 5 0;
#X connect 8 0 9 0;
#X connect 9 0 10 0;
#X connect 10 0 35 0;
#X connect 11 0 7 0;
#X connect 11 1 6 0;
#X connect 12 0 11 0;
#X connect 13 0 45 0;
#X connect 14 0 15 1;
#X connect 15 0 16 0;
#X connect 16 0 17 0;
#X connect 17 0 35 0;
#X connect 18 0 40 0;
#X connect 18 1 41 0;
#X connect 19 0 18 0;
#X connect 20 0 51 0;
#X connect 21 0 30 0;
#X connect 21 0 20 0;
#X connect 21 1 50 0;
#X connect 23 0 29 0;
#X connect 24 0 37 0;
#X connect 25 0 26 0;
#X connect 25 1 21 0;
#X connect 26 0 27 0;
#X connect 27 0 24 0;
#X connect 28 0 24 0;
#X connect 29 0 24 0;
#X connect 30 0 28 0;
#X connect 31 0 32 0;
#X connect 32 0 24 0;
#X connect 33 0 34 0;
#X connect 34 0 24 0;
#X connect 35 0 39 0;
#X connect 36 0 0 0;
#X connect 39 0 38 0;
#X connect 40 0 14 0;
#X connect 41 0 14 1;
#X connect 41 0 16 1;
#X connect 43 0 44 0;
#X connect 44 0 15 0;
#X connect 45 0 33 0;
#X connect 45 0 47 0;
#X connect 45 1 2 0;
#X connect 46 0 47 0;
#X connect 47 0 8 0;
#X connect 50 0 31 0;
#X connect 50 0 20 0;
#X connect 50 0 49 0;
#X connect 50 1 31 0;
#X connect 50 1 48 0;
#X connect 50 1 52 0;
#X connect 51 0 52 0;
#X connect 52 0 53 0;
#X connect 53 0 42 0;
#X connect 53 0 43 0;
#X restore 802 155 pd mapping;
#X connect 0 0 65 0;
#X connect 0 0 71 0;
#X connect 1 0 65 1;
#X connect 1 0 71 1;
#X connect 4 0 65 3;
#X connect 5 0 64 0;
#X connect 5 0 71 2;
#X connect 6 0 64 1;
#X connect 6 0 71 3;
#X connect 9 0 64 3;
#X connect 10 0 54 0;
#X connect 10 0 55 0;
#X connect 15 0 1 0;
#X connect 16 0 17 0;
#X connect 17 0 15 0;
#X connect 21 0 29 0;
#X connect 22 0 23 0;
#X connect 23 0 21 0;
#X connect 24 0 11 0;
#X connect 25 0 26 0;
#X connect 26 0 24 0;
#X connect 28 0 31 0;
#X connect 28 0 5 0;
#X connect 28 1 30 0;
#X connect 28 1 33 0;
#X connect 29 0 6 0;
#X connect 32 0 28 0;
#X connect 33 0 29 0;
#X connect 33 1 29 1;
#X connect 35 0 5 0;
#X connect 37 0 44 0;
#X connect 39 0 67 0;
#X connect 40 0 66 0;
#X connect 42 0 25 0;
#X connect 43 0 68 0;
#X connect 44 0 38 0;
#X connect 45 0 0 0;
#X connect 47 0 56 0;
#X connect 48 0 47 1;
#X connect 49 0 51 0;
#X connect 50 0 47 0;
#X connect 51 0 10 0;
#X connect 52 0 56 0;
#X connect 53 0 50 0;
#X connect 55 0 53 0;
#X connect 56 0 76 0;
#X connect 57 0 48 0;
#X connect 60 0 59 0;
#X connect 62 0 27 0;
#X connect 63 0 27 1;
#X connect 64 0 63 0;
#X connect 65 0 62 0;
#X connect 66 0 64 2;
#X connect 67 0 65 2;
#X connect 68 0 69 0;
#X connect 72 0 71 4;
#X connect 73 0 72 0;
#X connect 74 0 52 0;
#X connect 76 0 46 0;
#X connect 76 1 46 1;
#X connect 77 0 76 0;
#X connect 78 0 77 0;
#X connect 79 0 80 0;
#X connect 80 0 76 0;
#X connect 81 0 84 0;
#X connect 82 0 83 0;
#X connect 83 0 79 0;
#X connect 84 0 78 0;
#X connect 85 0 34 0;
#X connect 85 0 28 0;
#X connect 86 0 22 0;
#X connect 86 0 87 0;
#X connect 88 0 45 0;
#X connect 89 0 16 0;
#X connect 89 0 36 0;
#X connect 90 0 29 0;
#X connect 91 2 85 0;
#X connect 91 3 86 0;
