#N canvas 642 78 420 635 10;
#X obj 56 389 osc~ 1000;
#X obj 55 364 line~;
#X msg 55 333 \$1 10;
#X text 242 158 \$1 : fader CC -> pitch;
#X text 242 178 \$2 : rot enc CC -> volume;
#X obj 55 120 / 127;
#X text 242 199 \$3 : button CC -> cut;
#X text 242 219 \$4 : lower freq;
#X text 242 238 \$5 : higher freq;
#X floatatom 55 269 5 0 0 0 - - -;
#X obj 115 301 ftom;
#X floatatom 115 324 5 0 0 0 - - -;
#X obj 56 522 *~;
#X obj 56 595 *~;
#X obj 56 618 outlet~;
#X obj 258 420 > 0;
#X obj 258 442 tgl 15 0 empty empty empty 17 7 0 10 -262144 -1 -1 1
1;
#X msg 258 462 \$1 10;
#X obj 258 485 line~;
#X obj 168 418 line~;
#X obj 168 373 dbtorms;
#X msg 168 396 \$1 10;
#X obj 139 21 loadbang;
#X obj 55 143 *;
#X obj 55 180 +;
#X obj 119 109 -;
#X floatatom 119 132 5 0 0 0 - - -;
#X obj 55 95 inlet;
#X obj 168 240 inlet;
#X obj 258 395 inlet;
#X obj 159 78 \$2;
#X obj 186 78 \$1;
#X obj 139 44 t b b b;
#N canvas 0 23 450 300 volume 0;
#X floatatom 189 92 5 0 0 0 - - -;
#X obj 132 34 hsl 128 15 0 127 0 0 empty empty empty -2 -8 0 10 -262144
-1 -1 0 1;
#X obj 129 62 / 127;
#X obj 129 99 * 40;
#X obj 129 134 + 60;
#X floatatom 137 242 5 0 0 0 - - -;
#X obj 129 163 moses 70;
#X obj 113 191 - 60;
#X obj 113 212 * 7;
#X obj 129 13 inlet;
#X obj 138 266 outlet;
#X connect 1 0 2 0;
#X connect 2 0 0 0;
#X connect 2 0 3 0;
#X connect 3 0 4 0;
#X connect 4 0 6 0;
#X connect 5 0 10 0;
#X connect 6 0 7 0;
#X connect 6 1 5 0;
#X connect 7 0 8 0;
#X connect 8 0 5 0;
#X connect 9 0 1 0;
#X restore 168 313 pd volume mappng;
#X floatatom 177 340 5 0 0 0 - - -;
#X text 242 258 \$6 : pitch scale;
#X obj 55 304 / 1;
#X obj 207 123 inlet;
#X obj 304 352 loadbang;
#X msg 304 373 1;
#X connect 0 0 12 0;
#X connect 1 0 0 0;
#X connect 2 0 1 0;
#X connect 5 0 23 0;
#X connect 9 0 10 0;
#X connect 9 0 36 0;
#X connect 10 0 11 0;
#X connect 12 0 13 0;
#X connect 13 0 14 0;
#X connect 15 0 16 0;
#X connect 16 0 17 0;
#X connect 17 0 18 0;
#X connect 18 0 13 1;
#X connect 19 0 12 1;
#X connect 20 0 21 0;
#X connect 21 0 19 0;
#X connect 22 0 32 0;
#X connect 23 0 24 0;
#X connect 24 0 9 0;
#X connect 25 0 23 1;
#X connect 25 0 26 0;
#X connect 27 0 5 0;
#X connect 28 0 33 0;
#X connect 29 0 15 0;
#X connect 30 0 25 0;
#X connect 31 0 25 1;
#X connect 31 0 24 1;
#X connect 32 0 5 0;
#X connect 32 1 30 0;
#X connect 32 2 31 0;
#X connect 33 0 20 0;
#X connect 33 0 34 0;
#X connect 36 0 2 0;
#X connect 37 0 36 1;
#X connect 38 0 39 0;
#X connect 39 0 15 0;
