#N canvas 682 84 508 660 10;
#X obj 127 143 constantq~;
#X obj 186 6 loadbang;
#N canvas 0 22 450 300 (subpatch) 0;
#X array \$0-spectrum 80 float 2;
#X coords 0 127 80 0 100 140 1 0 0;
#X restore 266 133 graph;
#X msg 209 94 buffer \$1-spectrum;
#X obj 209 74 \$0;
#X obj 217 49 bng 15 250 50 0 empty empty empty 17 7 0 10 -262144 -1
-1;
#X obj 93 267 list-abs/list-drip;
#X obj 127 238 t a b;
#X obj 93 288 t b f;
#X obj 93 329 f;
#X obj 120 329 + 1;
#X msg 154 287 0;
#X obj 93 371 + 20;
#X obj 127 164 route bang;
#X msg 246 68 buffer;
#X obj 93 577 noteout;
#X obj 253 391 makenote;
#X obj 142 392 - 30;
#X obj 258 339 moses;
#X floatatom 261 318 5 0 0 0 - - -;
#X floatatom 283 370 5 0 0 0 - - -;
#X floatatom 204 352 5 0 0 0 - - -;
#X obj 183 189 tgl 15 0 empty empty empty 17 7 0 10 -262144 -1 -1 1
1;
#X obj 54 81 readsf~;
#X obj 30 156 dac~ 1 2;
#X msg 25 33 open CageFeldman.wav \, 1;
#X msg 55 56 0;
#X floatatom 165 332 5 0 0 0 - - -;
#X obj 384 308 list length;
#X floatatom 384 329 5 0 0 0 - - -;
#X obj 229 526 tabwrite \$0-spectrum;
#X obj 376 448 ctlout;
#X msg 333 395 64 0 \, 65 0 \, 66 0 \, 67 0;
#X obj 251 421 pack;
#X msg 228 486 \$2;
#X msg 343 487 \$1;
#X obj 253 448 t a a;
#X obj 79 110 *~ 1;
#X obj 142 413 min 127;
#X obj 142 434 max 0;
#X obj 94 492 stripnote;
#N canvas 0 23 450 300 allnoteoff 0;
#X obj 66 263 noteout;
#X obj 75 120 until;
#X obj 75 148 f;
#X obj 113 148 + 1;
#X obj 158 147 sel 0;
#X msg 83 89 128;
#X obj 113 174 mod 128;
#X obj 65 207 t f b;
#X msg 89 238 0;
#X connect 1 0 2 0;
#X connect 2 0 3 0;
#X connect 2 0 7 0;
#X connect 3 0 6 0;
#X connect 4 0 1 1;
#X connect 5 0 1 0;
#X connect 6 0 2 1;
#X connect 6 0 4 0;
#X connect 7 0 0 0;
#X connect 7 1 8 0;
#X connect 8 0 0 1;
#X restore 411 550 pd allnoteoff;
#X msg 186 27 rate 100 \, logfrqs 120 2000 80 \, reset;
#X obj 142 371 * 10000;
#X obj 127 216 spigot 1;
#X obj 419 27 adc~ 11;
#X obj 420 62 *~ 10;
#X obj 397 183 loadbang;
#X obj 397 204 delay 1000;
#X msg 397 225 \; pd dsp 1;
#X text 164 586 midi out : netsend;
#X obj 91 610 ../common/selectMidiDevice none disklavier_netsend;
#X msg 15 13 open morton-solo.aif \, 1;
#X obj 142 455 moses 64;
#X obj 20 556 timer;
#X obj 21 525 t b b;
#X floatatom 20 577 5 0 0 0 - - -;
#X obj 17 486 bng 15 250 50 0 empty empty empty 17 7 0 10 -262144 -1
-1;
#X obj 93 545 poly 16;
#X obj 88 455 max 0;
#X obj 36 416 moses 127;
#X obj 93 519 makenote 64 100;
#X connect 0 0 13 0;
#X connect 1 0 42 0;
#X connect 3 0 0 0;
#X connect 4 0 3 0;
#X connect 5 0 4 0;
#X connect 6 0 8 0;
#X connect 7 0 6 0;
#X connect 7 0 28 0;
#X connect 7 1 11 0;
#X connect 8 0 9 0;
#X connect 8 1 43 0;
#X connect 9 0 10 0;
#X connect 9 0 12 0;
#X connect 9 0 33 0;
#X connect 10 0 9 1;
#X connect 11 0 9 1;
#X connect 12 0 60 0;
#X connect 13 1 44 0;
#X connect 14 0 0 0;
#X connect 17 0 38 0;
#X connect 18 1 20 0;
#X connect 19 0 18 0;
#X connect 21 0 17 1;
#X connect 22 0 44 1;
#X connect 23 0 37 0;
#X connect 23 0 24 0;
#X connect 23 0 24 1;
#X connect 23 1 52 0;
#X connect 25 0 23 0;
#X connect 26 0 23 0;
#X connect 27 0 43 1;
#X connect 28 0 29 0;
#X connect 32 0 31 0;
#X connect 33 0 36 0;
#X connect 34 0 30 0;
#X connect 35 0 30 1;
#X connect 36 0 34 0;
#X connect 36 1 35 0;
#X connect 37 0 0 0;
#X connect 38 0 39 0;
#X connect 39 0 53 0;
#X connect 40 0 61 0;
#X connect 40 1 61 1;
#X connect 42 0 0 0;
#X connect 43 0 17 0;
#X connect 44 0 7 0;
#X connect 45 0 46 0;
#X connect 47 0 48 0;
#X connect 48 0 49 0;
#X connect 52 0 23 0;
#X connect 53 1 40 1;
#X connect 53 1 33 1;
#X connect 54 0 56 0;
#X connect 55 0 54 0;
#X connect 55 1 54 1;
#X connect 57 0 55 0;
#X connect 58 0 15 0;
#X connect 58 1 15 1;
#X connect 59 0 40 0;
#X connect 60 0 59 0;
#X connect 61 0 55 0;
#X connect 61 0 58 0;
#X connect 61 1 58 1;
